<mxfile host="Electron" agent="Mozilla/5.0 (Windows NT 10.0; Win64; x64) AppleWebKit/537.36 (KHTML, like Gecko) draw.io/26.0.4 Chrome/128.0.6613.186 Electron/32.2.5 Safari/537.36" version="26.0.4">
  <diagram name="Page-1" id="bNE_D-fTSQdiR-3sDrzl">
    <mxGraphModel dx="11960" dy="10940" grid="0" gridSize="10" guides="1" tooltips="1" connect="1" arrows="1" fold="1" page="0" pageScale="1" pageWidth="827" pageHeight="1169" math="0" shadow="0">
      <root>
        <mxCell id="0" />
        <mxCell id="1" parent="0" />
        <mxCell id="37-u8FB9lLhl7dkDFb6i-112" value="Registration: User forwarded to Betting &lt;br&gt;provider through Aggregator*" style="edgeStyle=none;rounded=0;orthogonalLoop=1;jettySize=auto;html=1;fontFamily=Helvetica;fontSize=70;fontColor=default;endArrow=none;endFill=0;strokeWidth=6;" parent="1" source="37-u8FB9lLhl7dkDFb6i-95" target="37-u8FB9lLhl7dkDFb6i-87" edge="1">
          <mxGeometry x="0.3949" y="-29" relative="1" as="geometry">
            <mxPoint x="-2" y="-1" as="offset" />
          </mxGeometry>
        </mxCell>
        <mxCell id="37-u8FB9lLhl7dkDFb6i-106" value="«Internal»&lt;br&gt;&lt;b&gt;Provider Integrator&lt;/b&gt;" style="html=1;whiteSpace=wrap;strokeWidth=8;align=center;verticalAlign=top;fontFamily=Helvetica;fontSize=70;" parent="1" vertex="1">
          <mxGeometry x="4317" y="2842" width="1045" height="585" as="geometry" />
        </mxCell>
        <mxCell id="37-u8FB9lLhl7dkDFb6i-105" value="«Internal»&lt;br&gt;&lt;b&gt;Provider Integrator&lt;/b&gt;" style="html=1;whiteSpace=wrap;strokeWidth=8;align=center;verticalAlign=top;fontFamily=Helvetica;fontSize=70;" parent="1" vertex="1">
          <mxGeometry x="4247" y="2778" width="1045" height="585" as="geometry" />
        </mxCell>
        <mxCell id="37-u8FB9lLhl7dkDFb6i-102" value="«External»&lt;br&gt;&lt;b&gt;Betting providers&lt;/b&gt;" style="html=1;whiteSpace=wrap;strokeColor=#23445d;strokeWidth=8;align=center;verticalAlign=top;fontFamily=Helvetica;fontSize=70;fillColor=#bac8d3;" parent="1" vertex="1">
          <mxGeometry x="6350" y="2939" width="1045" height="585" as="geometry" />
        </mxCell>
        <mxCell id="37-u8FB9lLhl7dkDFb6i-101" value="«External»&lt;br&gt;&lt;b&gt;Betting providers&lt;/b&gt;" style="html=1;whiteSpace=wrap;strokeColor=#23445d;strokeWidth=8;align=center;verticalAlign=top;fontFamily=Helvetica;fontSize=70;fillColor=#bac8d3;" parent="1" vertex="1">
          <mxGeometry x="6283" y="2871" width="1045" height="585" as="geometry" />
        </mxCell>
        <mxCell id="XqAon4pbSdZR6ryQRngl-1" value="" style="whiteSpace=wrap;html=1;aspect=fixed;" parent="1" vertex="1">
          <mxGeometry x="-413" y="854" width="435" height="435" as="geometry" />
        </mxCell>
        <mxCell id="XqAon4pbSdZR6ryQRngl-3" value="&lt;b&gt;&lt;u&gt;&lt;font style=&quot;font-size: 20px;&quot;&gt;Register&lt;/font&gt;&lt;/u&gt;&lt;/b&gt;" style="text;html=1;align=center;verticalAlign=middle;resizable=0;points=[];autosize=1;strokeColor=none;fillColor=none;" parent="1" vertex="1">
          <mxGeometry x="-253" y="862" width="98" height="36" as="geometry" />
        </mxCell>
        <mxCell id="XqAon4pbSdZR6ryQRngl-4" value="" style="shape=image;verticalLabelPosition=bottom;labelBackgroundColor=default;verticalAlign=top;aspect=fixed;imageAspect=0;image=data:image/png,iVBORw0KGgoAAAANSUhEUgAAAIMAAAKdCAIAAACPvE3zAAAgAElEQVR4Ae29fWxU1702Oo0UQBksEmopiiOOGE6LUa5SW7qBxDkKGonS9BZiePsGITWhkQ7hCOGj9CbYuYlzHJI0oCp/GEhDnaPTNAkBvSa3aQru5ZbCDfekrUCcJOdyGNFUsmwpuUBTu9a1TWzHzOy57P3MfuY3a+2PmfF8YS9kmTVrr4/fep7f11p7vHckbf7VBgKR2hDDSJE2TNSKEhgmDBO1gkCtyGFswjBRKwjUihzGJgwTtYJArchhbMIwUSsI1IocxiYME7WCQK3IYWzCMFErCNSKHMYm5gwTY6PjY6PjtbLcGpajSJsYGx3vf+rXF+9/7eL9r/U/9evJ/s/0NU72f9b/1K/549lG7zVna4phYrL/s4v3v3bp52cn+z+b7P9s9A8X+5/6tYIgaGADfDTGoaAkPxbOhGX1P/XrSz8/e+nnZ2ETYEJBuf+pX4/+4WKmzaIX0X70Dxfl3KYsESiYibHR8Yv3vwazuLjoxYuLXgToNsqWhaHhu5Q2l35+1jAhoVfKBTMBfEf/cBE02L8dYi79/CyHhpXYBuFQddGxCb9wwl5zvFAME/BORPni/a/BCAgl/BL4sD3Yohdt5pxmbGMKCgIFMwHvlLEJB2XYRDZoWxYcEYMEmVDmNh8lAkUygZQJ+k7nw6ANRySNxjO/knKYcsFMpNNphGh7P+GGAfgr7BjgqWSQQMorA4nBXUegGCbgfHQmkBohSMirl35+FuTp05saIlAkEwCXNnHx/tdAQDqdBk90XAgSJnEi4n6FYpjAhtkvkYX6K0yYxMmPANYXw0R2c+fGiYuLXpzs/wyRAOqvb8I5pSl4IlAMEwjasAymqjxZYlKb8V3OCZVNkrsD95TDVBbFhLtjwH4NiJOYjDW45oKzWHPOEaxqlmXNiAklGOCcXB43YatRrSDB/U0wCmW9ms/tGcv5VxQTzpZCQZxnGzmR3D3nKOtqlcERsXDjRLlUyY8U4+L9rwXMCxpSqVQpmcAOTu4kkN1mD0ICJCrFJektbZ8ZCEEpJvQeI38xSEMpmUDo1oVA2PAWudS1ijlWkwk3TEIhPP2kpCGZTBZmE3BBiAcK6NjrKS6rwuG6RpjIOelxTDOYiWQyOT09XQATxBr3RLGryKSqzh2IzM1toQ4wlErcwbastGXVCBO6GDoTNIhkMnnt2rWvvvoqXybU23DO8YbMndTzD4cP2E0+TOCwBK4s9O4egiEb4456Op32hICphC2t+xWISz8/q6Pj6SzHRsdzRnB0XJ546r10MaSo2P9KJqanp6empvJjwlE3D6xxf8IVjvbBArxTPqewOXHeGTCAP70xYNUhUFsKe0V+oeOYrYGRcY2yL8rO91pyGPU0Ta3j2Og4mYBBTE5OhjNBpfBggnP4ieuYTj65kx1gOJpT8ONP8Yq4kQ74VCZyB1TGx8f+p36dA6XLg+5pPbvblc4a3X5pDyepiUEa4JqmpqYmJiYCmbCsq5MTSMyzt+HEuDzq8JXSOY/KK4dxvjKSM47n3VZne680y1iPHieEqDldcus9yQgyptzu9sjOnfwMGXmIIZmAa7p69WogE84ODj4OJ6yKPqo3tHUR3Z2dp95l9cgp2Rqda1u6WSgCSIPwiBNSHjdIKFOAIWUiNfnBOIEjyHMED9PEutzfViplWVYqlULWNDk5mRcT0m+M/uEifnD3dPQPFzNWnIugVEDgmw8T6VCz8FK3bDjxugqFlfE5s/WVJDlKTQl1snFmw4ngrnVGM3TqYjjGjWMP/KZNIEhMTEyMj4+H20SWYccGbbN1tQM2AceF5MdTvnxvE+lrcExKmo4yfk4E8uqe4zc4kO7inCwc11WDUMKAO4hnIAGdWcRcY3I7Zf7XmRgbGwtngjYBN5XRd90InEQCFiPxQpzP/yxW9g11PjnDejGhuB2JiBIJSKouAD2BXpDWj7uTHk5SO3QpkolMNu1+e4z2rgghP2bih8NWoUyoCuXEfCDohx01Te3rGfNdNjwbe7omubTgMujUR3bnpKQ2F9zTTUxMhNsE7ABDw8lALzImrFuG4n9d/nKUV5FLfnSzNblgLE85R6ECZnvrNqEpo2xMW8/M5XpzxSakJKHlsjOBu0AIXJnM1dX3ULltFmWSlwXDt6TrFAXIYqGjXBAT6bQvE5oyZScNu+THBNMBrBneiZuJL7/8Mtwm4Jro/blnRgbC+gBZwYQiii8JrqQKwRn6BRCqkflsbpnwqDPqQduhVvdO/OMEnLYF/8YydY4VMXQmRkdHQyI2JAOa+A3Q6SuwLdKRIjdoqQIR9jnj/QT0HNAueAYA3Sac77F7KgHl57BQZ9yiZ6XvXI78GFn+xrJ0Ojk4GhTDBL/xZyup890AbPGIVDZ5RWqrYOf4pbz22Lnc6IuR6HhkRD42oWRffkjJqKP6Rh86M3rpJvQ5twj1jZF7Vj0jJuCgsnmLjNI4kVXQFx+RRCkakYu57yeSLTmAknr38bKJTF9Hh+BLM/shIaQ+ZnaxbCZG8Dt/kw5TpxOzYO9VpE1kHRTFYiGMiUJTWAmxn1l4GETaPnfL5+gtQwzlR0FJKCxL913eHcU4urZ50OlOVyQTOQ5KzA2Svcl3p8SSPD21BN27rAdVvwiB/gE2oYgtP3puoTGUtH7ZRSt7niH6adLFRS8WzwQclIe7CLSJmbgmG1sv3fQ2CD+bCIXSkwZXL/KyDMdr+ama54nIxftfK54JmIWnf/SshC0jpvlJ6a7X/3/H4dj0i6gYNBoV2W0Pp+wXGOSxoL8Q9heuMwIopiD//Dng642OVDkyzJCJ5PQUvzKT4zQdtdJ9Is/SAxYZfskhQ55ihnaRjTO0ObYl787iCNkeKgBBMdPY6DjOnrEoEBykE6IvAhjsmzLMyCZwsAU9UtXEsdAcW3b0BXJLqYopA6z8IMuOr/cqdITsWDMuOfqUocQZrDRMZPPoXGvNMUAntCK6zHgds3CA0jDhEbdBiRYewdksBHLGSyozE7kmgl1rEbvrGS/zBhhAZyL8BFAuCwFHD845AVzwgXCSb2STM832smTiq6++yuv+hMQkE5N5vgR3FPDbaakcQ8oB52x5pkxkgatiHpIV4gYugYlUKsVvFBTmnW7gpdeY6IaJWiFEZyL8Wza1IvvskoNMFPDNs9mFQK2sRmFiamoq/DuAtSL77JJDMnHt2rU8vqE8u9ZfU6shGQV8a7+mFjBrhCETCBV5/yXLrAGgZhYimYBZhHzLpmYkn4WCSDIK+4vHWQhGVZdEJvCHFMYmqsmGJMMwUU0mnBu4Nh3FP6OgyuLPrulhGcYmaoLVYp8qVBPCzzYhjE3UCqOGCcNErSBQK3IYm7hRmPivw9abq62X51svRMxPaRB4eb715ur0fx1WVCDQJk7sLM3chkUvBNIndkoy/Jn4r8OGhnIjIC3DlwnbKXkxaSpLicCbq2kW/kyY2FABRXx5fh5MVEAOM8ULWUvIlkgOCqW0QYO4PwKE3TBR5ezcMFFlAuhyDBOGCX+PSTWZUwVjE8YmjE3kImBswthErkbMqZDgudgibWLq/X+x3nrYeuvhqQ9/YRdeiGRqXohY3cvscvcyFKY+/IX90eAehkBRTHQvS41+kZyeSo1+kU6nU1cSVvcy+/fAb2xKPvxFavQLm4mB36RGv0hdSSSnp8CW4SMAgaKYeOvhdDptW4NDCZlgwabEuQSDMEwEEMBLxTAx9f6/2OA6/ic1+oVNyQsRWAAuTb3/L1Pv/0vasmATxjsR7oBCUUzQ/8A4nDAADlJXErAMUmIT5gSSACHMJau4s1hoOqJ01vM4rNheSxIz+oUdMxxndePB7Rj9Vz1xq3uZ/Tss5OY0QBdnBFsX8+hbjE0ga7JHZ5rklG2GEKvdSzYrbz2cpyj5iFu5Nk4OghVlNC8/QKGg2Y703mFkgImgb2PmtXhX7go5IkcDEI0yZIetM69VyEHeejg5PWWj4zyHAS4330EGfsOOmdRGjuxT5tfFZ3Z/4q2HbRfkGQ9ooSh4yiHbeDZQKl1PmNEjeD8OojT2/MjGPpqOOJcB1LKQoKtM6IM4NUju0TdlJW1dQUtPSVjpfFM86Fv76vTsGVroXmbvLZz9RDqdtvcfVxIZsdgXxuTEeUZ7OaPdfuA3OT+OQYAD/IYryEyBsOSpE5jU2Y1iP2RvhpwdjyqVsyuSU2TyQ4yArZKU2VEFLDZ1JcEHzWXIcFt6a6ozZuqFCP54ovRMTL3/LxnV4FNW3IJq6bRly7Ljv7M9BBmKYjIdsNDFdR1ZyPB4NwdfG1zy7Raw6wRAcDs2GVYyM6+wDxtQ8S87mkNDdgQnU8dZAypTVjKHCQyCpfnoR+qFSGpXJOX8C3rHo76e0Bp7M8F/LgGsgCZmw7izB7SvOjhmY/5bD2fN3OlMxczApIzMp+w5jTNuweXAno78SQrZCy7IJUMykc0PaStur+T0lE1SblAhx9mCoxzZJVMqp0AmQt7xGIq70iCryA4idEpZ+BwECSuSDadt5pd9ifSgTsIkL1lWykraRuacrNhtBT3S+KY+/EX2qmt8iolkYHXzwIw0AsTs0pxZ7PYQ1fHAOP7JxHlXElRmUvlcAoAbaEjuivB9IDOL2JxDwuRIY3sbKBovOcvI6j5WLrwBfHcWOPdoK0O5tBU4B3f8HLgdIDNepXuZAlBWDzgaLPJKwp5FticTbAmKqBxu3MbOI6twzvJtAQLDtWQi5B2PisoHf8z4Jdd4c+B2TkQyigatdF2BPSYN3F1nxllZSWWQrOuT2LmqkAMEDsfoUqCnliVtJWt8MC/sh5ibQWlwxOkcd9rSyZbuvBlYnAQEbTLr8IkNhJFMhD8tgn1CCkjghGqnXa2BsiieWjrfzMgM3SQD+pi7mCwTTrOsdjugKGYB0HPijWVl9NTR/SwTgNhhImcKhzmFYEU5ssjQ7p3R7DVKbVNoeyGSpWFXJPwJKtlptIF4CQ5XWXDaUXy525QuwoOJ3GWge8a9yKll4HUPV6QkVMlMCKG1uSFEimTLDAt2eAXEGTpdG8pu8ZyWHpJTPDmXYnxsIwpZJp6PhL/jkYv0K+RoENQ5j9/6epR4mDEpITcEyKinO4VKFXlyHUt2WCCLjo6HgZ/RmVCyLKlAmfsxmlSQLWeudFpm5J7oKUyEvOPRc4hspRPHktNT+HHxyaSkrNcLqoHLeCiUV7VuaTdevivrRhz9tbGgnrpM6MKwJsebuWLk7I0cQ1fpd4nJGpMDhF8zokcmpp+P4CmlQU+fYzfvAg69cSeVuzmXEFsU55LHb+lAc/GVmaiqVp5ZjQuECjpCQi4Ttgb4iYR6KYybm2WVHWkCDzo5tVMIsle5XreXzkTQszG9CXDHUq5mRXEk9lUKKRbzDddvSG+gOjHCyp0Eh5IIOkNlzI718Fc+INoLwVBiCtzsytQzoaC1aSDkLN+9rWmfWH/4CyWzAG5lZCInZrgnAfZK+INjHycvxOKz/gTwXUlY0lPlbib08TMnss7NK3sAByZwml18bvCw68kfCMBXI3B8lHtAYPsrIC4ZdUjV9UxhAkmHKozgD0xc2xWhdyqZTXzVE89kULBi50gHR3v2b+cGhq1oYEKeQOQm6VmHm7vmbJLqjo9TI6yWTNhZk9R9qrlDVeaqe7DI00AwlzM1EnEXuxw94I7PvWoTRrtxYxI9rU6b5WaxZWHCloYajYgHJXVzFUgG759dswNkxoMrCshL0GKp3e7IWTvAjF4YTX34CyUZzfQSgmXA4hTO1FnDgmAS61x7xdqzs+SSEcrE1NRUyDseM7YpmQ8tv/UwD8Opp8QLiGdjoKuniqwKTzZ5jCgu4uBV/rbjCs9XcuVUUqBsL5gXbIhTOFJlT6I4FH2Uw1Pm6IlXnf28SoYb9nUkpXcCE0HveNT751Xj5FS2Qg38ht7JGviNDbcTMxDEsr/1Q2zcmHNiXSbiSRQc+DL1rp9RA4AAKCMzbvcKkexbJvhunBs57MCTO6m6XieoBLVxY6HthLlkXZhc71Q2JuTEWKS7VHVhsmVwOSCFLWLwUkkVIHOYVBWxiQD5ir4kA6/uo4setnodb1QmclKX3KymeDurHg1K7lQR71TC1ToxJnu4W8KRqzHUjWoTN6jiB4htmKiVv14xTBgmquGLA5xD1S8ZmzA2YWwiFwFjE7VrEyU7Fa+6572xBJA2Ef6OxxtrbTeWtIaJ2vJOyXzv2Zmnz+WG2RKaHWzCZuKl+Xl4J/NExgow8cYD4d+ySZunlJafieR/vjM9PR3yzTP7LqF5cm95yIB3Sv32Kb5CLY93PJqnWZecjJfnp95cbZ0/hBdFhX9D2blzbn6VCwG+Kyr8W/vlEsGM6yBAJuigfP+myCBWVgQkE+Ydj2WFOnxwSYZ5x2M4XuVrQSbMOx7LB3K+I0syTJzIF7UytSMZhokyIVzAsCDDMFEAZOVrGvRUofLNakb2RMDYhCcsVag0TFQBdM8pDROesFSh0jBRBdA9pwxh4qtP/n20p/Nvzz78t44N5qc0CDz78GhP51ef/LvCRxATX/b9ojRzGxa9EPiyz3n2lEuILxNfffLvhoZyIyAtw5cJ2yl5MWkqS4jAaE+naxJpXyZMbCgh4r5DPWs/NB///JkwBlERBFwiAmyiInL4Ksucmd0wUStJuWHCMDFn3E6ejrdCNvHZE9/9W8cG+TtP+eZOszIy8dkT3+XP+R0Pnt/x4GdPfJcFXpo7WAevtCxMAGWAfn7Hg6cfXaP/8CoaB0s5F66WmAnJAdE/uGXjwS0bD6xbjR985FVpJXMBcb81lowJnQOiv2flnfoPWQElho/SMEEaACvVnwQcWLcapgB6WL9n5Z1oTD7mrLMqAROShoNbNkqUDz/TefbMubHRcTwal4XhkaGzZ84dfqZTNj64ZePpR9cgsCPL8jPkWVk/UyYkDQfWrSayx/ftu3T5StqygPjY6Pjxffv2rLwzcSGRuJA4/Exn4oL9FplLl69IPg6sWz1nyZgREwoNT8bufDJme5vEhcSly1eO79s3Njp+cMvGJ2N3njx1+vAznbJwfN8+UDI8MpS4kDiwbvWTMTuczFkyZsoEklTg+GTszoNbNo6NjqctC7gffqaTBVBy3Va2tTSDEvQ6eep02rKGR4bQAFzSMmalI/JcVPFMYJt2+tE1B7ds3LDk1idjdx5+phNeqO/osf7BgW0tzYjGT8bu3NbSDALwG3Bva2k+uGUjOIABSUYDyJBRRJY9V+hXKTv6lf36lqO+SCakX4JT2tbSPDY6funylQ1Lbt2w5FYEaqB8+JlOmMKGJbce3LLx+L59B7ds3NbSPDwylJyeOr5v34Ylt7I7CdOZwKT8zdgucQzFiN25BNZwQBYKGjl06uAGYCLo25ie/WkQB9athkEgFPcPDiQuJA5u2Wg/vRbPOHZnGBsdhyMi+WiAWIJsKnEhcfbMOXCpBAyelHBLCKry34gQer9tvz4yungiUPJK51HB9neUC7tnRyaA2uFnOmkNzIuS01OHn+ls29GWIcB9+PTY6Hjf0WM9PT3DI0MgI3Eh0bajjZYBd7dhya00C07HnYosHNyyEVocjA65ZF/uPT0LcvbgkUtyNfxb+/o0EhcwcenylbHR8cPPdOLjhiW3tu1o6x8caNvR1tPTs62lue/oMVhJ/+DA5k2bdu/e09PT07ajbWx0vKO9A722tTSfPHV6bHQ8cSGBGmkW53c8CPvjFCw8GbtT8Sd0OHQvNAjmBXtW2pme52/k4nJ2OWA+ZRw86y11MFEz3LEh/B2Pemcysa2lGaCPjY4f6e2Fb9m8aRO1e2x0/OyZc0d6e9e1tnIDcfbMuY72jo72jiO9vcMjQxhk9+49iQuJvqPHdu/eMzY6zkGkCwITHe0dly5fwQ/ygj0r75T6y7NF0MPfcEowuOP79l2f+tLlK/2DAydPnUaoS1xI9A8OXB/z0uUr2KJy5y8HkeP7lQERrZDNwI0C6XDHhuGODeHveFS6ge3zOx7EklpuWdh39Fjf0WMttyxsuWVhc2N92442ZErwQttamtEmEzYsq6O9o+WWhdtams+eOZecntq8aRPaY4SWWxaCPHzUmdi2dWvf0WNpy+ofHDjS29vcWP9kLMMEFgz4sGOXrh9pHuiEC8VW5vi+fWDi+L59oOHsmXPYpSqHlcpoRXyk7UpUbSbabSZC3vEo+9Do4CsAFvZx8EJEE7kQXoVxpLe3p6cHTCSnp4709p49c+7S5SvDI0PX0y1QRRb7jh5D9MZQiAGA+MC61ajc1tKctqwjvb0ttyxEvkBQDqxbDSOD79qz0t7i4GfPSjuZRvsNS249sG41mEANUm1YCV0W3RRG4CECCog3PDpjYx6ysQHaeB7nwCCG2zeEv+NRYYI2AVyaG+sB3MlTp8+eOXf2zLnu7r0A90hvL+1AFpLTU8MjQ8MjQ7Zv2boVZtR39Bi6o3Dp8hWATmfNLSRcH5nAasHEnpV3wto62juQLIAPctO2ow2bTdRAIdp2tMEmDj/TOTwy1Hf0GHhCS27+QQ8yckR4NgDQx/ftQ4IuuTmwbjXqSR60iqjCIIbaW8P/Mp59WAAogDsej4+Njjfd3RSrnxern9dyy8LY0lhzYz1w7OnpwakfmSANwyND8XgcpoD2GCFWPy8ejw+PDKFSYQIuUdqETIRabll43dchfcBvBv9tLc2JCwnseLClb9vRhn0l8+b+wYHrR2HbWpqP79tHObHjAVXYJGFFOErAaQIohJWnLevkqdOwD4yD2DM8MoSTN4Y04Ekmwp8WQQJYABObN21quWUhmDjS27t7957du/d0tHcgToCS2NLY5k2beAQLCGAQ3d17wVxzY/3mTZs62jt2797T3b23p6en7+ixsdHx5sb6WP28bS3NFJ37eU8moBmI5OAYsR1OLHEh0d29t+/oMYQZWAPoQdZwYN1qnFceWLc6OT0Fy8CpzPDIEFQbrEDlz545x0MdpHzQegQ/lOHrmA6cPXMO3hLR4m9OoB7u2DDU3vrX9tbwJ6iQABQQ/U8/umZbS3Osfl7T3U1jo+NwUN3de9t2tMXjcYAIHb/urK6js23r1nWtrR3tHfF4vOnuJqRJNILmxvp4PL5t69bdu/dcBwvqHFsai9XPC7UJ+J8nY3fCayWnp86eOQe12L17T//gwHXQt7U0A1zsY/qOHkNsg3vBCQ18aduONqQDx/ftw1XELUR4RDWp77wLQNM8vm9f2rJQD74TFxLSa8ndD4IEmAh/x6PChIwTNpRLY5cuX1nX2hqJROqiUXCzraWZZCB57enpAe7xePzsmXPIIFmzraUZ/q0uGo1EItu2bu0fHMBVhQlkPtImQAAMcfOmTQg/CDnY9tt24ER4pLxI5Np2tAFrHLrATOHKwAT68vfBLRv7BweGR4awBdmz8k7kwUAcXghJPO4FkCEcOcNx6d6JrumvO1vDn7SlM8FMBmAh6cT+ABE7Ho/jUmxpjBvpvqPHmu5uwnokEwgM3d17z545h/0EgnZdNFoXjSq504YltyImM2K33LKwbUdb2kmOkT4kLiRiS2MIVPi9YcmtY6PjbTvakGshgb50+Qp4BfRwNRuW3Hr4mU6ehnHzuGHJrTgpwNEyvRZCN7ZNDPs4v9mz8k7cm+Gdgv7BAXi2HO/U7ninna3hT5/TmcCG5eCWjbGlsbpotLt7L+757N69BzXXDWXb1q1wL/Cnyekp+Ci4MqQoddFoc2M9Wtr2tDTW3b0XYbOjvQMWpuwnWm5Z2NHegTbIQeFnktNT2KbgEOXS5StHenuP9PZiS99yy8Ldu/dAY9p2tCGqIxJsWHLr5k2bEMCQzoInDH6kt/fkqdPXp8CO59LlK8npKew5cHxJJoZHhpBWIT7j1suly1dQOPxMJ07k/Jj4wmUi6Mm9fkycfnRNc2N9XTSKoA0HFauft3v3niO9vaSko70DNHS0d6xrbV3X2orIDJ7qotGmu5v6jh7raO+I1c+LRCLrWluRjNVFowzXtEIwQachCzi5YgNES7gmWFLbjjY67u7uvUxwuZdE8gp3x10evDz0HWkV7noxHuB2AOg5eeo03BGOQQ9u2YgZL12+cvLUaYRxJiCZiO3YRPFMfPbEd08/uubAutUR5x8dy6XLV3p6eqDONBHkRUwugXskEoktjUH366LRI729ly5fgeb2HT0G13Rg3WpwACuEM5FuRykre3W6JoCrN8Z+DdEebbApYw29E/Z9QBOVOEkDuOBJ+Y3Arvyms4V+M04UyQSD9ulH18Tq59VFo1DksdHx3bv3gIa+o8fWtbYC0O7uvQiJ+D02Or6utbXp7iZYAIJ5XTTa0d6BfDcej4Mnqg+YAPdc27aWZpRZAI5IY8AKapD+wpPg/pU8C0F0RWrAvToac48GX5+cnsKxMe5r9Q8OoF7OyySK23LUcIPNIFECm5BMbGtphln09PQgVMbjcduxbt0KoJEUIV8CE0d6e5EgwaF1tHckLiTsZk4atnv3HgzIrAnnqfI0DXhhW8NAIgsEFJX8LTvC2vx+yxFwfItgzowDyTFuGJNXiETBOAjrJQ0KE+HveNTjBGqop82N9bYK189DGtc/ONB39BiUGqCjDHOGy0LKe/bMOYQT7CGwyUAi29xYD/h4rA36ec6MJcnfvATB8BENPC+FVpJ7mBRdFqwN4V3RdF0evUbiKb1T+Lu7ZE9ZxkogJeCLLY1B9+PxeF00amuNYxnMo6Dv8Xgc1oB9XCQSicfjacuyTcoJ2rH6edz+SCaoAZ4Fmg6vyho5jixzRUol+0o+EBXgEunNFLLl7HIQTiQLpWHC00eBDGj38MgQkLV134EYsSG2NAajwf4cuWbf0WOxpTFPvyRFr0qZ5iXdDt0arhYnWMmYUMiAZdRFo7t378HebdvWrUj/sdHLeK36efZRz9at27ZuRbOO9g5wUBeNyts+xS2vHL3oyoK9TaFTl+lmwYUAACAASURBVJIJScaBdatBRiQSabq7CZussdHxsdHx7u693d17k9NT2Ewkp6ewxbMTJ9cU6qJRJUoXurBytw/1NoUKUHomGL0PbtmIAH7zwgUI49u2bsXx6tkz5xDScQy3betW0nbzwgXNjfWMforLLnR5N1D7EjOBlSuRDXzA5yBTwt7iuu8CSXRHzY31NAXY/g0E5QxFLQsTzDIZ1nAjE4eyVH8e2donTs6XBLkPmEnomyEi1epeLiZIhrQPpLncecoNp8LB3HFKJL6MTGAOmWkw29MLbEbJ5lqh7ExIQAm3Z0G2nIPlijIxB/HNf8mGiVp5QoTORGF3ivLn3LQMRkAyEf4WteCxzNWZIGCYqEXvlIdNmCeTlu2xO1mb+N/+ezgT5omMM/E/wX3JxMiBZ8K/ZWOeUhqM5kyukomJ//gg/Jtn6XTaPLl3JnAH9LWZ6NgwfuwNflE8/B2P5mnWAYAWeenZh/+/ns6pj/9v847H7B/BVrHEP3QM/9Z+FaWcC1OTCToo378CngtwVHGNkgnzjscqEmFPLckw73isJhlkwrzjsZo0YG5JhokTVeaDZBgmqswEA4ZhovpMgAzDRE0wkU77v3+iVgScM3IYm6gVqg0TholaQaBW5DA2YZioFQRqRQ5jE4aJWkGgVuQwNmGYqBUEakUOYxOGiVpBoFbkMDZhmKgVBGpFDmMTholaQaBW5DA2YZioFQRqRQ5jE4aJciNgWSkrqUxi17jviElZSb2B0r5UHzGXnD2dTisCzF6bcJjIYO2gj5Unp6euTk58PpL4aLCvwj941qxkRarCbGYCGp1RPZeMjwb73jn+9E8+WI+fzveaf/LB+sr8/skH6985/vTnIwm8hDRjna7dzVomqG70CcMjQycTrwL3zveaq/Xzkw/WfzTYl5yeygg2y5kQQYJOSdJQXT5AxtxgwomHjIopK/nRYN/Ow7YXqpGfn3ywfnhkiIY7+795Bo+cnJ565/jTNcIBxYCPgnMKerOg677sv7iAHcnQl73qlpgSsGBHJPxz0xhekrqAwCVNVZ+ONTlRzs1H9RHsad2rKSv5+UiCBrH1tRXAgoWdh9frP8RLFvRmrEEzfvQsdL7XzEm3vrbineNP2y/7c/+kJY+I7WYdxNFepPYvZSUZhbIt3WYSSlx1r2Qgsxvwn2BOAprpyNlzBcu0FINQzo8G+wCB5++TiVc/H0koP0ixyNnW11bAuSvN8PFk4tXO95p3HrZDsWcDJM20S4gBB1XAt/ZTVvLq5ASeyosXzFydnOB6WUhZSb7+4eyZczlwO8jijTV4h4TEPWUl8fBMDnt1cgJvV+FvvG1CZyJIMNcm0pb10WAf9HHrayvkDyo/H7Ffnj48MkQQbUks6+rkBLADcFBhKBydHnYn13PTra+t2HnYdv24BM2DO4GCDo8M7Ty8HrNj3p2H1w/97a/h73jkss+eObfq3vvksxVX3XsfXn5Dx4VC2442PPpy1b33YTEZnizr+utOVt17Hx7+jsa0ErzsIBKJcEw86ZcP2ERheWPjkd5eSoXXPPkJRiAwF2zC0yAAX8pKvnP8aSL1zvGnr05OIM6TuZOJV5PTU5+PJLgXYQGuDw7nneNPv3P8acSA4ZEhfMRvCoAxwUT4Ox5h7Ed6e8HB8sbGzZs24Y0GkUhkeWPjpctXgAt+nz1zjmw1LGmA7tNiLl2+0rCkAU/IBEno1T84IOtR2dW1KxKJNCxp2LxpEyZFG7CFNmSrYUkD3jRCOekksQQFUCKLAjQ9OT31kw8yCgvtxv6LFMLzJKenWKOMo3z8aLAP8Umplx87f9k89Le/hr/jEd4GEKxrbcUbkVJW8s233oaSUkNhsHh6+/LGRnTJKDiosKyzZ85Rx/G6LNkrEomsuvc+2gqGatvRBtBTVpK4v/nW2xBseWMjekEhktNTFAy+MRM2nKASAN87x5+G+5UYwSaQcbEe3MARsdKzcN22Ph9JBGuAzfch2zuFv+MxbVnd3XsBX//gAO29f3AAcBPQlJXkaw7gyiKRSOZNjy4ThCkSiWzetAkQc/xIJELcL12+ApTffOttKjWJBBOYDs/1p5dLXEhAWr4Kit3BxIaXGra+tkL+3vraCijv1cmJjwb7TiZePZl49aPBPrh7yd/Ow+vpr6TDgU+TY254qQGNSaRyFeTZlT9d8dfhL8L/Mj5lJaGbq+69jzRAkfEaPzqZq5MTiAGAePOmTZFIpKtrlw2E8y9lJRFCVt17X8OShoYlDZcuX4E3W97YCK9C3BMXEnjscuKCrVaYkREITg8flzc2Ah00I1t4WZU9s5MpSJcCULJYvLYCysuJGG+vB3BJmwzXEAm/0YwtUaDHY+CRM7Lxs79s/uvwF+FPi6BudnXtIhN0ICykrCRUuy4ahUeCl8ebscBE2rJAVXf3XrD75ltvg4M333pb4o6XpCGcbN606bqhdHXtQl9pNzCazBQO3NKCQQ+YgJwfDfZteKlB/2G2czLxKjUdkTk5PXUy8Sq7nEy8Cr8Pu+FvOCs2QwGNr5/4AnTlaubjiw3/+NMVXwz9Jfwdj9DNrJ8RyTutHm9RQ2Cge4HrgN9Hy6uTE1D8vqPH4Kbwsbt7Lxoj/gM1EMmgwkLbjjZAfHVyApV4jRu9E2xxeWNjRm+gBQ5PZIL6CDigvFcnJ3YeXi/xQuxhrw0vNcCJSW5ke8X/IHFid/KRM/uLDU8dWvfF0F/C3/FIX0wvARPmKw0VvwH97eraBUTqolG8LR7pJrCDW0N586ZN15EF7utaW2l2sIBV99735ltv4wcv0UFGlLKS9EIyUF2dnICh4HWDdIzBNgEmrm8jCBYwRXoioUTkeOf40woB+sfrjggeL4A2u5drE+FP2qLyIlyTBqgzEifaDTVXFpjIwn1BW1NWcvOmTavuvQ9X4azoAFNWEuOjhvpOZ5i2LOZRfUePQSqZMmTDtWsT6XSamCrAKcqLqwwJxJ0RWDEdZTR8ZGxnd89mZCL86XNccFfXrkuXr2DfC71b3tiIyAYcG5Y04I0f/A0+CAqshCkT8U1OT9FrwY/1Dw6wL62EzhA1bIN3NjL4Y9uY2VEieLhBm0ys+ueoxAWvBL06OYE3NOI1gTA+dtnwUgMy3ZSVxEvI8DZT7MkJN0eW4Rpz8VJOwbGJv/z1L+FPZGRGhH0ck5yGJQ1I2ElVd/deGyP3X8pKgjDUc3etNyOm8Mtpy2Kyyxp31Oz/TOqw+5OC2SkD/4nMDbDmAOFktDycUE4vrp9EwV+hC8GVzfAmbTAhRz6ZeBV3Z4NocL3T4F/PhzOBDdTmTZsaljQgvVne2Hj93bvACInp8sbGda2tmT2tC8F1j9HVtWt5YyOgxyuDV917X2bD5TaDn8EIdD5vvvX2qnvvo/Vk3T17OTceEGDAQV00CsHoDDNtHbOAGX002Lfqn6PASxb0E1MSwMYAFGmo/hujsTEKHGTDSw3KpezHtug/vrriL3+9khcTiMl4k2j/4EAmO3RXiMMvBlJihV5XJyd4ieUcZJ1xeIkeXylwWBbQAGkbvAqVQ47PZul0+vORBECRNBBEpaDAp1zVP3JkpSPr0UX5uKot+tQ766YmroYzwZXbBVg6TjdzLuTxwfUSEibvbmzpfdmn1q8XQoUjc3J6aufh9TqIFahRCXBM07aMFxtO/Nf+r6anwt/x6LPuG6daMIEjoKJx90Oz6AFX/XP0H3+6YvTqOJkYHR3N407RjQN+jqSurcBb4hRoJtiVsO+Glxr+Y+DY9LWvrk3bRvHll1/OCSZsr+iwgjs/JQS06KH+Y+DYta8mk9euzQ0mcgzE/oAYji95lMPh5EMMvnlm05C6Nn3tq7nhnbyYQDrHb2Me+viEfRh+6vRHg33lLvOw3faWqWv2z7Vrc5eJbGrrRhFuZVjAFgQtS1l2jTJtWWBi7tpExkjc/VA2NUeajnCSz2/ZXpa9+pJRWbBSKXinOR0nsmahua9yVMCqcvZSrk3M3YgN/5MDt6PFdEGZBu5GZOb1OQTQetyvmuEO9hzIYnMgD/yAmFGO3z7T4ttmhgkfeCpYbZioINiBUxkmAuGp4EWdiaB3PFZQsDk3lWSiwFPxOYdVeRdsmCgvvvmPDiZSqRS+djYxMWG8U/7olbKlYaKUaM5kLJ2J8fHx2XunaCZQlbkvmcDXkycnJ8PfLFhmkebo8AoTU1NThonqqIJkIvwbytWRcc7MSjLCv7U/ZzCpzkLJRPhfslRHwDkzq2TCvOOxyrRLMsw7HqtJBpkw73isJg2YW5JhdnZV5oNkGCaqzIRze9umwzBRfSZAhmGiJpiY/U/aqhWY85DD2EQeIFWkiWGiIjDnMYlhIg+QKtIkhIl3jxz57ne+U794Mf781PyeOQL1ixd/9zvfeffIEYXfICY6n3125hObEfwQ6Hz2WUmGLxPvHjniN4SpLxUC0jJ8mfjud75TqvnMOH4IfPc736FZ+DJhYoMffCWsr1+8OJyJEs5nhgpAwDARDUCnkpcME4aJaK1AUEnFD5ircjZx88IFAXLwKguysWelbDALypVjYiZgGSZsnkqFoCeaNy9c8LUV86Nr7rhp81r8/tqK+ZjRs/1MhKnxvhWyiZsXLpDIgoCbNq9d1Ne5+NP9i4dfXzD6M/wsHn697uXN0TV3KF1qHMeZi1deJhbdVk8RWba1/uXNIOCmsVflz4LRn9009uqC0Z8t/nT/TZvXsm9dNMrusnI2lcvLRF00SlOAHYCDLOLDry/+dP/tH75U9/Jm/Nz+4Uu4uvjT/dE1d8wmrIPXUnYmMP3NCxd8fftDtqY7RgCtr3t5802b135txXywBa3/2or5t3/4Eprd/uFLJFJZxuwzkZIxoUPGmuiaOxb1dULTbxp7dfGn++te3szILCHOdHl5M5hY/Ol+2awg9Dm7HJ/ljIE6e5rglrKLZ0sZzzwbcITgQsmY8JxGmoJtB8OvL+rrRDTW22MZNy9csKivM8PE8OtKtNB7yRBSEBCL+jr9FMJzFulpWcYCsSi/XnnWl5gJqSBfWzGfpoAI/LUV8/kjUSMHddHo11bMXzz8Opi4aexVGy8RbPJcld4Mgknx6l7evGD0Z3Uvb5aSyI5KvZ9F3rR57WIn2knzlePkWS49E1DS6Jo7GBUWD7/+9e0PwSHYKZPz4wmBvXjXNSGJ+vr2h/yYkNAoqAFx7lTqXt68qK/z9g9fQmrw9e0P4RIkCUVQGVxBFoFt8fDrM8wvSszEotvqMx7J1evFn+7PoilQ9ozGtn65UR0RBTBJLCQBCkk3L1wQXXOHPZ2bJWOPQgtDAfnC17c/FF1zRyh8nO7r2x9CF4UJ2PFNm9dCSCmq3jKgpsRM2HK8vJk7tds/fIlRwXY7LspwC1IsgMgGgIx247k8VCL1sgF9efPtH76EbQqzA3KAKGW7EecHZITSQAntxM/paKfaYd7SwxPmcdwJJoK+F0tpWPDEJSOf43xtdXa2ymx588IFN21eS4CUpKguGlWsAQYRihTtD9wruPMjFQIeEnaDFI6LCihQh2z5c/ebCivcM93+4Ut23uEaSsDgvBT+DWU2DS7YVuxYA0DUhWBGdNPYq9AsDAiSFGuwg7a2DPKK9TMYZK3BDUJf3/4Qp8NQEjJ2BNMwRyVa0CnVRaNf3/4QdGjx8OtKMwUTxAzl5EaKrbSXH8O/tS9b+5XtyRxrgNUTRApBtUIchmZRg2SyhAb0S54zIh1gBOYhFd2CzBcW9XVCDAqjjukoEIxYB/rmhQvy2WmCaeaKNEfFN6hTC68V/o7HgM68BDcKp0SUeRU+RHdNN21ey7MNir5g9GfEjiPQCBAeCY3nIRXVQmEdo4EtjixVhOcrso1Nqpt9SP1QeJWTci0o0Cg5qWch/B2Pnt1kJWVltiqv6tjd/uFL8B5cIUVHYk6TUsbx0ztsOwjNzQsX0Nct/nS/rEdOhVwW9dgNZCBzGksagK8OKE5uMA7MSIlz2DaiY/CuhWsMf8cjm3oWuCUOmI8WQ8Q9k0tb08UxlD4dcMnalpMUSBDRhW5dEYkagzwKfDOc0IDInKJDzDLAtDzDlx4sm2uIlN3TypUFhr/jUemgfKR1U1ClAaQkfJIMllHAbQnpqSUomfzKdRQZT+KmatiKw2jguxaM/gwpU1YeFxoEs8zmzh0QMtz+4UtSAJInzS7HjJzMgtznBDlXNp4UZCUR4YGV4X8Zz6aeBdqEH+1SbgV65SNUFcml7qCk3sHz2krg4Lhg9GfYw0u2sOkll9QYBSxFBgRYrBQmyAbZnYTL6E1jr4I5OkPQDy6ltVFRPDFEZfjTIjw7c4VcvC2Nk3dKP4ujp4zh594U4go9CzgrxJIwF7cj9DlMVGiOVAu4CHRkd4Yl2JPkZvGn+wmcjNuEmIcZspdt6JvXSoOAijCecWl5MjE1NTUxMeH7bUydCYk1ZsVOAutBgmGDiE1vrvlTuNCCTKJsNF1NzODu7l1ITGaXrllJRlrXV7C9RBCOUVoYgoQkT2cUBiETOfhDO3t0jlu4Rrl/0vFETfg7Hj17Qixewu4MN6Uxq1wnBWJB7n2wHc0cVHy6X0YUXROBI7eQ9PhKdIW/kuIRLxCp+DrsSJQ2cglZ30uFcCKEDCRYHU965GLzZCLkSVtcDws45uNHsoKdWuajq4MUCD4KeWrdy5u/vv0hfJ8DOstzCJkOwvzlSQkMRaoqXKLslc1e3MAo81pgGl1zBymH6+DBCQMJ/RXNSPF+sHuOg5Ui2hVhE3hKadDT54i4LBA+pRIfpcRkQt4mUvybMgiVMRuKXU1kyGFqJBHMzuXe7INayNie2Z25ikKyM+5InFFyNLaRlrSor1PGDNAv7wczxmTs2FULuVhZDn9erGzNsjyWYSWNg2Gci5GbvgAaFCeD5THsI1eBH8PtNmglHAJ9C1U4E8OiUfoQz1iNvCBz709QDuHhSHlCBXwRmWVaSLaAhrTCrD4FklEkE0Tfr8DFA039CFPpCGrlbT6ofyY9dVSYS+JJOA5LYB84+LKn027aIO8iQ7Zsru7LA4w6hzPF20B+hQncXJF6wPzNkwk9KVeWXxeNloYJJXLAJrAkqKE0FwihWBUyH+UYisuD9pEJGxc3OYFfRrqSmXH4dTndotvqoRawS5ytItIoew4YK20ra9Cur6OXI3/wjTi/keDaNuEmjTAXedWzXBom6Aeyc7iOGKkeodFdEziw8y5X9Exsd74CAmXkaTPud8rDkqzfc2eUZ02QBw4dLsWucVsq9w0hG6MUmWAznheQCSycq+PyyRlslA6QDfRC+Dse9T6yRlFtSkbzp17LXiiDA2i39Ak0Jho1LUZnC37PFsPF13NGGE0GMicY0FlRGBSUOIy7KcQa5hiALFpKm9A1Q4eiLhoNfyeLZzedAPltFwYJZbUcKsuBsAPqIPNIrh8d5a5lUV8nvhjAS9RleWLBGXMKDmcZE9G+22FPmhu3pQXkjOMfgZUsS1mI5yBFMuE5FiqVlSibGommtAPSgM0az5H0iXJ2LQIL6DLTeSzeEwJwZlutsxlW2iy6rT4Tip2vTmd9mphLkYp6mVNw+GZsU7roH8vCBPdEWAaww7L97viDCRz/ITbosvrVEEq4DsVW9F4wWdzyU+ZiGEPB78sfRFwfnDXYbHq6SraRhWKY0OWQNYqfxXeNFuceY9ACWMC+j4FBiuhZljN6NmDE0q8yV84fJn0Q1HiKQXMEkVQUv0FQXwwTHNFTDoUJYq0XMjdbnBzJjwMqKSf1K6ClXLaneOgO/6MYBC6hlxzHb0bPer17nkMVwETAwqRMZAJHs3BHPBcj+rj1eFPoTTp/7yyBk/mCR0odNgi6+0EmtcEPBL2eo7EgUdLLBTChd1ZqstI4uQfScAQJfjEyuuYO7JDl8pRx8FEuQJY9G8vKrBj+BOgGJEdAmeOEihrQV7/kV1NKJjgHtsS85VKQkhYEOmcstECUQzuiZf7tQwf0a1AwE/nIhFSV38PUwc1nED+Ji673m5T1LARPwWYsoL3yUTpM/ZI+RcFMcAiOLgtFGDIH9BRdDi5b5l/mCGXtwsGLmA59i2eCcwcUdGvQGxctuj4Ua4LHDL7KQfIslGq08jKBxczQUDwR8Vy/Z6Vnd1YGd+FVvcARSlUAE0FvUcNMFCV4YjSTpqB05EcWggeUVz27eFayV/BVNiuiEDAyL7GQz/gFn4rnM7pkIh8h2MZzcM9KdimoIIeSZQ7iWcmrZS0UzIQujS59PjVynELby74s64PkcwltAvpykNBCwCABlzhsOBN+T5/LZ3ROU/JC6OyhDUouUp4DegpWv3hxOBP5P5FRn0OvyVNcNlNGUD7KxNevC+tR0EfwaxDa0nN2ZbQ8Pz64di2YCPqWTZmeUsp1spCn0KVqxnlZyH9kpYt+C48N9IKchVd7/8f/mJ6eDvnmWTqdrsyTeymWlBXlgEt6Y1nDjizIq/mU2ZEFvZe8JMt6S8+aZ595hl8UD3/Ho3maNUHULYCXCirgadZHenvxNyzmHY/8O+jqFPiHjuHf2q+OgHNmVjJBB+X7rf05g0l1FiqZMO94rA4HnFWSYd7xSFiqUCAT5h2PVUBfmVKSYeKEAk6lP5IMw0SlodfnAxmGCR2ZKtQEPVWoCuLM7SmNTdQK/4YJw0StIFArchibuEGYOPyfv13d80/zO/8h8vRK81MSBOZ3/sPqnn86/J+/VVQgyCZ2/mZfSeY2g3gisPM3+yQZvkwc/s/fevY3lSVEQFqGLxOre/6phFOaoTwRWN3zTzQLXyZMbPDErrSV8zv/IZyJ0k5Z1tEe793TPzjweO+ess5SpsFnDxPLXlmfspIpK/nHPyfKBFZZh509TESeXtk/OJCykv2DA2WFrEyDzyomHu/dY5io8nZv2Svrl72y/tDHJ8DE4717lr2yvkzKW6ZhZ4NNLHtlPfwS4gSjxY1FxmxgAk4JBCSnp8jHjRUwZhsTpIGFUlnGoY9PlMkvYdjZwATCg7QG5LJwWTPcXix7ZT22KYc+PjHDoYKJnD1MwAiuTk6gAHpSVjJ4/flcBQelsi2/GWcbE3RKKMwEPuRjMxnBD3TP+tnMRNHOREnGyh0hQMysYoKuCXGiOCZkJgbDSk5PVYCM2cCEjh1Dhacf8KuEI1L8Gz8Wx6vfXHr97GQiOT1VKHDcnxP6P/45wTISs7LGjNnABNOklJWkgyqICX2Lzu7yUll91A3JxOO9e4hU5OmVkglqcT76i+wo8vRKnqinrKQSFeSllJXMZ1jd8+RTAyaCvo2ZzyiVbENoCEqhTOCssH9w4I9/TvQPDvQPDhz6+IQcRLnDIS+VzyzC3/FYSZSD50JyyfjMYyUFx+CDcSVDpQ0pW3Rpc+QejakBwdIWejX8W/uFjlim9iSA2MFX0FPJBn5gKZjKoZRygFmUZN+uoxT+jke9T1VqZCYDrQfc8lYE3YifD2GDlJXEGQbOlEBDgFlEnl5JAfoHB/yYngky4e94nMnoM+kLbw7PA8WXakvvIUGXKg/vLwWQV9ldcVaEG3NJxOkb5ZglK3esDH/HY8kmK+RrnNLVJKenkM9Qo5ne4KCUEgJrNpMkRZ5eyTHpedgSuIOeiqWtFNsudKwMf8djTodC0Cy6IyGTRgD0ZY1CA5NR5KYKoLy3yturcqhDH59gLyRUvErrKXo54R07MkzgRWq+3zwLH6jU9CiqSlAUMnR/rdgEO6IgPQ9DAjiQFoP4wS6VYuKe8KdFVIAJmeAf+vgE1RnhQSIoryLqSvEUp68woXz8458TRFkJIZBH5gJyltKXbZuwmQh5x2PpJ861IYkCwVIOjmS9YjEIqvBUylCA0o8eRhGlQbnX6zG+w0T4Ox49euZCOcMGRFkpUGGl60AbSQbcC+plgGHaI/NUZQr9o5x0huvKt7sTJCLt94Q/aSvfEQukh99hJRzSCzE74uy8ymiB4wrpr+j9sf1WOIA7kmxxahRoJZy0EgWXifCnz5VDGio1sYMnUWCSGiov/fHPCewzGFEUTNGAleCA0ejx3j0UAG1kzCjHeoPGdFxTpP2e8CcyBo1SoB1wKAmrov7yEhN/dAR8+oEdEVfwRT00XQYDEMzb1PRjFK+iheoyIQ8PlBRIQpayktIsoNSEmwUgru/D//jnBFEmwbKyooj7aW3VmSA0wJGQKfEZZkH9JfqwJHonfPTLneRc1QkGfjQ4u+tIxz1V807S20gfQiVlfIbFEHHcyUEXXGIZR7OkCvXKhrmst3oofGEF1ybCn/Be2LgB5GuXFBWWZqFcknDLMvMoVELfFTJkezlF+dZV2Mi5TIyOjlbntEOixjs/WIm8RDSlrRB9aTGIK0r+ii/d1CINwjuFv3+iMIY1xQ/tTnCVfbViFvKUSZKkJ6ycERvvyh1aFL52W9QasQklPit+XCq7otGSDLm5U9ItslK7hdphQvlyBtNWaROK41L4gzHRg5Xp7ma5uKwpJgA6D6ixZsmEssVTmEAYgJXceH8FXFNM4CaPrnTSO9FW0Ex6J4bumtsr5BM5ao0JnQZF8Xl2hJ229EUsew5S65U3BBPKyQcRRwGbCRqHknrVOgE0lxuCCcUsFCb4fSfWKx7sxiDjRmECZMiAAdx5js0zJWMTlfibeOzRcE9C/tWb4r5uDCOgX0LhBrIJBV/e7qc14FjwhnRN2h476B2PChDV/Uj08XU0RogbMn/NtYnq3LMrgk7FEZGDGzU80Ee53umGYcIzdCvb8iIIrn6X/JmotafP8f6dciZYfUyp5gUVHCbmP3N/uE2YJzKWl2ObiZUPHNgGJoLe8WieUloBJt756Hj4N8/S6bR5cm9ZyXiqby9foRb+jkfzNOuSk4GnWR/65P8073jkX0BXs8A/dAz/1n41xZwDc5MJOijf73bMATSquUTJhHnHYzWZ4B/Eh//FY5XFnAPT0yzMOx6rz7Ykw8SJKvNBEyMnKwAAGxJJREFUMgwTVWaCAcMwUX0mQIZhoiaYSKfThgnDRK0gUCtyGJswTNQKArUiR4hN/PL8Bw/921N37vpe/XNrzU9JELhz1/ce+renfnn+A0UFgph4/vi/lmRuM4gnAs8f/1dJhi8Tvzz/gWd/U1lCBKRl+DLx0L89VcIpzVCeCDz0b0/RLHyZMLHBE7vSVt6563vhTJR2SjOaHwKGiVpJBQ0ThgmzL8lFwNjEDWgT3/7pE1cnJ+TP8MiQEn8OfXxCNrg6OfHjE2+zzeO9e5SrVycnhkeGVj2/hW30WQ59fIJXVz2/RRnhj39O8Gr9c2uHR4aUBvrH4ZGhQx+f+PZPn5AdUf7xibfZnkP5FYZHhjiI59Iw1PDIkN8Pu9c/t7YAm/j2T59g65SVTKfTnkygDRqkLUthQl7NtEmnH+/dQ1A4C69KrJe9sj5YhquTE+oUlmXX4Hc6zWEVLYEAhz4+oXZ3u6Cj/J1Opwnlj0+8rQgmW+KvPdLOUCzL7sUzgVkDmKBYnkzwqj4OmWAbycSq57ewXu9b/9xaMqE08/5oWVIJ6p9bSya822u1ZOLx3j3axfAKdp8REykrGc6Ej00oMuKxJ9DKYCakTUDFFBkKY8Ixa+kbi2ZC2oSyuoCPpWEi2Dtx+nxsIp1OU/GDmSjUJuCCfnzibfwc+vjE8MgQZUNBmoUnE4wcLKTTaZQJpR4nlFnwkSMo3WvIJq5OTmBVwUwUZBOeVquMn7KSUldUJhyb/vZPn/D7YXirf26t0uaPf04oZPz4xNtKG9mdjX3PndhaWUNpbSJtWciR9FloLvXPrS3UJhTf5TlCEBO52QShiDy9kmVZkPWeTLCxbInK4pnw1DhPneL0wWFtbHR82Svrg5koyCbS6fTY6DieXsrfKkC5QVuV34cJriigoE8kKdc7Fs9EiW3CEQT2S5lQmIlNyMRRpo+cQtnN6Ezwec18QoKM8DqgrFGZSKfLxURJbELGTwxYWpsg4p4FmbMBQZ0JvSOjNEH3LKhM5KaRehdOVJ04cejjE4rEugeboU1whXpBMYh89hPMLHQolRplXekat4lDH59QMnFpJcBOMlFonNDRlzV8eilBDLWJlJUsq00EveORUup+Q89M9JVI56jr+6GPT6x6fouOvsRLMlFo7nR1coKx+vHePT8+8XawquryS0lQLpKJPGwCXxcv2DuVJE4gcw1ev2SiIJvwlLD+ubWSDKWNLgmslnvDx3v3FBmxw+JE+Lf2A2zi6uQEr6KgryTUJjxzfKmJkolCbUK32vrn1uqmSTXX5Zc7cGWxwR8l31iOhELvG/6OR/bRUVByDxxoSxDTudm6DgFPvHUIOI5koiQ2oUQmeSaqi1EyJsJsIvwdj2QCp/8ECIWx0XFsAh7v3aO7eyXTCGBCD0KcSDKha4Oi9coJILKjZa+sX/X8FvzGAREHR6H6NtG5NvwvHiUTujYpS1I+ShA93QJtQnHfchw5SEE2wcNaeaPGHtm9V4Gy9LG6TWBnx/2dUghwOKp3CraJzrXh73iUTITmORJBafUYJMAmPHnCaJKJQm0CIyg3bRQhpTboTCiNlY9SNgmUp2L50ta5tr7z2+F/Ga9MoKOpCMePcoX5MOHp/eSBef1zawu1CQrjV1A2d2VkIsAmHCbCnxahMAHlVdyxvk6dBk+tV5p5ej+pd8XZhC4eauSNaCyzjEwE7CdcJkLe8agzgbN4PT5zeX75hm5PChPLXlmvcyyZUGxCP4XUu/vR4PmlgkKZUPIFiZUaJ4KY+Hb9s98Of8ejHF0p48Vwf/xzYnhkCKEMr91QmvHjque3yB3v4717mLSwzbd/+kRwG+Wqwrp+1bPGb3emz+7ZnZW6/AEL8Z7UMQgwMTk5GfR8Jw59wxWWvbKeMssyK0MLspdfOXSQkAYuE+FPnwsZKPeLbKZxwQjkMhH05N6ChzbcFISAYaJWNMwwYZiwvxGMp+827n8ABU9Qlr2yvnH/A8Ft0AC/AwZpeqOFQ+nNMFHTGy1opjeAwI37Hwhu49kxvNK1ifB3PIaPVYhb5LIliI37H5CzLHtlPdYsfyttiMvM29x/ZJXyI9Ok+ufWNr3RojRoeqNFaSPlL6ycy0TQOx4LGzeQFao5aKCqSqUmDcBaIk4yWHn/kVWSCanUShtAicYcR4eYiHPV+bRh42IKVWGCdiA5YBlaho8KvqxkG70BWYEzAYJoxkso3H9kFdoQdxYk7n5t2BjjFIO+1NfKM6H7JXJAhuAKqLkkgLjTmFijF2QbQi+J4bDAVKIvUYZVyRq9PFManltbX3kmCDdWSLzkR5YlvrKSvWQDpYz2EnqdD7TRkUUN+jbuf8CvAevp6IqnpPJM1D+3lpgSUEkPK4EsAZVAsw0djryqlCUBJEZ2JKBsKWtmLRMSdMUv8SO8k+SAZcmigjhRRr3OFoFmS4wmcdfL+bQpQQZVLZtQAJUflWiMSwQXBew/dCZkDbYgqAG+LLMAA+VV0gCqwBwCGy95Fop3SgzaVWFCZrG0A9oKViUJYGgFgnTKShtc5W+Mw4+0A1lgG0987z+yinORG70l28yIj6owAU0k9LpBKGRIxJVlA2g6fRYkKIReeqemN1r0NgrKci7sb5QGkio5WjHlajGhk+Hpapnywiz82kjF92wjufTbGKMNuQwYJ7hNMTRUJYstUlD609laqKJNGEpyEMhlwtwpqt4zI1wmwt+ilkPgbHURVVyXYaJWNCx/JszT58rLmcPEnV3/S7h3Mk9krAAT6//1fw3/lo15SmkFmHj3k5N5vePRPLm3rGR0/R+v84viQd8BxPdKzdOsS04Gnmb9v/8//5d5x6Pfd5crWs8/dAz/1n5F5Zp7k5EJOijfvwKee+BUdMWSCfOOx4pCr08myZienjY2oUNUoRoyYd7xWCHEA6aRZBibCACqEpdIhmGiEnAHzwEyDBPBKFXoatBThSokgpnGRcDYhItEtf83TFSbAXd+w4SLRLX/N0xUmwF3/hAmfvX+r77/8PeX/v3ShiUN5qckCCz9+6Xff/j7v3r/Vy4Fmf+DmHjxxy+WZG4ziCcCL/74RUmGLxO/ev9Xnv1NZQkRkJbhy8T3H/5+Cac0Q3ki8P2Hv0+z8GXCxAZP7EpbufTvl4YzUdopzWh+CBgmaiUVNEwYJsy+JBcBYxPGJnI1wi+OzZ16YxPGJoxN5CJgbMLYRK5GzJ144LdSYxPGJqptE8sbG/3UszL1yxsb8YPpZq1NYJHRNXd8Y/tK/DTuf+Bb72/Ezz1/+uE9f/rhN7avLCvoyxsbIQBm+cb2lYoA9/zph996f+ONygSXR3wBceP+BxqWNCxvbLznTz9s+XJHPj/RNXcUwQQ5ljRzKAggZbjnTz/ELJ4isWMN2URsaUyuDfg2vdFCrQkGGgr+je0rPResVxIgkrG8sZEGRIB4FYVvbF8Je1IGhB40LGnQBYD8yxsblS4tX+6QMlSCCaxQOofG/Q/oS/WUteXLHZKJxv0P6OtBDfx+QAOlY9MbLUQZ+CoNPN3Xt97fqDTDx2WvrMdoeoMAFSF/DUsaZsSEVGEdWalEntJLOTy1Cb3IRIDnoXJJt+A5KSqJ8vLGRh072ZGzYzl+43MtegMg46kiEjQwEfRtTCqOLHgq0bfe36gkJLqpykW2fLmDqtSwpMEPES4yYLQAD/Ct9zd+Y/vK6Jo7omvuUMQLmFTKycAeXXOHrJdlCKA3uOdPP8Sk+uqoPQDWeZOV/R1l37unkgCUl72yXgohy9QgOH15ya9MdHRtQheypS+GYwZ4AFyKLY3FlsaUtQRQy5GlewxoD1+nNyAg+up4CVKFf2u/UOmpQQpwyNh0gdBe1yZiEdqg5csdMHNlRoxAppWFNCxpUIT51vsb4W85NQpUXs/x0Qaw6g0gvKdfJVBkAi8XzMsm9BG/9f5GZT1wJjqyAEvXGrTX6wlHAMoKUookSnIimfA0WUykr5FM6ONTSDChN8CYOhr0WpQq/B2PbKoHVU8Q4UyUAEVL1GWCaujaxEXCv+uLZAN4Bn1kOBZECPxGwMCKFAkJt84EhPccnzIgRvIjChxT1zMCQnjD3/HIpnp8A+HKkjyRZdRVGtOx+AEN3dFXIteMGYPbsL1f1CE0+ji4pNdzTFCuN+CY+qoV19SwpCH8HY+SCYkX7QsOCvude/70Q6iwlJJw61xCa/x2EnAvipLq1uOXnCgy4CO0p2FJg3KV0Pihpsyr7O8QBf3GVPq2fLlDoopy+F/Gs4+CFwlXTrJ0J0bO9PV7qpuMPaCWK9QXTA8gtYTtlQIl0V0NGdJRA9PK+E1vtMgahRjMyzFlS5mMEduGJQ3hT4tga8X6qERswIKyGHKmjNDy5Q4MorSXWokjMwKqj+CXILCLLFASOQUtD/LL9oz5OnOeOyrZl6zr+ucJ3bVr10Le8eiHb0B2qCOLQZT102spKiPhVuxDXsKysSq9HqoHInF41bj/AUKgSEiGdMQ9rRaSK4NIGqTiK2NKhohtw5KG8Hc8orXirOkT5FgoKxMTbs8ggYNVuQacQ7BGkqTYh9RlT1D8dEVZC02zYUmDriueVovle05Kycm6oiVkXYEu/ElbDUsa9OybwzFIoOAZJDy5pNbogupwYHnRNXdIYug6dGR5SVmt51qCdcUzh8byg5lgkOByEEvIkCJb+NPn0IHDARQMp6i/p6aQMwVxaqKyHtxOoWaxgA0wP6IQECSYNysLLkhXsCJlmX6SS9kCfIYuD2rARNCTe9FOwQuEK/R4agpVQBmh5csdnjlJdM0dekss3o9LvZ5geS7bU+yGJQ064liRPj4k95QTfFD/4E5wR4BQeEqVLxPSLZBwRRTM5FmpH/J4qhsq5VxYGKKcMjKzcr2e2xrdeerBgKjp40DhlHouX2FU2gRBV9pwLp2MIpnwPCnztB5EYGUxLV/ugPdQ1A2C6kygsVLPVSn1JI+bTRaArDJpy5c7kFxJKGWkUcbnvAFn0phIN7IAY82XCYVbRWgiq3thvWVAzgNV0rvoKRZn9FytPgJqoCt5doEwemM/feekzFM9QWN3xSzC3/Hol29wYols8K1mdoE0es4DZ8JmKEAHdUX2jFVKX/mRuqzn07KZnNRTsTCv5yWlbxFMBL3jkdTpWGBiOGU2CyaDty31COkZOZhiKv6NeqfU65iyRlHGgI4BnDFIBDDBiXR7kiNLxBqWNMAm8mIC2Cmb3sb9D3huoJY735OQHhZHRlSo2NKY/P4P7nFyCn4viKLLmm+9vxGRA3ehlUt+Hzk1IYAAFBISEkeolDKaTI4V+dlSAsJDEQwuL1EMFApjAjcgeeIfMC5Gh39X7iHrdzGlTMFXZUuljI4Bv/1G5nKia+7wa6PMpXwM7oVEVtcDZZDCmEBn3BMOnp7TFNSYvSpWoHieN7pLJUY+gxfDRKnkM+NIBAwTtfJdccOEYaLa39qXnqEWysYmjE0Ym8hFwNiEsYlcjagFT11dGWAT4XeKqivlXJg931PxuYBFdddomKiVOBHOhHn6XAVsZemypeFMmCcyVoCJ//bf/xuYGB8f9/37CfOU0gow8cv3fhn+zbN0Om2e3FtWMl546QV+UTz8HY/madYlJwNPs37vV++ZdzzyL6CrWeAfOoZ/a7+aYs6BuckEHZRvxJ4DaFRziZIJ847HajLBP4gP/4vHKos5B6anWZh3PFafbUmGiRNV5oNkGCaqzAQDhmGi+kyADMNETTCRTqcNE4aJWkGgVuQwNmGYqBUEakWOEJs4fPjw6tWr58+fHzH/SoTA/PnzV69effjwYUUFgpjYuXNniWY3w3ggsHPnTkmGLxOHDx/26G2qSoqAtAxfJlavXl3SSc1gHgisXr2aZuHLhIkNHsiVumr+/PnhTJR6UjOeNwKGCW9cKl9rmKg85t4zGia8cal8rWGi8ph7z2iY8Mal8rWGicpj7j2jYcIbl8rXGiYqj7n3jIYJb1wqX2uYqDzm3jMaJrxxqXytYaLymHvPWCtMNN3dxB9vSWd7bcFMNN3d1NPTc6S390hv7yOPPlYqfIZHhiBK4kKiVGMWPU5zY/3B3ct+d+Cbv393EX9+d+CbB3cve7Clvi4aVUZ+sMVuz5Yo/O7AN7u2L45EIrh6cPeygJ+u7YsLZqKjvYN9urv3KjIV9zG2NMYxj/T2FjdIEb1iS2PxePyRRx9b19rK7nXR6O/fXTT2yV1jn9yV+n//J6Uw9sldn/+2rrmxHu3rotHfHfgm2rA9e/3+3UWRSEQ2sC7cxMZjn9zFj79/dxER8L1TRBFRONLbyz6lsol1ra0cs6trlzJjmT423d00PDKUspLpdLqnp4ezxOrnEVMgRbysCzcB5d+/uwiW0bV9MamSzTDCwd3LyCv7YgTl48Hdy4BA0JsFKSIKZ8+cQ5+UlWy6u0m5WtzHrq5dZEKqZ3Gj5dnrkUcf46Qd7R3s9WBLPcC1Ltz0+3cXdW1fjB+qNhBvbqyP1c/7/Ld1pA3uS7oguDI4ut8d+KYyAmrw+8GW+vBvKFPESCSy6Lb6/sEBLGB4ZCi2NIarddHoutbWnp6ek6dOnz1z7uyZc31Hj3V3733k0cfYJhKJxJbGurp29R09Jtssuq2ednZ1coLsYsAe519X1666aDQej3e0d/T09MgROto7dMe96Lb6jvaOI729mOhIb68kuLt7b09PT+JCgkycPHW6p6cHbajm1yGGoycChHLsk7uaG+vJ2dgnd/3uwDfZzK9w88IFYA4uLlY/T7YM/9a+bN10d9PVyQksgKG16e4muSouT2n2yKOPMSzLNvF4nN37BwcW3Wa74Hg8zomuTk7E43FpN7J7Op1OXEhIvte1tmYmsizZsu/osbpodNFttvZ5/oNlHNy9jK78wZZMPAAIkolY/bwAziRoLDc3Zqxt7JO7EEJ4KRKJWJYV8o5H2Vo6dITW2NIYrcRzeX1HjynIymYpKylHOHvmHEyHY16dnEA06jt6THbMKVsWZsFEnnzb7S2ro71DKlPOIOk0bILheuyTu6Ta0hcBx7poNIAzCRrL0oYO7l7GehTC3/EoO0jFRGilY0mn0ydPnX7k0cceefSxnp4eLhKORUaXvqPHOto7Oto7urv3dnXtktD09PQsuq2eJkIa6qJRVg6PDHW0dzzy6GMd7R0SdJgFm6WsZN/RY3CGCMuwnrpoFI6OEp49cy7u/MNKaRBjn9z1ox80/OgHDVu+V9+1fTEdy9gnd8FWvnhvJRvL8ICyYk+RSCTYhsL/4lEyIRVzXWvrotvq6UMSFxL01zLTfeTRx6SrgYvgmAgwBAXOHR9TVpJ5VGxpjKCfPHWa3bu797Iv0ORHZsMKiyAsHo9nWlqWzMWROBFfvfD5b+t+9IOGSCRSF43qV2UNmlHUSCQSbEPh73iUY9FppNPp2NKYdFYy/aBNIL+SliQjJ0aWV6XpkAb4HOq1BE72jcfjnBehhZKfPHUauDPLUHSFLelARo/eI2FlmZsJOn2/ltxzcPDzB5s4jvR7aBD+l/EcqC4aJRxXJydscxPZZzweZ0sCipVLS0JAZstIJCKvcnyZ4EciEZlxyk2M9I1NdzdxXkZ+KC9dFg2XnKWspJT8Rz9oGPvkLoB7cPcyeifG6tGj95w/aOfuW75nh1+0PH+wae8Tfyd/urYvpofAYmFDaD969B6JAMrhT4tgn6a7m2j7CK0EkbqmZLrIr2hJwyNDHI0FXuXg6XRaKn4kElG8EPsS+quTE3rkRzPp2RjYdStBYzgQ4KUo9aU3/mdCfz0H2/vE3/Hjlu/lpFgUTxZgQxjZM+UNf8cjh5OK2dPTI/1v/+AAVUBG4CO9vdKSpIvHsPLq2TPnGAyGR4ak9RC4lJXkRJFIREYpOa80qesZME0NHk/uimglkIcO5Iv3VioOBJcA5c0LF8BKPDkjYrIAGwJ5euIUiUTC3/HI4aRidrR3KOthMxk8urp2yTMlqiQbZyOnYwdyCmkWZKh/cIB95UTd3Xub7m4i4pIJOqJ0Og1HJDmTIsXq5yEdgguSlMfq5wH00aP3fPHeyrpolMTonFFCWejavnj06D340YM5mJicnAx6vhOHo2JiSdImhkeG4vH4otvq17W20imnnQxdaj2bxZbGmu5uii2NSTt75NHHJEb0eHIvdvLUaQAkt5OIz9IL9Q8OxOPx2NJYR3sH7YYsZunPTZyaG+sJ1vmDTbH6ebH6ec2N9T/6QcP5g028tPeJvwMTrOnavvjBFnvLzR/FnpA4sb2e4EYikfCnz4EJBXfkgjJgptNpqiQ9PprRm7MeBWwpUGbklGPCLLLAOU1TVpLgoi8TVqkruMTfVycnmLZJYxoeGTp56jS81pbv2UzAgRA1WRj75C4whBPWgMZK5FCY03kiE0FP7gUTisbxTEJHnzAhv4pEIutaW1lJaGAxxI4WIHFHtJAZp+yO8tkz5xhR5MZFtpRbk0gkIi0PzUC5dCCSAJZJA+46sF4vKNEefg/Nzh9skn6PLif82ZhoKgGSgRfu6OrkxNXJif7Bga6uXR3tHf2DA/2DA9IFx+NxBGS0HB4ZOnvmXGxp7OSp02xM+fqOHkNl/+CA3LGnrOTwyBBHSFxI6Md/8Xj85KnTslnf0WO0Bi4bQnIoNHiwpf78waYv3lup/Jw/2IR7ROyOwoMt9b878E2l8RfvrfzdgW9yLWgZq593/mATfjzDdb42cd3XZ7cOub4VaStufEI3ccq26Db13lZdNIrwgAgBWT0bsxKD0LkhzGCu2NKYsloJk5xI1svyotvqOZRSjwjB3wET2adkTjjhbxqoHPPmhQvqotGbFy7Aj7zEcrhNyNwDwUBuhThQmQp+GVqZppPD3rxwgfwYUM6/ZcAg4U94p0rCpUqfEzBuqS5Jn87IXKrBa2qc8PdP4BYjwkB3995gUy352mSeI0+iSj5R1QcMZ4JffvH0gOVeQNPdTd3de/HD23nlnrQq44czURWx5uCkholaId0wYZioFQRqRQ5jE4aJWkGgVuQwNmGYqBUEakUOYxOGiVpBoFbkgE2E3ymqFXlnrxzhp+Kzd+21tTLDRK3wEc6EefpcBbiaP39+OBPmiYwVYOKBBx4AE0HveDRPKa0AE++8805e73g0T+4tKxlPPfUUvyge9B1A3L42T7MuORl4mvWhQ4fMOx7ll9OqVuYfOoZ/a79qMs6NickEHZTvX8bPDUCqtkrJhHnHY9VowMSSjOnpaWMTVeODTJh3PFaNA04syTA2QViqUyAZ/z/OikUEUFmT8AAAAABJRU5ErkJggg==;" parent="1" vertex="1">
          <mxGeometry x="-244" y="898" width="65.4" height="334" as="geometry" />
        </mxCell>
        <mxCell id="XqAon4pbSdZR6ryQRngl-5" value="" style="html=1;shadow=0;dashed=0;shape=mxgraph.bootstrap.checkbox2;labelPosition=right;verticalLabelPosition=middle;align=left;verticalAlign=middle;gradientColor=#DEDEDE;fillColor=#EDEDED;checked=0;spacing=5;checkedFill=#0085FC;checkedStroke=#ffffff;sketch=0;" parent="1" vertex="1">
          <mxGeometry x="-165" y="915" width="10" height="10" as="geometry" />
        </mxCell>
        <mxCell id="XqAon4pbSdZR6ryQRngl-6" value="" style="html=1;shadow=0;dashed=0;shape=mxgraph.bootstrap.checkbox2;labelPosition=right;verticalLabelPosition=middle;align=left;verticalAlign=middle;gradientColor=#DEDEDE;fillColor=#EDEDED;checked=0;spacing=5;checkedFill=#0085FC;checkedStroke=#ffffff;sketch=0;" parent="1" vertex="1">
          <mxGeometry x="-165" y="947" width="10" height="10" as="geometry" />
        </mxCell>
        <mxCell id="XqAon4pbSdZR6ryQRngl-8" value="" style="dashed=0;labelPosition=right;align=left;shape=mxgraph.gmdl.checkbox;strokeColor=none;fillColor=#009587;strokeWidth=2;aspect=fixed;sketch=0;html=1;" parent="1" vertex="1">
          <mxGeometry x="-165" y="983" width="13" height="13" as="geometry" />
        </mxCell>
        <mxCell id="XqAon4pbSdZR6ryQRngl-9" value="" style="html=1;shadow=0;dashed=0;shape=mxgraph.bootstrap.checkbox2;labelPosition=right;verticalLabelPosition=middle;align=left;verticalAlign=middle;gradientColor=#DEDEDE;fillColor=#EDEDED;checked=0;spacing=5;checkedFill=#0085FC;checkedStroke=#ffffff;sketch=0;" parent="1" vertex="1">
          <mxGeometry x="-163.5" y="1058" width="10" height="10" as="geometry" />
        </mxCell>
        <mxCell id="XqAon4pbSdZR6ryQRngl-11" value="" style="html=1;shadow=0;dashed=0;shape=mxgraph.bootstrap.checkbox2;labelPosition=right;verticalLabelPosition=middle;align=left;verticalAlign=middle;gradientColor=#DEDEDE;fillColor=#EDEDED;checked=0;spacing=5;checkedFill=#0085FC;checkedStroke=#ffffff;sketch=0;" parent="1" vertex="1">
          <mxGeometry x="-162" y="1165" width="10" height="10" as="geometry" />
        </mxCell>
        <mxCell id="XqAon4pbSdZR6ryQRngl-12" value="" style="dashed=0;labelPosition=right;align=left;shape=mxgraph.gmdl.checkbox;strokeColor=none;fillColor=#009587;strokeWidth=2;aspect=fixed;sketch=0;html=1;" parent="1" vertex="1">
          <mxGeometry x="-163.5" y="1126" width="13" height="13" as="geometry" />
        </mxCell>
        <mxCell id="XqAon4pbSdZR6ryQRngl-13" value="" style="dashed=0;labelPosition=right;align=left;shape=mxgraph.gmdl.checkbox;strokeColor=none;fillColor=#B0B0B0;strokeWidth=2;aspect=fixed;sketch=0;html=1;" parent="1" vertex="1">
          <mxGeometry x="-165" y="1023" width="11" height="11" as="geometry" />
        </mxCell>
        <mxCell id="XqAon4pbSdZR6ryQRngl-15" value="" style="dashed=0;labelPosition=right;align=left;shape=mxgraph.gmdl.checkbox;strokeColor=none;fillColor=#B0B0B0;strokeWidth=2;aspect=fixed;sketch=0;html=1;" parent="1" vertex="1">
          <mxGeometry x="-164" y="1095" width="11" height="11" as="geometry" />
        </mxCell>
        <mxCell id="XqAon4pbSdZR6ryQRngl-16" value="" style="html=1;shadow=0;dashed=0;shape=mxgraph.bootstrap.checkbox2;labelPosition=right;verticalLabelPosition=middle;align=left;verticalAlign=middle;gradientColor=#DEDEDE;fillColor=#EDEDED;checked=0;spacing=5;checkedFill=#0085FC;checkedStroke=#ffffff;sketch=0;" parent="1" vertex="1">
          <mxGeometry x="-163" y="1209" width="10" height="10" as="geometry" />
        </mxCell>
        <mxCell id="XqAon4pbSdZR6ryQRngl-17" value="Start registering" style="rounded=1;fillColor=#0057D8;strokeColor=none;html=1;whiteSpace=wrap;fontColor=#ffffff;align=center;verticalAlign=middle;fontStyle=0;fontSize=12;sketch=0;" parent="1" vertex="1">
          <mxGeometry x="-87" y="1252" width="94" height="25" as="geometry" />
        </mxCell>
        <mxCell id="XqAon4pbSdZR6ryQRngl-18" value="" style="endArrow=none;dashed=1;html=1;dashPattern=1 3;strokeWidth=2;rounded=0;" parent="1" edge="1">
          <mxGeometry width="50" height="50" relative="1" as="geometry">
            <mxPoint x="-212" y="1267" as="sourcePoint" />
            <mxPoint x="-212" y="1245" as="targetPoint" />
          </mxGeometry>
        </mxCell>
        <mxCell id="XqAon4pbSdZR6ryQRngl-19" value="" style="endArrow=classic;html=1;rounded=0;strokeWidth=7;" parent="1" edge="1">
          <mxGeometry width="50" height="50" relative="1" as="geometry">
            <mxPoint x="49" y="1262.08" as="sourcePoint" />
            <mxPoint x="101" y="1262.08" as="targetPoint" />
          </mxGeometry>
        </mxCell>
        <mxCell id="XqAon4pbSdZR6ryQRngl-20" value="" style="whiteSpace=wrap;html=1;aspect=fixed;" parent="1" vertex="1">
          <mxGeometry x="124" y="852" width="435" height="435" as="geometry" />
        </mxCell>
        <mxCell id="XqAon4pbSdZR6ryQRngl-21" value="&lt;b&gt;&lt;u&gt;&lt;font style=&quot;font-size: 20px;&quot;&gt;Desired account information&lt;/font&gt;&lt;/u&gt;&lt;/b&gt;" style="text;html=1;align=center;verticalAlign=middle;resizable=0;points=[];autosize=1;strokeColor=none;fillColor=none;" parent="1" vertex="1">
          <mxGeometry x="200" y="860" width="289" height="36" as="geometry" />
        </mxCell>
        <mxCell id="XqAon4pbSdZR6ryQRngl-22" value="Full name" style="rounded=1;whiteSpace=wrap;html=1;" parent="1" vertex="1">
          <mxGeometry x="252" y="920" width="180" height="30" as="geometry" />
        </mxCell>
        <mxCell id="XqAon4pbSdZR6ryQRngl-24" value="" style="shape=actor;whiteSpace=wrap;html=1;" parent="1" vertex="1">
          <mxGeometry x="261" y="926.5" width="17" height="17" as="geometry" />
        </mxCell>
        <mxCell id="XqAon4pbSdZR6ryQRngl-26" value="User name" style="rounded=1;whiteSpace=wrap;html=1;" parent="1" vertex="1">
          <mxGeometry x="251.5" y="959" width="180" height="30" as="geometry" />
        </mxCell>
        <mxCell id="XqAon4pbSdZR6ryQRngl-27" value="" style="verticalLabelPosition=bottom;html=1;verticalAlign=top;align=center;strokeColor=none;fillColor=#303131;shape=mxgraph.azure.user;" parent="1" vertex="1">
          <mxGeometry x="263" y="965.5" width="13" height="17" as="geometry" />
        </mxCell>
        <mxCell id="XqAon4pbSdZR6ryQRngl-28" value="Password" style="rounded=1;whiteSpace=wrap;html=1;" parent="1" vertex="1">
          <mxGeometry x="251.5" y="1000" width="180" height="30" as="geometry" />
        </mxCell>
        <mxCell id="XqAon4pbSdZR6ryQRngl-25" value="" style="outlineConnect=0;dashed=0;verticalLabelPosition=bottom;verticalAlign=top;align=center;html=1;shape=mxgraph.aws3.permissions;fillColor=#8c8c8c;gradientColor=none;" parent="1" vertex="1">
          <mxGeometry x="261" y="1005" width="18" height="20" as="geometry" />
        </mxCell>
        <mxCell id="XqAon4pbSdZR6ryQRngl-29" value="" style="dashed=0;labelPosition=right;align=left;shape=mxgraph.gmdl.checkbox;strokeColor=none;fillColor=#009587;strokeWidth=2;aspect=fixed;sketch=0;html=1;" parent="1" vertex="1">
          <mxGeometry x="232.5" y="896" width="13" height="13" as="geometry" />
        </mxCell>
        <mxCell id="XqAon4pbSdZR6ryQRngl-30" value="&lt;i&gt;I want same information on all sites*&lt;/i&gt;" style="text;html=1;align=center;verticalAlign=middle;resizable=0;points=[];autosize=1;strokeColor=none;fillColor=none;" parent="1" vertex="1">
          <mxGeometry x="243.5" y="889.5" width="210" height="26" as="geometry" />
        </mxCell>
        <mxCell id="XqAon4pbSdZR6ryQRngl-32" value="&lt;i&gt;I want to chose individually on each site&lt;/i&gt;" style="text;html=1;align=center;verticalAlign=middle;resizable=0;points=[];autosize=1;strokeColor=none;fillColor=none;" parent="1" vertex="1">
          <mxGeometry x="239" y="1088" width="229" height="26" as="geometry" />
        </mxCell>
        <mxCell id="XqAon4pbSdZR6ryQRngl-34" value="" style="html=1;shadow=0;dashed=0;shape=mxgraph.bootstrap.checkbox2;labelPosition=right;verticalLabelPosition=middle;align=left;verticalAlign=middle;gradientColor=#DEDEDE;fillColor=#EDEDED;checked=0;spacing=5;checkedFill=#0085FC;checkedStroke=#ffffff;sketch=0;" parent="1" vertex="1">
          <mxGeometry x="234" y="1096" width="10" height="10" as="geometry" />
        </mxCell>
        <mxCell id="XqAon4pbSdZR6ryQRngl-36" value="" style="endArrow=none;dashed=1;html=1;dashPattern=1 3;strokeWidth=2;rounded=0;" parent="1" edge="1">
          <mxGeometry width="50" height="50" relative="1" as="geometry">
            <mxPoint x="336" y="1064" as="sourcePoint" />
            <mxPoint x="336" y="1037" as="targetPoint" />
          </mxGeometry>
        </mxCell>
        <mxCell id="XqAon4pbSdZR6ryQRngl-37" value="Create accounts" style="rounded=1;fillColor=#0057D8;strokeColor=none;html=1;whiteSpace=wrap;fontColor=#ffffff;align=center;verticalAlign=middle;fontStyle=0;fontSize=12;sketch=0;" parent="1" vertex="1">
          <mxGeometry x="456" y="1254" width="94" height="25" as="geometry" />
        </mxCell>
        <mxCell id="XqAon4pbSdZR6ryQRngl-38" value="" style="whiteSpace=wrap;html=1;aspect=fixed;" parent="1" vertex="1">
          <mxGeometry x="-186" y="93" width="563" height="563" as="geometry" />
        </mxCell>
        <mxCell id="XqAon4pbSdZR6ryQRngl-40" value="&lt;b&gt;&lt;u&gt;&lt;font style=&quot;font-size: 20px;&quot;&gt;Specific account overview&lt;/font&gt;&lt;/u&gt;&lt;/b&gt;" style="text;html=1;align=center;verticalAlign=middle;resizable=0;points=[];autosize=1;strokeColor=none;fillColor=none;" parent="1" vertex="1">
          <mxGeometry x="-38.5" y="210" width="268" height="36" as="geometry" />
        </mxCell>
        <mxCell id="XqAon4pbSdZR6ryQRngl-41" value="" style="shape=image;verticalLabelPosition=bottom;labelBackgroundColor=default;verticalAlign=top;aspect=fixed;imageAspect=0;image=data:image/png,iVBORw0KGgoAAAANSUhEUgAAAIcAAAEkCAIAAACKerWpAAAgAElEQVR4Ae2dX2hU17fHTwuatGNILAFhIG0j1HlobYQLJj40DAiVKsybFqpFij/FZqDFxjymfRrhIsabhzIvLZoYf0wUrlftr4ZEUK70lzThRysZ9FeICb1ibJtM4vwxieM453pmzXxnZZ8zM+ckZyaTZIdB9zln77XXXp+91t7n71ZU+Vc2Fkhm/pSyUUkqolmAuEgq5dgbJBVJpRwtUI46SV9ZtVQu/jzZfPrnipZ+5Vif/NligYqW/ubTP1/8edKwUxT2ldbL/7ZFDynE0AKtl/+tB1OAysWfJw1lyZ02WkDvMQWoNJ/+2cbqpShDCzSf/llwlwJU5FhiaEd7d1a09FujYm/1UlouC0gq5TiNlFQkFXl+Y84C0lekr5jrKbnGwPWzX/qK9BXpK+YsIH1F+oq5nrJ+xo9cLZW+In1F+oo5C0hfkb5irqfkirbrZ7/0lTXqKwfOjHx97pdcHfnrc790XrlPv6YTpbjVj+ryaJVLW9rPdebSDpwZsaUJBYXAV0w9pWfYmANnRmLzcwfOjBgevReKo44lm8lQsuHOphP9sfk5qvH2gzDlOXBmpGtkNpeGejm3H4Shs5CIhKNdI7P6Iib3NJ3o77xyPzY/lx8MVZp5oDVZ4F6kYd0HzoyQFMOaVpzK1+d+0dRLJtVk0iSYPFRIFHgbGiTXTuKRx1YoiGdZX6T+lkXFsAusGJVkkmyXNXEyabKbZ4uQCY3+NQkYhlaO9XGxhj0YmclLCEkikVgWFVVV9WBWjIqqEpXOK/dhVZMhlJsPRShQQ5RJwDC0VSpAEo/Hl0vlZZS4F4pzVVacinKs7+Wgci8U77xynyuWJ82pcJ/oGpklKi+SiSUEMS42r6/c4EiePXu2bCqpiMg1LgcqeQAYHuLmg68QXfgK328oRL+Ti81N5YZyTKOSSCTi8fizZ8/m5+ftoaJmYrpyrC8PFZqQ3H4Qpp++nQfOjGBiSo3svHL/9oMwmsQldI3MNp3o18/BuBAUJGlNJ/q7RmahQOeV+5SBmw++wiOYPlArx/q4NGHKR3pmTZEa4VDdYn43lKM3EonE8+fPCcnTp0/toJKZ8FDkzaqiqtzu2XCfmh1pc6TUsMTzwDo086YpLyySNROT0DUyK8yMsxWpKkycjfIom1KAake95BkQiE2BriDtRTJBUz7EjPQ0leoiKaw6QyrxeHxhYeHp06eRSMQmKikwL5KJziv3DakgQCMg8AQGAFgnNj8H0xAV7hPZsoubrR/tQQWSs2VTKUMqQp7Y/BzvOlkkQr5kMhFfIB1w8iBkEeQoxzRHUY7+CEeJxWJPnjxZLhXSeFHdzFKkRLbjpJyja2SW4hJKwRv0trsXit8LxZtO9HPYsfk5vRDVaA5GVLj3oCx1IDNUSE/MwbLnQ6pKQYlCWbo5qZMk2oOORbrdfhBGL8m4S5bKwsLC3NxcJBKZmZmxgYpyrI83G7Z+6T/6NvPOki2VObEQqKANTSeyz3wCITUsWyQztmXFZiIYt44Qi8RxJaXJgTMjdFUp2xVSXY30QY2IV6RJOnOmLYJLCfUKVCh8xWKxcDgcCoXsoSJMVwCGGMAoQjOUY304RNNrNFhNdcOM6n08IKDP0lEOzDCC8QxCWcjn9aIr0FFoqKoqFUfrYvNzmDjcfhCOhKN0CKcKXGxuKj8qR3+Mx+Pz8/MUvqampmyjInQN0u/rc79kx4NMX4YtshO2ZDI2PydI4NZJB43U6IVBCHLShsvIF3wlSyWZ5J6K4nnqXXQoIx9U1GTyRTKBH/ZHwlESbprKP549ezY3NxeNRmdnZ//66y87qSxqQ0pHwVfQiWARoX+hGUKYWkFfyQaxzLgF65Ov0Mh3LxR/OWxQGiEBzVFV1chXtDMV5eiPyt/SVGhQ+fPPP22mku3+jEpWucWXC7kHUHBAToEK7+/CoezsLtOXBV/hcVIoS+ccQmeCP9E5BxioySS5aVpJ3UUNdDUk0JycVFITsFJQyYaszGjPezpF54JzML35eAtj83N0sgkDke0MxxVhMsLnYJjycuFZDItTUCnbnFQ/oDPZl7NEun3AAywXa+wrOiqhUKgovkIdkGI9+h3v0XTCRWeR1HBkQzNgAvQ7DnuxuTJbuX1lkTewibvhLDEjbtH/wv2kdHNSJ4Z0LoyxbflU/vjjD/sjGNmRjAhzU4fl8xlqNHorlcpD5WVszJ7bZyxGHR9ic/mKIDxTWvufNES9/BClafDQ93R+74SX4k3mYvUScAqp/O0fOKsPhUJLpEIBl2IIVwL9mhL6G8n8KtbtB2GaofFSuISVSyyXQNfBlGN9uL9Lpbh6gi34lavbD8K4MAUJnVfuf33uF/zy3yHmytx+EBYuhVE3IitBVd5YPRU6WVkilcWiy/HhhFWiYfrEHr4iqZRDZ5JUyvHJNElFUlklYX3Fg5j0Fekr0lfMWUD6ivQVcz1lxcP6iisgfUX6ivQVcxaQvrIafCUSiSz96qS5jrDiUbv8Fcj6Ct0hllTKgZkxlSXe9ZK+YpMFDKjMzMwUpiK/cGgTAEPXTD9NUXH8BiKYKSrya6DFpNJHz7h88J//tPbkkfxybgmoXPjnQ2tP6amqKr8yXUwwN766dI/eXFlYWDD7RCs9JyC/yG47GPoie8/QI3qf6Pnz5xae/uZPb8i07RbAS6rW3pSwXQ8pkFsAVBDETL1VxEXItO0W4FTgLoXfwLNdDylQsAAHY/ZtVUGE3LTdAqDCXyMu8ESr7UpIgXoL6MFIKnorrcAeAYyksgIMDKvkYCQVQxOtzE4Ck0wW+hLVymi3jmslMNJXyrELSCqSSjlaoBx1kr6yaqlcvHixubm5oqJCkX82WaCioqK5ufnixYuGnaKwr7S2ttqkiRRjYIHW1lY9mAJULl++bCBJ7rLVApcvXxbAFKCyd+9eWxWQwgwssHfvXmtUtmzZYiBG7rLVAlu2bLFGpaamxlYFpDADC9TU1EgqBnZZ2V2Simb/+tqNe3bVth9/4+wXb3b7tvZ/+86dS9Xdvq3dvq3tx9/4dG9tfe3GUnJa11SqHI5P99beuVT9sK9K/f2VPL/k6Kt3LlW3H3+jNHgEKoW/Z7w2xpX62o3tx98AjOToqwV/xCw5+mq3b+sOV21RXUegEo1GC8yM1wCVLz9xEo+CJAwzqL+/khx99ewXb1Y5HEVis76o1NduvHOpGr3e0OhmdpKEh31Ve3YVxWkEKms5gu3ZVZvfRcgJhNElDyTK/+UnTts9RqCiqurajGB7dtUmR18lO+oNDe952Fd151I1fg/7qqhU/oLtx9+wF8y6oJIHCfGg+dUOV60wVGzYVLnDVfvp3tr+b9/JD9VeMGufyg6XceACD5NjQ33txm7f1lxs1N9f+XSvbWPM2qdCw7sQtSgiLcGOO1za+Y0+oNEeu85m1jiV9uNvGFrwYV/Vks85qhyObt9WQ7F3LlXbMsCsZSr1tRsFF6H487CvavmdOheYJfifHuRapkKG0890l+wlgvlw6sOreNhXJUwZhFJmNtcylU/3atMn4WcXErqmKQinzeU7Iqdi6im9NXDFxUxvXdk8oGL2idYlUKl/u35nY9POxiZnnXgaXL25Fr8NmyoNbYHiDdsb6t+upzzVm2vr367f5nLtbGyiglUOh7POSXuoIkimhKFw2umsc5KGDdsb9PEHdTVsb1AUZcOmSkjmMilbw/YGfTbkr94snhJxCUgTFUJCSxTadm6/YVOlt8U7NDiMxTuGBoe56T/ev//R5OOxifGxifFHk497AwGoRYl9Hg8v/iKZmJ6ZcrvdiqLQ/kR84eWqwISqvf2b6Zkp+hb7wUOHG7Y3QDhVERwNdnScFXrGPo9n4Oat6ZkpuveXiC+MTYzzbNWba4OjwUg4mogvPJp8vGFTZdvJNpL8aPJxR8dZUtVZ56RsL5KJgZu3FEVpb/9GUICaee58l9BM/WZNTQ1HUnhtVZO+Ur25duDmLeE2ZyQc5Ua5fvUaz5CIL1AvA5JEfIFnoPQ+j0dRlEeTj2kTVPx+PzJ/vH//zsYmbGYTyWRwNAgdOjrOaocySw7wbGMT46SMs84JZkTF5zvFc5I+zjonOh9RGRoczmZjKTqqJ8H3EBW+kKc9viJYXFVVbbE+VaU2KIqyzeXCGgPQub39GyjHoU7PTFFHg4SxiXEqNT0zRVZOmzi1V6ASCUdBUU0mqYO3nWxDvZQgDbFzbGKcIg/KGlIZmxivcjiqN9cC3vWr17a5XIK0tNhk0iQVjqTw2qpmfGWfx4O2qcmk3+93u907G5sOHjq8s7GJ7A6jkMUpf3A0iEECdk/EFz7ev19RlCqHw+12O+ucVQ4HjkbCURqx8vhKbyBQ/3Y9rDY0OMw3VVW9fvUaadh2sg3ZXvak9vZvqhyOfFRSend0nK1yOFBw4Oat+rfr2062eVu8vG+dO9/lbfGiX6L/6RM1NTX8pUh7ruSfO98FKn6/X18rDQyU5/rVa+3t3yA/DRuKovD2PJp8fO58Fw5Vb64FlRfJRCQcxYhCcgRf6Q0EeF8eGhw+eOgwahRGu4OHDqObDw0OO+ucBakk4gsHDx2GStwbBA82NIV+Z01NjbW1Vc34CjcoTMnr3tnYhDGj7WRbw/YGBHdQdLvdiNSwINl3w6ZKmACHeEKg8mjycXA0iAx+v9/b4sWmz3eK61a9uRYYaHTBphjB2ID0aPIxtM1F5eiRI7yiPGmiYmFtVatUDh46rK+eD5gHDx3e5nLB/R9NPq7enL74urOxqTcQwCGyo9/vt0oFAFRVjYSj21wuTgX9gPSsf7se9h2bGN/mcuWikogvnDvfhe6FWmyhgk8gmFpb1QwV7rbB0SCfWVU5HBs2VfKeGwlHI+EogoaqqjSKgGX15lotxGU65qPJx/Vv18NXIuHox/v3u93u3kAAdhF85UUyEZufm56ZGrh5i3zX7XYjcyQchUNXORw8/F6/eo27jugrqup2u/l4RjLtomLh6zpmqAjzq+mZqd5AwO/3D9y8dfTIEeM5K4yUTF6/ek1RlI6Os+fOd/l8p9rbv9EsTlSSSYHK9MwU+RbvCgIVGn4xIaYzQT5zTcQXSEPeXWi+l3+0d7vdfJCzkYq1tVXNUFEUhYcIGJzayc03NjE+cPPWwM1bmo0y3kCnINxqXEJvIMAj2PTMFJ1FcrECFcIM56MEnWZyyUKaIlv+0Z4mVB/v38/L2uIr1r7aZpLKyxO9o0eOICJD6X0eDx8nEDq4oWlKyqcMKE6Tog2bKiH5RTJBVHgkoSk4SnEzcTY7G5sM2UfCUUwB+Onhy/0bNlVy/Jjm8rg3NDiMWrhWlkZ7a184NE9Fu6qamrb3BgLkEB0dZ3c2NnV0nPX7/b2BwMsAxS/AtJ1su3712rnzXX6//+ChwwcPHT53vuv61WsDN29dv3rN7/d/vH8/zmbOne+imOPznaII5m3xUvGOjrN0MYpLg5mExIZNlfs8Hr/fTxX1BgJtJ9u2uVzIVr25tjcQoLroJPfokSOkT0fHWeSkwc/nO+XzneLW51rhXA3CcyVqamqsfQ3UEpVctcr9+S0gqeS3z8oc5VRMra26inzl7Bdv4skuJM5+8aZdlqYnxyGZEv3fvmPLXS9EMFPfyV9FVD7dW0v3bvG4EG3a8uwWnjGjxyrwb7dv6/Kp19TUWFtbdRVRURQl11NCywQDJPqnNZbvKIqigIrZVTxXF5UdLu1BVv1P/f2Vbt9W/W1HM938y0+ccD4uWf39FbueOV7jVBRF+fITp/7ZLTyCZPLBSaK1w6U92ppLWv+375iBaibP2qeiKIrhs1sERv39lTuXqj/dm+92+oZNlXt21eZ/nPXOpeqleZ4hpHVBJQ8YsHnYV9X/7Tv0FuSeXbV7dmmPLLUff6PbtzX/K2Hq76/Y8tgfx7NeqOQHAzb8eTue5uMHT5Or2TLCr1Mq2nMnqceODQcGbmszaWK25CkDZ6BPryNfocbv2ZV+qH7JbIhHcvRVu2ZckopmgQ2bKq2+QEzeAx7dvq22Ry3OZt35ChpPL3ffuVTNBxUhdpE/YYB52Fd19os3bXxSGcoIifVLBYagr1LQtxBABfGN3pQ8+8Wb+WfPkGZLQlJZZMb62o07XNq0eM+u2h0u7UMhNp6FLKop74akktc8K3QQVMyu4rm6roOtkFWXW61wf+WPP/6w5znj5eq1vssLVAqv4il9pQQdhlMxtYqn/MJhCahs2bIF9yJNUZFfAy0BlY8++sjak0fyy7kloNLb22vtKT1tbVX5lelikvnqq6+wLKHFtVXlF9ntBkNfZO/p6ZFrq+Kh13JJ4CVVa29KlIv6a1QPUEEQk2urrjxqTgXuItdWLS8wcm3VledBGsBd+GvEBa6DlYvua1oPPRhJpSyAC2AklbKgkvqSiYbG1Nd1ykXl9aEHeYxcW7XsaBMYGcHKDkzhb3+Xo8rrQCfpK+UIWVJZtVTk2qp2X8hX5NqqtpvUToFLWVv14sWLdqogZRlZQL8acYFxpbm52UiO3GenBZqbm4XBrQAVuU63nebPIauiosIalRxy5G6bLSCp2GxQW8RJKraY0WYhkorNBrVFnKRiixltFiKp2GxQW8RJKraY0WYhkorNBrVFHKcSCoUKnEXaUqUUUtACnMrz588llYIWK0UGTqXwvchSaCTrUETfELdFaNJkJbGAaHZhW9gsiUqyEtE3xG1JZUX6iGh2YVvYXBEVV7zSKoeDvh5S5XAIP7v2C20UzS5sC5tC4fWwWeVw3Hm/sdg/4YMxMLupp/TWAwahjfW1G4uN5M77jYZUzD7RKmi8HjZL4Cvd1c3CZ+CsPf29HjAIbSwBFb2vkJdg1UhrczBnndPnO0WLvaqqSmtnHTx0GP7YsL1haHBY//P7/Vjvq8rh6A0E9HkGbt6itSZhJp/vlD4b9kAg5edVD9y8BZXoqLPOiYJIDNy85fOd4mtN0drcPIKNeU9Mz0zl+j0ZGLjzfuPd779Dhrvff4fiTwYGsH/MewL777zfiDZSAu9I0GurFqhQwzAupRPJZCK+gLV++Lpmi3Imk1hUuMrhEBbU4jn5amh8STWeh9Kcystl3fhKe6qqCqvxOeucegnaHqYYGUjwlTHvCcqmLXkl/FQ1TWV3ZkmmlLS7uz133m9MF0zVStk4FaHTwEvo1UgLVNBsWtjJWeeE1RLxBepxnEpwNOj3+4cGh7GaH63txKlMz0z5U398BSmsyQT5kXCUsvF/eR+n5Zq53YV1pDiV6Zmp4GiQL22FhXRpTVduPm7csYnxJwMD/AfP4NmIAdbtm56ZIk4Qqx9X+EuRhddW5Y4Gww0NDhNqZ53z5XqOPt8pb4tXT4UcqMrhQMHgaJCm//AV2kO1YOf0zBTtSVNJdUCuiT6N1VPHJsapE0TCUe5MnIrf76eF2P1siWlvi5fEGvtKyqvAAPbliScDA+gWd7//Lp1OJg1LCb5ibW1V3n6+0F0kHKWg7Ha7eQXcV4gKj3uGVJx1Tmedk6+tim7OfcW9+I9bnC+YS0MRWQRxVVEUgQq1i6/QjUpzUlHVu99/N+Y9wX/cCe4ijqUQkg762HXn/Ua9r1j7CgKn4qxzotejUyTiC0ODw1jcLkslmaR1COHIqqr6U6sU8wiWiC/QeIgoh+FHURRQQXVIwIhkcVofNRFfcLvdiLTB0SD0N6TCNYHX5qFCqym+SCbwE8ZwHsdUVU3EFzg27li8KyuKgk8gmFpbFa2iRJXD4W3xDg0OY5VYMhMWq89Sof5Cw2MqE5aa57ZIWzmTbWhwmDsBqCTiC2MT4/zXGwhANzgxWdbtdoMxuksuKlir0AyVRHxB+AlUsoEr1bA8VKA8JZ4/f25hbVWhMG1SUD546PDAzVtoP/kBpxIcDWKVv4OHDmNw5lTIz7hpDKikxhUKdPgXfa3K4UBxWp7b2+LFSE5a5YpgfI12TDFy+kpqhLi728N/vPvf3e0ROquqqmMT4zwP0tCfTGptbVVQoUF7aHB4bGIck05uX+q8nArGTwgBVAzsFIgatjfAjnApHsEw/guiFEXhnpH2PPovtXYrJleGvsLLwvlyUkmNKzCrPsFjtTDyC5n144q1r7ZxK6RrTSYHbt6ijs+tSQyWRkVRFMPpECJYJBz1tniFH3kVL7iISoYN9SFOhabsfH1wGpDQabgR+VDxZGDg7vffCT/KnI1dmUlXup+lzuf0o4vgK9a+cMipHDx0GB4aCUeDo0GEL3RwTqXtZBsvjrTewyjCwF3QwUHFwNyq6m3xVjkcKEVn6QhxcEcKTZyKII2fBec/X0kXZOeS0zNT2rn9bg9MQXuEs0ghjul9xdrXQGFKShw8dJj7KU0zegMBDAacCgKdIIRT4VMpzJ1UVaVJbX4qtE4uWYp3dqoO0mgmYkglEV8Ijgb5FSNTVEA1NeBpACbGsY+P/3nimKGvRCIRU99oFQxKStPpBZ0/YAxHTvRWoWJkIM+gbEIelCWxNK3gO3maTkixh8uHnnSUakFOJITaSYIwrpAr8BFeSAsZePTLc0ioGr5iam1VoanY3LCpUpCLQ6s9oaciGHr5m93VzYL1OJXCX2Rf7SZegv4rctfL2tqqS2jVai9SAl/R318hKmbXVl3tJl6C/vQoRX3txqL+BMUkFcEgZbEpqZQFBkEJSUUwSFlsSiplgUFQQlIRDFIWm5JKWWAQlJBUBIOUxaakUhYYBCUkFcEgZbEpqZQFBkEJSUUwSFlsEhWza6uWhcrrQAl5Jb8cIXMqhddWLccWrEWdQMXUHWL5hcMS9IGKigprVOTXQEtA5YMPPiAq0Wh0dnb2r7/+KvCmhPxybgmoXLhwwdpTenJt1WJTkWurFtvCFuTLtVXxBF3ZJfCSqrU3JcquHWtLIVCx9lbR2jJC2bWGU4G7yLVVV54TByPXVl15HqQBqPDXiAucr5SL7mtaDz0YSaUsgAtgJJWyoJJ6t1dDI9dWLRce0IM8Rq6tCoOUS4LAyAhWLjy4HpIKt0a5pCWVciHB9ZBUuDXKJW2KysWJ58398xV/jyk98mePBSr+Hmvun7848dywIxSm0vqvZxJG8SzQ+q9nejAFqNz4v4XiKSQlkwX0HlOAytH/fSJtV2wLNPfPC+5SgMqu/5kutk5SfsXfY9ao/Md/T0mrlcACkoo9kyh7UUkqkoo8vzFnAekr0lfM9RR7Y/RqlCZ9RfqK9BVzFlgjvvLhD6F7ofi9UPzDH0KrMWQJOq8RKq2Ds9SS1sFZoYWrcVNSWaPjymudk8rpX5XTv2qJnpiWPtanHOtLb6YiqZZO7dSOsthqUHZxBqUn5rr8kH5U8MMfQh/+EHJdfsjl5PIV1+WHlJ8yc1E8zUXpaxSOlmDTBl95fffn6Tc1PuusfNeDtzYq33pPI9ETUz7rxE5FUbQ8MD0OfdZJcrR/GbYPfwiRil0jszA97bn9IAw2OIQI5rr88PaDMG9e6+Bs10g60H34QwhFbj8I8xqVnvTFwdj8nLC/ZJtc7cKrQxtenazzfMmNLqQNj2rAyPQZKtqe1J9AxXX5IakYm58TdFVVNTY/R2BgYlDJlZ+E0KQAeUBX6YnpRZUMBioSWlrgSr4hlayvKIrmFqkIBitrzkFOc/rXRU6jc6PKt97TRH3WCeWUnhh8RVXVe6F46+AsdXMYtGtEG94FU8InDIuoqkpUkA0slZ7YvVCcjMJRcZVKkLaByqsf/ZdBNz/9a9ZpEK96YkCo+RALbpVvvcfHIbQcvqKqqmAmUp3ijEAFrTIsAlFAfi8Upxqxh2BDjRInoL+pp/QK+Ap1/8yokHWXzB6tbcf6FiHMRDAhcMEKMJM++mPY4IMEORO1Kn8RqgKeQd4DurRJUDHXsD2BZgoJ0t/sE62GVLIjxzKoCIELWsJX9J0X8ScXlfxFqApgoCBGgZFcp3VwNjgaLN7vp9+Cgiuj1dae/jakgqCUnnFlPMOSr+SiAl9BkIHq6ObCuAKQeYqQK5AoIhGbn0NdROin34qIhGDz8QztUnpi5CVYNXIpoz3GFVuovNY5+fruzzXSqdEIltJe9Wfn7ejjhuMK5gKGRTCukCHgc8BDmMlwvYGAN7UCD60ie/3qNdr0tnh7AwHKQ4sxelu8169eC44GhwaHkYdKYZMSVCo4GuTqMSpRvCNham3VEvgK4qHmaovnYKqq0lkL7AhUgETtxKZhEczByBAcPATCUXY2Nu1sbPK2eLe5XLQa5jaXy9vi3dnYtM3lGhoc3ufxbHO59nk8tOf61WvXr16jPXSImFHa2+IlTgTPiEpUuRCFl5haW9WQCuxoi69k46GivNY5CZPdfhCGB2CKgpEDGNBOTo7yx+bn+ASB9c3sbJjc6MMfQtSdf/otSPYlW5MT7GxsCo4Gfb5T21wu+tfv95OVCRjtHBocJjx0lEDCSygBbbPKXEhTIS959uxZ4bVVDakon3VWvvVe+qQkM6goPbHKdz3a/nc92SpT12Moc3rSdawvXRanKad/pQGJMoBK18gsna7H5udi83N0IgLJhteMWwdn74XilJ8uBNAe/aVlQCXMQ4PDMJ/f7ycn8LZ4g6NBeAYBIB9CZvIq2knes8/jIWn7PJ59Hg9y5vAVDYlyIWJtbVVjKowEzLTMBM5dOJVlysxTnPsQHCU4Ghy4eev61WvkIttcLoQmn+8UDSEEgOzu9/spyhEAogIMRJE2ER51vpKlQosTPn36NBKJLGW0z9Pa5R/ChArBavkyBQkAr58Qk6H5mEF2h62J087GJvhQcFQLejR+EEgEN4woVHxocFikkgpfSncEn0AwtbZqyXwFhoPJikcFI1DroBYkYXHq0X6/35uag12/eo3mYzy+0dKklIGMTo4FD6NBhWZu5F4EiWpZTCXtKEp32NraqmuSiuGEWDA9UPEEAhHfaT6t85UsFWtrq5aeSrEjGMZ56rY//aadbfz0W5B+SCOBDLRHvzyxsyoAAALCSURBVB8Z8ifo6OJz+0VU5ufnKXxNTU2V3biCULYOElkq1r5wWHpfMYZxrC897aaZ92edmLMpp399fffnOKpNrxdfnTMWWIRppOWKMkO90v3E2tdAS0Ala19DS6XOb7L3CHgqczeT76O0dgLE7ibo7VWgUkNNbN8JKl1lQ4Uuf6WNyG8hZxrPM+jtTns2bKrMdUhRlNd3f25g/dO/4q62cYaMAnqWNu9JUwkrjIqptVWL5yt0Po9OLZovj4vk4cAOETDIh0HTFWUuKIhXIkqGpCeWOquPKt0ilcJrqxaLSuZWmD7OmHERZnxTyfTFHsHi0GGlxiHmK9ZWLygSFcQQ0UUyXdiUsa1k0juN1iFSf8bMBITF2NRRMbu2arGoZB5wwXypGC6ip7ZoIMn4yooFsbKlonXhzFQq/9CtN7HVPRhp6CabVnXqT1JJP02KCGbVssXILyNY5hnfzJMuy7Fy+j7NckRQ2bIZ7Vd4XHmtcxIBZGlWrXzXo80Ulj070NQoxkhuRma5jSuaITKD7RKo8Jiz3GlC3ksAxQVWjlSWBEbjYWhHdsZuErPmJSsVu8iTypRK6q6+ZuhCf+knkg158FhBVyozk6s8UhdNkbmEUqbLlwpZIfWcOK770jBe+a5HA0ZPl1s1Vkogv5YMmQq/3mxVrL35y52Kva1dLdIkleKO20vrB5LKqqBidm3VIl0HK0cbLa2/L6cU8xXciwyFQit3JX85jVkzZXNQKby2qvSVIrp1mkqE34s0tbaq/MJhCahU9Fi8by+/BlpEKj3pJ48+uBG19uSR/HJuCahcGFuwvraq/Mp0seYXmq98NTKPZQljsRhdzC/w7CS9niO/yG67x6S+yD7XMx6nRdasPf2Nl6xkohgWwEuq1t6UKIYqUiYsACoIYqbeKkJ5mSiGBTgVuItcW7UYprYmk4PB2qr/D7u2GmoZJG8BAAAAAElFTkSuQmCC;" parent="1" vertex="1">
          <mxGeometry x="-154" y="309.5" width="96.16" height="208" as="geometry" />
        </mxCell>
        <mxCell id="XqAon4pbSdZR6ryQRngl-42" value="&lt;b&gt;Connected accounts&lt;/b&gt;" style="text;html=1;align=center;verticalAlign=middle;resizable=0;points=[];autosize=1;strokeColor=none;fillColor=none;fontStyle=4" parent="1" vertex="1">
          <mxGeometry x="-168" y="283.5" width="136" height="26" as="geometry" />
        </mxCell>
        <mxCell id="XqAon4pbSdZR6ryQRngl-43" value="&lt;b&gt;Active site&lt;br&gt;specific bonus&lt;br&gt;&amp;nbsp;amount&lt;/b&gt;" style="text;html=1;align=center;verticalAlign=middle;resizable=0;points=[];autosize=1;strokeColor=none;fillColor=none;fontStyle=4" parent="1" vertex="1">
          <mxGeometry x="-14.25" y="257" width="102" height="55" as="geometry" />
        </mxCell>
        <mxCell id="XqAon4pbSdZR6ryQRngl-44" value="&lt;b&gt;Current bets placed&lt;/b&gt;" style="text;html=1;align=center;verticalAlign=middle;resizable=0;points=[];autosize=1;strokeColor=none;fillColor=none;fontStyle=4" parent="1" vertex="1">
          <mxGeometry x="90" y="283.5" width="131" height="26" as="geometry" />
        </mxCell>
        <mxCell id="XqAon4pbSdZR6ryQRngl-45" value="&lt;b&gt;&lt;font style=&quot;font-size: 11px;&quot;&gt;You have 0 active bets&lt;/font&gt;&lt;/b&gt;" style="rounded=0;whiteSpace=wrap;html=1;align=left;" parent="1" vertex="1">
          <mxGeometry x="99" y="316" width="120" height="31" as="geometry" />
        </mxCell>
        <mxCell id="XqAon4pbSdZR6ryQRngl-46" value="&lt;b&gt;&lt;font style=&quot;font-size: 11px;&quot;&gt;1273,5 kr.&lt;/font&gt;&lt;/b&gt;" style="rounded=0;whiteSpace=wrap;html=1;align=left;" parent="1" vertex="1">
          <mxGeometry x="12" y="316" width="54" height="31" as="geometry" />
        </mxCell>
        <mxCell id="XqAon4pbSdZR6ryQRngl-47" value="&lt;b&gt;&lt;font style=&quot;font-size: 11px;&quot;&gt;You have &lt;font color=&quot;#0f2cbd&quot;&gt;&lt;u&gt;4 active bets&lt;/u&gt;&lt;/font&gt;&lt;/font&gt;&lt;/b&gt;" style="rounded=0;whiteSpace=wrap;html=1;align=left;" parent="1" vertex="1">
          <mxGeometry x="99" y="371" width="120" height="31" as="geometry" />
        </mxCell>
        <mxCell id="XqAon4pbSdZR6ryQRngl-48" value="&lt;b&gt;&lt;font style=&quot;font-size: 11px;&quot;&gt;41 kr.&lt;/font&gt;&lt;/b&gt;" style="rounded=0;whiteSpace=wrap;html=1;align=left;" parent="1" vertex="1">
          <mxGeometry x="12" y="371" width="51" height="31" as="geometry" />
        </mxCell>
        <mxCell id="XqAon4pbSdZR6ryQRngl-49" value="&lt;b&gt;&lt;font style=&quot;font-size: 11px;&quot;&gt;You have 0 active bets&lt;/font&gt;&lt;/b&gt;" style="rounded=0;whiteSpace=wrap;html=1;align=left;" parent="1" vertex="1">
          <mxGeometry x="101" y="428" width="120" height="31" as="geometry" />
        </mxCell>
        <mxCell id="XqAon4pbSdZR6ryQRngl-50" value="&lt;b&gt;&lt;font style=&quot;font-size: 11px;&quot;&gt;123 kr.&lt;/font&gt;&lt;/b&gt;" style="rounded=0;whiteSpace=wrap;html=1;align=left;" parent="1" vertex="1">
          <mxGeometry x="12" y="426" width="51" height="31" as="geometry" />
        </mxCell>
        <mxCell id="XqAon4pbSdZR6ryQRngl-51" value="&lt;b&gt;&lt;font style=&quot;font-size: 11px;&quot;&gt;You have &lt;font color=&quot;#1004b9&quot;&gt;&lt;u&gt;2 active bets&lt;/u&gt;&lt;/font&gt;&lt;/font&gt;&lt;/b&gt;" style="rounded=0;whiteSpace=wrap;html=1;align=left;" parent="1" vertex="1">
          <mxGeometry x="101" y="481" width="120" height="31" as="geometry" />
        </mxCell>
        <mxCell id="XqAon4pbSdZR6ryQRngl-52" value="&lt;b&gt;&lt;font style=&quot;font-size: 11px;&quot;&gt;500 kr&lt;/font&gt;&lt;/b&gt;" style="rounded=0;whiteSpace=wrap;html=1;align=left;" parent="1" vertex="1">
          <mxGeometry x="12" y="481" width="51" height="31" as="geometry" />
        </mxCell>
        <mxCell id="XqAon4pbSdZR6ryQRngl-53" value="&lt;b&gt;Connect more accounts&lt;/b&gt;" style="text;html=1;align=center;verticalAlign=middle;resizable=0;points=[];autosize=1;strokeColor=none;fillColor=none;fontStyle=4" parent="1" vertex="1">
          <mxGeometry x="-54" y="539" width="155" height="26" as="geometry" />
        </mxCell>
        <mxCell id="XqAon4pbSdZR6ryQRngl-54" value="Connect already existing accounts" style="rounded=1;fillColor=#008a00;strokeColor=#005700;html=1;whiteSpace=wrap;fontColor=#ffffff;align=center;verticalAlign=middle;fontStyle=0;fontSize=12;sketch=0;" parent="1" vertex="1">
          <mxGeometry x="-119.5" y="571" width="302" height="25" as="geometry" />
        </mxCell>
        <mxCell id="XqAon4pbSdZR6ryQRngl-55" value="Register new sites, and connect directly" style="rounded=1;fillColor=#008a00;strokeColor=#005700;html=1;whiteSpace=wrap;fontColor=#ffffff;align=center;verticalAlign=middle;fontStyle=0;fontSize=12;sketch=0;" parent="1" vertex="1">
          <mxGeometry x="-119.5" y="613" width="302" height="25" as="geometry" />
        </mxCell>
        <mxCell id="XqAon4pbSdZR6ryQRngl-56" value="" style="whiteSpace=wrap;html=1;aspect=fixed;" parent="1" vertex="1">
          <mxGeometry x="-77.25" y="2692" width="435" height="435" as="geometry" />
        </mxCell>
        <mxCell id="XqAon4pbSdZR6ryQRngl-57" value="&lt;b&gt;&lt;u&gt;&lt;font style=&quot;font-size: 20px;&quot;&gt;All sport&lt;/font&gt;&lt;/u&gt;&lt;/b&gt;" style="text;html=1;align=center;verticalAlign=middle;resizable=0;points=[];autosize=1;strokeColor=none;fillColor=none;" parent="1" vertex="1">
          <mxGeometry x="102.75" y="2713" width="99" height="36" as="geometry" />
        </mxCell>
        <mxCell id="XqAon4pbSdZR6ryQRngl-63" value="" style="rounded=1;whiteSpace=wrap;html=1;" parent="1" vertex="1">
          <mxGeometry x="-26.75" y="2792" width="358" height="130" as="geometry" />
        </mxCell>
        <mxCell id="XqAon4pbSdZR6ryQRngl-58" value="" style="shape=image;verticalLabelPosition=bottom;labelBackgroundColor=default;verticalAlign=top;aspect=fixed;imageAspect=0;image=data:image/png,iVBORw0KGgoAAAANSUhEUgAAAHkAAAAgCAIAAAC5GUAhAAAFCklEQVRoBe2a70tbVxjH+wfklW/nK98VhBAUA2HkRZC8rGRFMkYK8YUvSiAyBnVk7FVumIJmMOoutmDWBiKV2m2aal0Ic5Vu945iM4LJpI5tZSZrJXOmCcn9dZ5x93Qnd1eUq4ka8YZDOOe555yb+znffM+T3HsJzNdpEbh0WicyzwMm69MTwf9Yp54ujkwNXWaudjKDbVJqY9ZzVib6hPkRpZjbv4YN1qmni28xg5awt31KJzN4zkBTZUz07cfdYD0yNdQ+lPGTnGPWY1ZhfkQn7Qbry8xVk3Urv0YTfQey7mwzA7GEveda17Uxq8n69DbbI7DuCPWfratcFF37E4w/wTjZoEHcJ7EwF4K1kw0SQgBgOccZYe1kg+OpBO08mXbznB3L6FwvnSEQ99D4ZNptCXtpBIdgkPa/EKxtUZ8oCsjaiGCzhTwAlCtVS9jbFRmQi93aggQn024MljKuUsbFc3ZL2EuDeAiDzbCWN5aAEGXrsS6jkJ5MgyxSAyXll8LssD6484tuVJNNejqsNHI+bR7iZIPIOlvIx/gkvlvC3o5Qvz/BLOe40u5OtpAfTyUsYW+MT5YrVQAQRSFbyDvZYFdkQAud5+w9cQfSHJ3rxaMIFFmXMq6euMMW9dmiPgr6GHlI/dYV8tcLEKriSkSHSVyJKMUN8mqT7GyBVG+wlupk94Uaf7Upb6Z1o5psGmJNdU0IQeiEkPFUgnoLLgAAoHWg4RBCypUqWjx6AvINxD2jc71UuXKxm+fs6C1U15Npt9ZtkPhRPURa/QykuvJnvhZ1HIRJXImAUMU+En8H6q/Fbz45qHOTcUOsqa6Xc5yTDaJsl3NcjE+iflHdAJAt5C1hL3pIaXcHham1kVLGZYv6KFOes9N6IO4JxD3aVWnSQ5Stx6BI8vo9Un6Jyt0PS/mNA0WSfpipjVnlnx4AIUBkFYpYk5/d39+/mYgh1lTXMT5pCXuRdbaQX85xAEAIwTrS17LWOoAt6itlXKhiyhcXAzWu3Ql5zo5BrY0cSdfC7LCKeK8gfj16EGtx4UNS2yOlX+u3rtTGrOLDj5Xff5Rzj9RF+s9YmoGrG2uINdV1uVJFvgAQ45P+BIPjY3zSM3MjtDDtTzAdoX7UNSEEvwdoCJQvz9ltUR/1EBpHb5lMu2lELnYfm7W09jnIglqEqipVIivFDd3FK89Xgcjy+pwuLty9RvYKIFTExY90h5ppGmJti/rKlSrqF0W9XdxGI6Y7IU40nkp0hPpDC9No6wDgTzCIFd9LGVcg7sH0DmWOcRQ1lTMGdZZ9JF3rdj/VuJ+vSt/fJq82Jf4LVcUP3ifVEtkrCHevIUFpjZU3luRn9+WfU6qu/94W7rzXDFzdWEOsLWGvkw0iXFvUp/tF42SDnpkbul86TjZII7aoD724J+7QZh1dkYGeuCMQ91Dx0kgg7tH2PN7eiJf6xkz+zeqUPzI0LZEz86DI8sYSJaJsfffGrAGg/lpaY+mhllSMstY671nVj6Tr/XQwBaTurHaIOupTbl1PYXZY/PKDQ1IXXX/jzQvEWoi9K6/fk7791Did1va8QKxbC+4Ys5msz/o/1YpQezuiZgttVZr062MosZVDDrkvc/2meb+xlZI/7H7jQ/4rK/OOqevWSPvw++gA8CTz6PrNoTZ5MgQ/RmuunD5KcAoVI8+H6DZNs9lyAo3/r1s+tTmhjoDJWgfkBJsm6xOEq5v6H54Y0wtnFHNjAAAAAElFTkSuQmCC;" parent="1" vertex="1">
          <mxGeometry x="-20.25" y="2851.31" width="94.54" height="25" as="geometry" />
        </mxCell>
        <mxCell id="XqAon4pbSdZR6ryQRngl-59" value="" style="shape=image;verticalLabelPosition=bottom;labelBackgroundColor=default;verticalAlign=top;aspect=fixed;imageAspect=0;image=data:image/png,iVBORw0KGgoAAAANSUhEUgAAAHUAAAAhCAIAAABoeXMKAAAE4UlEQVRoBe2az2sbRxTH9Sf0n8h5bz74D/Cx0FNB4EAPFgUbcughJTlYEYSKYlwIWKWlCcS42LgOW0eqUa02wbVaV0kk14mtkG3Ubhz/aLx1bf3YaGd25k3ZPjFZb/xD3chmRXZZzBvNm7erz3znvfGuIiI8TpNA5DSDh7FFyPd0RRDyPSu+u1Vr62/zdK/29kVv6ffOUun94RuRWDY4ZzOpdNk50kNuXeDbZbeKHL4zdx6cG5oIDlm8ky6DK9Uw0uNG7PANmnK7m29SIbcuSAlHak373NDXQRNvJJbtVv0mleZIzyu+QogAwu1uvkkl5Hu6xTPkG/KVFbkLjcP1q8TzMhdHU6VoqiSbJxoJVXMPd/tHU6WEqiVULZoqHeUTiWU9XV1c347KvzndlEzLhlU2LDemY2wlnqeUJFQtp5s53fR4lg1LCAH/HWXD8nBE54SqeS7XFt/RXrb2nbAtqL0gkwPWWB/feiSAOfIBgB2NjPe749C5YajvCADHgTO2otoL14RVb8mNmPa9cbe/b/tw/eZ0EwAQsT++qNPX+SK7hKoJIeQUut0yhcr/5UvTl2BvHWEh32ZSYeWsc67NQXVbAGfFKcmIjPfD/oZglP/xC1tNsyc/2gvX6PdX+dNFtprmfy4JbsP+JrkZlUN8G8fxrTVMJZ6XfJV4PqFqmUIFuWATl3wklsWuhKqhfjEJ4GLHLgy1u2dEU6Wcbu7uGajfaKqUKVQwq6BPrWEmVE1CP/G7kelB2Fvnv9+FuiH5ylH86U8evvbdz4Rt8Y3fpI/boLc/hmb1LPgi2VrDxLWMzZxuSoIAUGuYmUIlU6hQSnK64wkAuMZzujM9OBwTDvbWGk4EjBlNlTACjsUmpSRTqLTPF+mQyQGovZB8yTdDfHMF/nkmOIPqFpkelBDtn78QjArOHMkDQH2Hzg07kl+egZ0n0Nx3Msaj29L/TYwj9UspQTUJIcqGhcJE5WYKFZSYXONlw0IiSjzv5ptQNVwECAtnSInno6kSzgdODAocr+gjPxzH16gI2xK2ZS+mJCbkC9VttjbHNx8K4KjlFt+64Xzy12Pry3flEN/GcXxxdaMAD+WLRCKxbNmwsJq1wxfDevhivlbi+U7xlUTs+xOCM67/+uoTzA/P7jWTCk1fFqQBRkX2Wl+952Rz0qDpy/JD38YJfCOxbDRVkvkBWcv8IPkmVA0AyoZVaziF0ZMf5Azh/gFLeq3hbFEwgeT0VpKJxLKd4Tvay4pTTu26PwFGRQCwFZWM93O9wNcf0PmrUN0SVt3R79aqAODPi3Ru2PFfnmGP5wV9KfOMb7I48HC+smrhusZChAXNU7hklsQh+BczgLsMYvnCXs/+V4aV5c5d3Np//uDOv2TiA7mjcDLs/gaZHqTznwj6kj8vNpOKvfh5azcGANVtmr7EilNORsaDUfZw9g3JHsdXUguC4ft7WmN9dPYimRzACHbhppOIl260Ao72UvUjzyaMTA7Q2YvWWJ/vi3oGHq7fIGCV9+C5Y99N+sOnbHnG84+G72htDnyL+LZJpLNuId8zfH72zoffylUZHKOzgjrTaJ73F+evXA8OVnknZ0qko49AD7x/E0KkF4oBlHC38n39/TEiPn/leqAodx/fo37/IItdaHScQPj7s44jPRAw5HsAR8cb/wJmBOL40kRL7QAAAABJRU5ErkJggg==;" parent="1" vertex="1">
          <mxGeometry x="87.75" y="2850.31" width="92.19" height="26" as="geometry" />
        </mxCell>
        <mxCell id="XqAon4pbSdZR6ryQRngl-60" value="" style="shape=image;verticalLabelPosition=bottom;labelBackgroundColor=default;verticalAlign=top;aspect=fixed;imageAspect=0;image=data:image/png,iVBORw0KGgoAAAANSUhEUgAAAHUAAAAdCAIAAAAbwbTcAAAGi0lEQVRoBe2a3W8TRxDA+Rss/wV+ylsUIeUhUvyCzatlqbxUQXLV8gKVeShyqzuEVMlWnYqalyDLKnLEhy4VDRRMikuDGqm01BYgFExsNbSIBuwEXGPXH/h2fbdbjnEnmzsntRxc1ZDodJrZ2d3L/HY8M85lF9/56SeBXeLmTarW1BfiyI68TQLrfG/cTnzwxTt22f3/uZrh4QG7jo+SC4f11SyeSptv4qeZ0WN77LLbJrmQryhbTaLVJrlE1TS5Z3XA4GI0HB9FxG2+3UduPzjCiVp3HlS+4WFy4TCEsMG3pr4YPbbH5B5GsUkwhepmKuyG1t7UweXbPD66zpdzbpfdPiWYKeQyhdxIZMIuuyfnlUwhl8ymHCGPNx4AE6jOqB9UZ9TvCHlA9ilBu+xOZlOg4nxvPGCX3Y6Qx2TKFHKT80rH8Uwh51OCNsk1wHzDw2a+UiLGOaeUAN/p9BznPL+ad4Q8PiUIsxlj3njAGw/ATG884Ah5wCQlYjbJlSnkwFQqF6v1BmOsWm/AMeRX82zjD5yWdZwxJiVidtn95vC1SS4rX8YY8kUyyWzKxJcx9pIpEMkUcoyxZDY1EplwRv2lchFgOUIe4JjMpnxKEC5n1G+X3d54wKcEk9kUHAaY4IzfHL522W3la4pfQEwp8SnBl9QoJRC/MC7yza/mp9NzyWyKUgLzgS/nHPlCU4FJHz4upXIRyIL17eJLKYHwxCSwWX7gnENQ4ycA4xeSSalcdIQ8YtGbTs8xxoAvVMW3Lv++DEYpEaOUYCAjX8yYgB6DFHIC1DGQS+Uilk0MXrvsFvliu9ZV/EbGtKVveUtl1adk5kAzPEyvhVjtGWfMOORny0R5X9yndfNL1vzLOGam6X/cUk951ZN79d9+5Bo1BklDu62I83uWIZLa/S/0DwDOpwShrHPOM4Uc1jdKiTPqT2ZTsBLzA6hifZtOzwEj+NSLdQxNYttnk1xWvt3UN3pFYuUVAyXnwJec2c8qT7hG9Yc39bUsZ0x/lEJG9PLHrFnhpK4vL7DnK5zpWiah3fmKM41V8tqv17laY2qVJj/FJT0LZr4jkYlqvcE5r9YbWNMBByZcZ9QPstg/WOtbqVxMZlP37i9BsE+n5zA/ZAq56fQcXJPzClLujS85f4iVV/QHC6xWBL6thRO8pepr2WZ4mMz6WaPEqmvk3HuA6RVKXX+wYIT5959x+oI9WzaOoaW2Fk40w8Na9jvOmHZ3tmesuNDMF0ocpQQMjDHohW2SC/oziF+77Ab6GL/W+gY7wD2/msf+DPMymErlIqbg7dQ3MnOAVZ+2+f4cM4L3Vcy2x5sVeulIm+/iRc65tnjR4HtF5qTOKnlWfsJJnV6RDb6vJsABIKneBPBxPT9AKHnjASj9UiIGJcgmuUYiE5PzCqRRm+TyxgOg4jeRyXnFGfVDkwcmuEuJ2EhkAiBKiZhompxXoOWAagZ7ig/tvr5tzZerNZr4ZFO+1TVWyZv5PrzZG1NxVWe+m/0tRqxFYmuF34BxEKs/CnByqIpLMD9Yn9tN/gV/NvDtkB/adc8ITyPVbswPxd/N+eGfABdh9SB35mviKPrfjbzN5aZHdOmVyNfIyPU/eUvVln/QH6WNJuHxHXJmv/4ora/c1m6d46TB1Zq2dFUv3Dfq29JVbemq0Wk8X9EWL7J6kZMGvRbq8tFbTDPzRTQogLegDk2NwwWDVnX32bGhqXG0iurus2NwgdWkwmDH+xa/vWgS+TbDw60bUa7WDPcYY5Un5PwhKGX64ztGCN+d5S0VrPpazujPTnn1/CI0IVyj2r3L4uY9y2a+6KGVL9IUBSAII4jMqqLJKgxNjYvPMuWN7vNvRwTk6w+hHTaIp08bHcIv8fbMyBj95iNy+l1xoXrKSy8dUU/uFQe3I2/FF90Gn0WsSHBoahwRg4B3K8rNRkxZ26Ruxz1xLb3+uXZ3lpzZLw72W96KL8YyOOwIeUTEdtmNKBE3sgbuAFS04hJkjflEfJwo9xtBX/fvzBcjF/00hTAQR9xWq112oxU2wUjvqOKDrEJf/e/35hv4Oo6uv0AzIQYVOP7rXWTUcR+cYLLiuCj0G0Ef9ze9vzgY2YeOmTzvyFecLM6HA3hd1j76j+8i+yNseP/GOb+WmnUcbb85FhlhwAIy0YS1yEoTV1nPBlfhVltMHlS+1vfHgPhgZJ+YKJApEvyPhcHju9n/P0Ay3rm/dgLtv++89n13NgQCfwPoPyqaDS+SeQAAAABJRU5ErkJggg==;" parent="1" vertex="1">
          <mxGeometry x="193.75" y="2852.65" width="90.01" height="22.31" as="geometry" />
        </mxCell>
        <mxCell id="XqAon4pbSdZR6ryQRngl-62" value="&lt;span&gt;Barcelona - Arsenal: 1x2&lt;/span&gt;" style="text;html=1;align=center;verticalAlign=middle;resizable=0;points=[];autosize=1;strokeColor=none;fillColor=none;fontStyle=5;fontColor=#0329bf;" parent="1" vertex="1">
          <mxGeometry x="70.75" y="2796" width="149" height="26" as="geometry" />
        </mxCell>
        <mxCell id="XqAon4pbSdZR6ryQRngl-64" value="1: Barcelona" style="text;html=1;align=center;verticalAlign=middle;resizable=0;points=[];autosize=1;strokeColor=none;fillColor=none;fontStyle=1;fontSize=9;" parent="1" vertex="1">
          <mxGeometry x="-11.25" y="2833" width="69" height="23" as="geometry" />
        </mxCell>
        <mxCell id="XqAon4pbSdZR6ryQRngl-65" value="x: Draw" style="text;html=1;align=center;verticalAlign=middle;resizable=0;points=[];autosize=1;strokeColor=none;fillColor=none;fontStyle=1;fontSize=9;" parent="1" vertex="1">
          <mxGeometry x="109.35000000000002" y="2833" width="49" height="23" as="geometry" />
        </mxCell>
        <mxCell id="XqAon4pbSdZR6ryQRngl-66" value="2: Unibet" style="text;html=1;align=center;verticalAlign=middle;resizable=0;points=[];autosize=1;strokeColor=none;fillColor=none;fontStyle=1;fontSize=9;" parent="1" vertex="1">
          <mxGeometry x="208.75" y="2833" width="54" height="23" as="geometry" />
        </mxCell>
        <mxCell id="XqAon4pbSdZR6ryQRngl-67" value="" style="rounded=1;whiteSpace=wrap;html=1;" parent="1" vertex="1">
          <mxGeometry x="-26.75" y="2945" width="358" height="119" as="geometry" />
        </mxCell>
        <mxCell id="XqAon4pbSdZR6ryQRngl-68" value="" style="shape=image;verticalLabelPosition=bottom;labelBackgroundColor=default;verticalAlign=top;aspect=fixed;imageAspect=0;image=data:image/png,iVBORw0KGgoAAAANSUhEUgAAAHkAAAAgCAIAAAC5GUAhAAAFCklEQVRoBe2a70tbVxjH+wfklW/nK98VhBAUA2HkRZC8rGRFMkYK8YUvSiAyBnVk7FVumIJmMOoutmDWBiKV2m2aal0Ic5Vu945iM4LJpI5tZSZrJXOmCcn9dZ5x93Qnd1eUq4ka8YZDOOe555yb+znffM+T3HsJzNdpEbh0WicyzwMm69MTwf9Yp54ujkwNXWaudjKDbVJqY9ZzVib6hPkRpZjbv4YN1qmni28xg5awt31KJzN4zkBTZUz07cfdYD0yNdQ+lPGTnGPWY1ZhfkQn7Qbry8xVk3Urv0YTfQey7mwzA7GEveda17Uxq8n69DbbI7DuCPWfratcFF37E4w/wTjZoEHcJ7EwF4K1kw0SQgBgOccZYe1kg+OpBO08mXbznB3L6FwvnSEQ99D4ZNptCXtpBIdgkPa/EKxtUZ8oCsjaiGCzhTwAlCtVS9jbFRmQi93aggQn024MljKuUsbFc3ZL2EuDeAiDzbCWN5aAEGXrsS6jkJ5MgyxSAyXll8LssD6484tuVJNNejqsNHI+bR7iZIPIOlvIx/gkvlvC3o5Qvz/BLOe40u5OtpAfTyUsYW+MT5YrVQAQRSFbyDvZYFdkQAud5+w9cQfSHJ3rxaMIFFmXMq6euMMW9dmiPgr6GHlI/dYV8tcLEKriSkSHSVyJKMUN8mqT7GyBVG+wlupk94Uaf7Upb6Z1o5psGmJNdU0IQeiEkPFUgnoLLgAAoHWg4RBCypUqWjx6AvINxD2jc71UuXKxm+fs6C1U15Npt9ZtkPhRPURa/QykuvJnvhZ1HIRJXImAUMU+En8H6q/Fbz45qHOTcUOsqa6Xc5yTDaJsl3NcjE+iflHdAJAt5C1hL3pIaXcHham1kVLGZYv6KFOes9N6IO4JxD3aVWnSQ5Stx6BI8vo9Un6Jyt0PS/mNA0WSfpipjVnlnx4AIUBkFYpYk5/d39+/mYgh1lTXMT5pCXuRdbaQX85xAEAIwTrS17LWOoAt6itlXKhiyhcXAzWu3Ql5zo5BrY0cSdfC7LCKeK8gfj16EGtx4UNS2yOlX+u3rtTGrOLDj5Xff5Rzj9RF+s9YmoGrG2uINdV1uVJFvgAQ45P+BIPjY3zSM3MjtDDtTzAdoX7UNSEEvwdoCJQvz9ltUR/1EBpHb5lMu2lELnYfm7W09jnIglqEqipVIivFDd3FK89Xgcjy+pwuLty9RvYKIFTExY90h5ppGmJti/rKlSrqF0W9XdxGI6Y7IU40nkp0hPpDC9No6wDgTzCIFd9LGVcg7sH0DmWOcRQ1lTMGdZZ9JF3rdj/VuJ+vSt/fJq82Jf4LVcUP3ifVEtkrCHevIUFpjZU3luRn9+WfU6qu/94W7rzXDFzdWEOsLWGvkw0iXFvUp/tF42SDnpkbul86TjZII7aoD724J+7QZh1dkYGeuCMQ91Dx0kgg7tH2PN7eiJf6xkz+zeqUPzI0LZEz86DI8sYSJaJsfffGrAGg/lpaY+mhllSMstY671nVj6Tr/XQwBaTurHaIOupTbl1PYXZY/PKDQ1IXXX/jzQvEWoi9K6/fk7791Did1va8QKxbC+4Ys5msz/o/1YpQezuiZgttVZr062MosZVDDrkvc/2meb+xlZI/7H7jQ/4rK/OOqevWSPvw++gA8CTz6PrNoTZ5MgQ/RmuunD5KcAoVI8+H6DZNs9lyAo3/r1s+tTmhjoDJWgfkBJsm6xOEq5v6H54Y0wtnFHNjAAAAAElFTkSuQmCC;" parent="1" vertex="1">
          <mxGeometry x="25.75" y="3004.31" width="94.54" height="25" as="geometry" />
        </mxCell>
        <mxCell id="XqAon4pbSdZR6ryQRngl-71" value="&lt;span&gt;Holger Rune - David Goffin&lt;/span&gt;" style="text;html=1;align=center;verticalAlign=middle;resizable=0;points=[];autosize=1;strokeColor=none;fillColor=none;fontStyle=5;fontColor=#0329bf;" parent="1" vertex="1">
          <mxGeometry x="64.75" y="2949" width="162" height="26" as="geometry" />
        </mxCell>
        <mxCell id="XqAon4pbSdZR6ryQRngl-72" value="1: Holger Rune" style="text;html=1;align=center;verticalAlign=middle;resizable=0;points=[];autosize=1;strokeColor=none;fillColor=none;fontStyle=1;fontSize=9;" parent="1" vertex="1">
          <mxGeometry x="29.75" y="2986" width="79" height="23" as="geometry" />
        </mxCell>
        <mxCell id="XqAon4pbSdZR6ryQRngl-74" value="2: David Goffin" style="text;html=1;align=center;verticalAlign=middle;resizable=0;points=[];autosize=1;strokeColor=none;fillColor=none;fontStyle=1;fontSize=9;" parent="1" vertex="1">
          <mxGeometry x="176.74" y="2986" width="77" height="23" as="geometry" />
        </mxCell>
        <mxCell id="XqAon4pbSdZR6ryQRngl-75" value="" style="shape=image;verticalLabelPosition=bottom;labelBackgroundColor=default;verticalAlign=top;aspect=fixed;imageAspect=0;image=data:image/png,iVBORw0KGgoAAAANSUhEUgAAABoAAAAXCAIAAACatshHAAADFUlEQVRIDc3UwUvqcBwA8Pc/jboZhZckoi6SdI+6eOjYIehWEijiYWyS5UUbES2nzSmyhNEOSTNWB4nGGOi0EUvWLOf0+6DBWmaPd3iH9z2M/X7f7z77Tr/bL/in8evPmmVZnU7n7iM6nY5lWX+u/5Frt9skSeI4Ho/Hd3d3I5FINBrFMIwkyXa7/RM6gbNtu1qtEgQhy/JgMLi4uJifn0cQxOfzLS4uRqNRgiCq1apt29/Rcc62bZqmy+Vyv993qi3LKhQKmqYBgG3bDMMIglAul2ma/i6OcxzHHRwc6Lru3llV1XK57C57vd75+bkkSTRNcxzn7jsnX7hWq5VKpWKx2Gg0cusEQbi/v3eXAPD6+looFGRZPjs7a7Va3tQX7vLycmdnB0XRXq8HAC8vL/F4fHl5uVarea8BgEwm4/f7cRxnWdab+uRM08xmsziOPz09URS1v7/v8/mQjwgGg94u3t/fw+EwgiDBYDCbzZqm6YqfnKqqJycn3W4XADRNW1paciznuL6+fn19LQgCwzA4js/MzCAIMjs7i2GYqqoTOEVRGIZxErquh0IhLxcIBARB6Ha7tm0PBoOtrS0EQebm5lKplKIok7lisegkTNPc2Njwcul02r0GABRFWVhY8Pv9h4eHkzld1ymKent7c+Zrc3PT5UKh0PPzs5fr9/soit7e3lIU5Z2qz9/Osqx8Pt9sNgGg0WjwPK/rOs/zsVgMRdGxiW00GldXV81mM5/Pe1/kTw4A6vV6MpkURbFSqThtOh3xPH93d+d2Z9t2qVTSNI1l2Xq97u4DwBfOMIxMJrO2tlapVLxFhmEUi0XDMJzNx8dHjuNkWT49PXU3ndQXDgBkWU4mk9vb295pAoBarXZ0dESS5N7eXjgcvrm5cb4R3ruOd+fkRFFEUTSRSLAs+/DwYBjGaDRKp9PT09POn7O6uophmCiKY9ZkDgBUVSUIgiRJnudLpVIikQgEAlNTUysrK5FI5Pj42Du6XnT8Yd3ccDiUJCmXyx1+xMFH5HI5SZKGw6FbNnbyIzdW95fL/5v7DU1wECrO9BGrAAAAAElFTkSuQmCC;" parent="1" vertex="1">
          <mxGeometry x="50.75" y="2800.15" width="20" height="17.7" as="geometry" />
        </mxCell>
        <mxCell id="XqAon4pbSdZR6ryQRngl-76" value="" style="shape=image;verticalLabelPosition=bottom;labelBackgroundColor=default;verticalAlign=top;aspect=fixed;imageAspect=0;image=data:image/png,iVBORw0KGgoAAAANSUhEUgAAABkAAAAaCAIAAADNH2CaAAACVUlEQVRIDeWUvWsUQRjGc9jYhCT+C2nEwuI0oJ2kU9BC0CKNmCqgSZnSIqBwmEaIEZGrUlwfgxaxSpMiIAi5LCS73leyX7NfN/u9OzOv6HnD3N4amxSCyxbPPu/7/Jh9d2Yn4OKuiYtDwf/OsoI3ON7Jqap6z5rqJUmfVtANK1j/04jL5+VGW8fG7KFaccI6g9wJ64fqxPCuHBuzbrQ1TixhIb8maVODZMuaz0iXUFf1loasn1BJm0J+rYArspywLukzYkz1lgh1c2qceYuiL+nTdvhOxI2wKPM79j0xMNCm/5KxOCO9tn1XrCroJmWY40ZYON4+9Z6K3Vwjv/YL1xZxTe0y8l+Vs4L0i9p/zvMF4YQfGEtxvC36HedBOSvJm1awLraK+kibjLOvOTU6zn3un5jXSliU4ZTIONnhfePCCd9TFul4lZdOzKt8ZCPzSomckbaCbvHWgjD9Ncqw6a9xv3xdAOAnnxnkdrDBWwvCDjYoiwz8gvsyqpa8IwBYweuMnGak27LmebcownSPULvrPBqalTNvsZzlRQ07fMtYGiS7R9rkMPD79Gj9FcqCMN3jvqRf8aJGOQsAeu6TINkFoFF20LLu8JiOVwl1CHWE3V/pOo85CGDsX5jkze/oNk4+MsgZ5ClR4uxbTg0ARqit9Vc4XTavJ3nzPBYAROm+gua6zkM/+ZRTnTKckZ4XNYTvW1HQXJTui6CSdQ3KlGG1v1w45IMVSfqM2l/me0rEjewvsQAAlGE73Oy5CzKqyqjacxfscLOUMgiexyqg//r4r7J+AH8ToluBTb9qAAAAAElFTkSuQmCC;" parent="1" vertex="1">
          <mxGeometry x="45.75" y="2952.12" width="19" height="19.76" as="geometry" />
        </mxCell>
        <mxCell id="XqAon4pbSdZR6ryQRngl-77" value="" style="shape=image;verticalLabelPosition=bottom;labelBackgroundColor=default;verticalAlign=top;aspect=fixed;imageAspect=0;image=data:image/png,iVBORw0KGgoAAAANSUhEUgAAAHUAAAAhCAIAAABoeXMKAAAE4UlEQVRoBe2az2sbRxTH9Sf0n8h5bz74D/Cx0FNB4EAPFgUbcughJTlYEYSKYlwIWKWlCcS42LgOW0eqUa02wbVaV0kk14mtkG3Ubhz/aLx1bf3YaGd25k3ZPjFZb/xD3chmRXZZzBvNm7erz3znvfGuIiI8TpNA5DSDh7FFyPd0RRDyPSu+u1Vr62/zdK/29kVv6ffOUun94RuRWDY4ZzOpdNk50kNuXeDbZbeKHL4zdx6cG5oIDlm8ky6DK9Uw0uNG7PANmnK7m29SIbcuSAlHak373NDXQRNvJJbtVv0mleZIzyu+QogAwu1uvkkl5Hu6xTPkG/KVFbkLjcP1q8TzMhdHU6VoqiSbJxoJVXMPd/tHU6WEqiVULZoqHeUTiWU9XV1c347KvzndlEzLhlU2LDemY2wlnqeUJFQtp5s53fR4lg1LCAH/HWXD8nBE54SqeS7XFt/RXrb2nbAtqL0gkwPWWB/feiSAOfIBgB2NjPe749C5YajvCADHgTO2otoL14RVb8mNmPa9cbe/b/tw/eZ0EwAQsT++qNPX+SK7hKoJIeQUut0yhcr/5UvTl2BvHWEh32ZSYeWsc67NQXVbAGfFKcmIjPfD/oZglP/xC1tNsyc/2gvX6PdX+dNFtprmfy4JbsP+JrkZlUN8G8fxrTVMJZ6XfJV4PqFqmUIFuWATl3wklsWuhKqhfjEJ4GLHLgy1u2dEU6Wcbu7uGajfaKqUKVQwq6BPrWEmVE1CP/G7kelB2Fvnv9+FuiH5ylH86U8evvbdz4Rt8Y3fpI/boLc/hmb1LPgi2VrDxLWMzZxuSoIAUGuYmUIlU6hQSnK64wkAuMZzujM9OBwTDvbWGk4EjBlNlTACjsUmpSRTqLTPF+mQyQGovZB8yTdDfHMF/nkmOIPqFpkelBDtn78QjArOHMkDQH2Hzg07kl+egZ0n0Nx3Msaj29L/TYwj9UspQTUJIcqGhcJE5WYKFZSYXONlw0IiSjzv5ptQNVwECAtnSInno6kSzgdODAocr+gjPxzH16gI2xK2ZS+mJCbkC9VttjbHNx8K4KjlFt+64Xzy12Pry3flEN/GcXxxdaMAD+WLRCKxbNmwsJq1wxfDevhivlbi+U7xlUTs+xOCM67/+uoTzA/P7jWTCk1fFqQBRkX2Wl+952Rz0qDpy/JD38YJfCOxbDRVkvkBWcv8IPkmVA0AyoZVaziF0ZMf5Azh/gFLeq3hbFEwgeT0VpKJxLKd4Tvay4pTTu26PwFGRQCwFZWM93O9wNcf0PmrUN0SVt3R79aqAODPi3Ru2PFfnmGP5wV9KfOMb7I48HC+smrhusZChAXNU7hklsQh+BczgLsMYvnCXs/+V4aV5c5d3Np//uDOv2TiA7mjcDLs/gaZHqTznwj6kj8vNpOKvfh5azcGANVtmr7EilNORsaDUfZw9g3JHsdXUguC4ft7WmN9dPYimRzACHbhppOIl260Ao72UvUjzyaMTA7Q2YvWWJ/vi3oGHq7fIGCV9+C5Y99N+sOnbHnG84+G72htDnyL+LZJpLNuId8zfH72zoffylUZHKOzgjrTaJ73F+evXA8OVnknZ0qko49AD7x/E0KkF4oBlHC38n39/TEiPn/leqAodx/fo37/IItdaHScQPj7s44jPRAw5HsAR8cb/wJmBOL40kRL7QAAAABJRU5ErkJggg==;" parent="1" vertex="1">
          <mxGeometry x="173.75" y="3003.31" width="92.19" height="26" as="geometry" />
        </mxCell>
        <mxCell id="XqAon4pbSdZR6ryQRngl-78" value="" style="whiteSpace=wrap;html=1;aspect=fixed;" parent="1" vertex="1">
          <mxGeometry x="-146.75" y="1901" width="498" height="498" as="geometry" />
        </mxCell>
        <mxCell id="XqAon4pbSdZR6ryQRngl-79" value="&lt;span style=&quot;font-size: 20px;&quot;&gt;&lt;b&gt;&lt;u&gt;Betting navigation&lt;/u&gt;&lt;/b&gt;&lt;/span&gt;" style="text;html=1;align=center;verticalAlign=middle;resizable=0;points=[];autosize=1;strokeColor=none;fillColor=none;" parent="1" vertex="1">
          <mxGeometry x="-39.25" y="1909" width="192" height="36" as="geometry" />
        </mxCell>
        <mxCell id="XqAon4pbSdZR6ryQRngl-80" value="Go to All sport bets" style="rounded=1;fillColor=#0057D8;strokeColor=none;html=1;whiteSpace=wrap;fontColor=#ffffff;align=center;verticalAlign=middle;fontStyle=0;fontSize=12;sketch=0;" parent="1" vertex="1">
          <mxGeometry x="-21" y="1976" width="155.5" height="25" as="geometry" />
        </mxCell>
        <mxCell id="XqAon4pbSdZR6ryQRngl-81" value="Go to highest paying bets" style="rounded=1;fillColor=#0057D8;strokeColor=none;html=1;whiteSpace=wrap;fontColor=#ffffff;align=center;verticalAlign=middle;fontStyle=0;fontSize=12;sketch=0;" parent="1" vertex="1">
          <mxGeometry x="-21" y="2036.65" width="155.5" height="25" as="geometry" />
        </mxCell>
        <mxCell id="XqAon4pbSdZR6ryQRngl-82" value="Go to bets with lowets combined loss" style="rounded=1;fillColor=#0057D8;strokeColor=none;html=1;whiteSpace=wrap;fontColor=#ffffff;align=center;verticalAlign=middle;fontStyle=0;fontSize=12;sketch=0;" parent="1" vertex="1">
          <mxGeometry x="-21" y="2092" width="155.5" height="31" as="geometry" />
        </mxCell>
        <mxCell id="XqAon4pbSdZR6ryQRngl-83" value="Go to community favourite bets" style="rounded=1;fillColor=#0057D8;strokeColor=none;html=1;whiteSpace=wrap;fontColor=#ffffff;align=center;verticalAlign=middle;fontStyle=0;fontSize=12;sketch=0;" parent="1" vertex="1">
          <mxGeometry x="-21" y="2151" width="155.5" height="31" as="geometry" />
        </mxCell>
        <mxCell id="XqAon4pbSdZR6ryQRngl-85" value="&lt;i&gt;&lt;font color=&quot;#03459b&quot;&gt;See bets for all sites&lt;/font&gt;&lt;/i&gt;" style="text;html=1;align=center;verticalAlign=middle;resizable=0;points=[];autosize=1;strokeColor=none;fillColor=none;fontStyle=0;fontSize=9;" parent="1" vertex="1">
          <mxGeometry x="90.75" y="2887" width="99" height="23" as="geometry" />
        </mxCell>
        <mxCell id="XqAon4pbSdZR6ryQRngl-86" value="&lt;i&gt;&lt;font color=&quot;#03459b&quot;&gt;See bets for all sites&lt;/font&gt;&lt;/i&gt;" style="text;html=1;align=center;verticalAlign=middle;resizable=0;points=[];autosize=1;strokeColor=none;fillColor=none;fontStyle=0;fontSize=9;" parent="1" vertex="1">
          <mxGeometry x="96.25" y="3035" width="99" height="23" as="geometry" />
        </mxCell>
        <mxCell id="XqAon4pbSdZR6ryQRngl-87" value="* Form is saved to primary browser. &lt;br&gt;&amp;nbsp; So it can autofill the native forms of the website" style="text;html=1;align=left;verticalAlign=middle;resizable=0;points=[];autosize=1;strokeColor=none;fillColor=none;fontStyle=2" parent="1" vertex="1">
          <mxGeometry x="122" y="1284" width="275" height="41" as="geometry" />
        </mxCell>
        <mxCell id="XqAon4pbSdZR6ryQRngl-88" value="" style="whiteSpace=wrap;html=1;aspect=fixed;" parent="1" vertex="1">
          <mxGeometry x="-85.75" y="3396" width="435" height="435" as="geometry" />
        </mxCell>
        <mxCell id="XqAon4pbSdZR6ryQRngl-89" value="&lt;b&gt;&lt;u&gt;&lt;font style=&quot;font-size: 20px;&quot;&gt;Bets-børsen&lt;/font&gt;&lt;/u&gt;&lt;/b&gt;" style="text;html=1;align=center;verticalAlign=middle;resizable=0;points=[];autosize=1;strokeColor=none;fillColor=none;" parent="1" vertex="1">
          <mxGeometry x="76.25" y="3417" width="135" height="36" as="geometry" />
        </mxCell>
        <mxCell id="XqAon4pbSdZR6ryQRngl-90" value="" style="rounded=1;whiteSpace=wrap;html=1;" parent="1" vertex="1">
          <mxGeometry x="-35.25" y="3496" width="337.5" height="182" as="geometry" />
        </mxCell>
        <mxCell id="XqAon4pbSdZR6ryQRngl-94" value="&lt;span&gt;Barcelona - Arsenal: 1x2&lt;/span&gt;" style="text;html=1;align=center;verticalAlign=middle;resizable=0;points=[];autosize=1;strokeColor=none;fillColor=none;fontStyle=5;fontColor=#0329bf;" parent="1" vertex="1">
          <mxGeometry x="62.25" y="3500" width="149" height="26" as="geometry" />
        </mxCell>
        <mxCell id="XqAon4pbSdZR6ryQRngl-95" value="1: Barcelona" style="text;html=1;align=center;verticalAlign=middle;resizable=0;points=[];autosize=1;strokeColor=none;fillColor=none;fontStyle=1;fontSize=9;" parent="1" vertex="1">
          <mxGeometry x="-23.75" y="3567" width="69" height="23" as="geometry" />
        </mxCell>
        <mxCell id="XqAon4pbSdZR6ryQRngl-96" value="x: Draw" style="text;html=1;align=center;verticalAlign=middle;resizable=0;points=[];autosize=1;strokeColor=none;fillColor=none;fontStyle=1;fontSize=9;" parent="1" vertex="1">
          <mxGeometry x="96.85000000000002" y="3567" width="49" height="23" as="geometry" />
        </mxCell>
        <mxCell id="XqAon4pbSdZR6ryQRngl-97" value="2: Unibet" style="text;html=1;align=center;verticalAlign=middle;resizable=0;points=[];autosize=1;strokeColor=none;fillColor=none;fontStyle=1;fontSize=9;" parent="1" vertex="1">
          <mxGeometry x="196.25" y="3567" width="54" height="23" as="geometry" />
        </mxCell>
        <mxCell id="XqAon4pbSdZR6ryQRngl-103" value="" style="shape=image;verticalLabelPosition=bottom;labelBackgroundColor=default;verticalAlign=top;aspect=fixed;imageAspect=0;image=data:image/png,iVBORw0KGgoAAAANSUhEUgAAABoAAAAXCAIAAACatshHAAADFUlEQVRIDc3UwUvqcBwA8Pc/jboZhZckoi6SdI+6eOjYIehWEijiYWyS5UUbES2nzSmyhNEOSTNWB4nGGOi0EUvWLOf0+6DBWmaPd3iH9z2M/X7f7z77Tr/bL/in8evPmmVZnU7n7iM6nY5lWX+u/5Frt9skSeI4Ho/Hd3d3I5FINBrFMIwkyXa7/RM6gbNtu1qtEgQhy/JgMLi4uJifn0cQxOfzLS4uRqNRgiCq1apt29/Rcc62bZqmy+Vyv993qi3LKhQKmqYBgG3bDMMIglAul2ma/i6OcxzHHRwc6Lru3llV1XK57C57vd75+bkkSTRNcxzn7jsnX7hWq5VKpWKx2Gg0cusEQbi/v3eXAPD6+looFGRZPjs7a7Va3tQX7vLycmdnB0XRXq8HAC8vL/F4fHl5uVarea8BgEwm4/f7cRxnWdab+uRM08xmsziOPz09URS1v7/v8/mQjwgGg94u3t/fw+EwgiDBYDCbzZqm6YqfnKqqJycn3W4XADRNW1paciznuL6+fn19LQgCwzA4js/MzCAIMjs7i2GYqqoTOEVRGIZxErquh0IhLxcIBARB6Ha7tm0PBoOtrS0EQebm5lKplKIok7lisegkTNPc2Njwcul02r0GABRFWVhY8Pv9h4eHkzld1ymKent7c+Zrc3PT5UKh0PPzs5fr9/soit7e3lIU5Z2qz9/Osqx8Pt9sNgGg0WjwPK/rOs/zsVgMRdGxiW00GldXV81mM5/Pe1/kTw4A6vV6MpkURbFSqThtOh3xPH93d+d2Z9t2qVTSNI1l2Xq97u4DwBfOMIxMJrO2tlapVLxFhmEUi0XDMJzNx8dHjuNkWT49PXU3ndQXDgBkWU4mk9vb295pAoBarXZ0dESS5N7eXjgcvrm5cb4R3ruOd+fkRFFEUTSRSLAs+/DwYBjGaDRKp9PT09POn7O6uophmCiKY9ZkDgBUVSUIgiRJnudLpVIikQgEAlNTUysrK5FI5Pj42Du6XnT8Yd3ccDiUJCmXyx1+xMFH5HI5SZKGw6FbNnbyIzdW95fL/5v7DU1wECrO9BGrAAAAAElFTkSuQmCC;" parent="1" vertex="1">
          <mxGeometry x="42.25" y="3504.1499999999996" width="20" height="17.7" as="geometry" />
        </mxCell>
        <mxCell id="XqAon4pbSdZR6ryQRngl-108" value="Go To BetsBørsen" style="rounded=1;fillColor=#0057D8;strokeColor=none;html=1;whiteSpace=wrap;fontColor=#ffffff;align=center;verticalAlign=middle;fontStyle=0;fontSize=12;sketch=0;" parent="1" vertex="1">
          <mxGeometry x="-21" y="2209.81" width="155.5" height="31" as="geometry" />
        </mxCell>
        <mxCell id="XqAon4pbSdZR6ryQRngl-110" value="&lt;u&gt;Automatically place bets on best site, if odds exceeds X&lt;/u&gt;" style="text;html=1;align=center;verticalAlign=middle;resizable=0;points=[];autosize=1;strokeColor=none;fillColor=none;" parent="1" vertex="1">
          <mxGeometry x="-19.75" y="3531" width="314" height="26" as="geometry" />
        </mxCell>
        <mxCell id="XqAon4pbSdZR6ryQRngl-111" value="&lt;i&gt;&lt;font style=&quot;font-size: 8px;&quot;&gt;Number-input&lt;/font&gt;&lt;/i&gt;" style="rounded=0;whiteSpace=wrap;html=1;" parent="1" vertex="1">
          <mxGeometry x="-18.75" y="3589.5" width="67.5" height="20" as="geometry" />
        </mxCell>
        <mxCell id="XqAon4pbSdZR6ryQRngl-112" value="&lt;i&gt;&lt;font style=&quot;font-size: 8px;&quot;&gt;Number-input&lt;/font&gt;&lt;/i&gt;" style="rounded=0;whiteSpace=wrap;html=1;" parent="1" vertex="1">
          <mxGeometry x="87.60000000000002" y="3591" width="67.5" height="20" as="geometry" />
        </mxCell>
        <mxCell id="XqAon4pbSdZR6ryQRngl-113" value="&lt;i&gt;&lt;font style=&quot;font-size: 8px;&quot;&gt;Number-input&lt;/font&gt;&lt;/i&gt;" style="rounded=0;whiteSpace=wrap;html=1;" parent="1" vertex="1">
          <mxGeometry x="196.25" y="3591" width="67.5" height="20" as="geometry" />
        </mxCell>
        <mxCell id="XqAon4pbSdZR6ryQRngl-114" value="Add to autobuy" style="rounded=1;fillColor=#008a00;strokeColor=#005700;html=1;whiteSpace=wrap;fontColor=#ffffff;align=center;verticalAlign=middle;fontStyle=0;fontSize=12;sketch=0;" parent="1" vertex="1">
          <mxGeometry x="48.749999999999886" y="3639" width="145.9" height="25" as="geometry" />
        </mxCell>
        <mxCell id="sHa-jKXvXCzea2u_n5KB-1" value="" style="html=1;shadow=0;dashed=0;shape=mxgraph.bootstrap.checkbox2;labelPosition=right;verticalLabelPosition=middle;align=left;verticalAlign=middle;gradientColor=#DEDEDE;fillColor=#EDEDED;checked=0;spacing=5;checkedFill=#0085FC;checkedStroke=#ffffff;sketch=0;" parent="1" vertex="1">
          <mxGeometry x="-21.25" y="2761" width="10" height="10" as="geometry" />
        </mxCell>
        <mxCell id="sHa-jKXvXCzea2u_n5KB-2" value="&lt;i&gt;Toggle community-bets&lt;/i&gt;" style="text;html=1;align=center;verticalAlign=middle;resizable=0;points=[];autosize=1;strokeColor=none;fillColor=none;" parent="1" vertex="1">
          <mxGeometry x="-15.75" y="2753" width="142" height="26" as="geometry" />
        </mxCell>
        <mxCell id="sHa-jKXvXCzea2u_n5KB-3" value="Go To Community-Bets" style="rounded=1;fillColor=#0057D8;strokeColor=none;html=1;whiteSpace=wrap;fontColor=#ffffff;align=center;verticalAlign=middle;fontStyle=0;fontSize=12;sketch=0;" parent="1" vertex="1">
          <mxGeometry x="-20.75" y="2267" width="155.5" height="31" as="geometry" />
        </mxCell>
        <mxCell id="sHa-jKXvXCzea2u_n5KB-5" value="" style="whiteSpace=wrap;html=1;aspect=fixed;" parent="1" vertex="1">
          <mxGeometry x="-82.75" y="4108" width="435" height="435" as="geometry" />
        </mxCell>
        <mxCell id="sHa-jKXvXCzea2u_n5KB-6" value="&lt;b&gt;&lt;u&gt;&lt;font style=&quot;font-size: 20px;&quot;&gt;Create community-bet&lt;/font&gt;&lt;/u&gt;&lt;/b&gt;" style="text;html=1;align=center;verticalAlign=middle;resizable=0;points=[];autosize=1;strokeColor=none;fillColor=none;" parent="1" vertex="1">
          <mxGeometry x="29.25" y="4117" width="229" height="36" as="geometry" />
        </mxCell>
        <mxCell id="sHa-jKXvXCzea2u_n5KB-15" value="" style="rounded=1;whiteSpace=wrap;html=1;" parent="1" vertex="1">
          <mxGeometry x="-38.75" y="4229" width="358" height="175" as="geometry" />
        </mxCell>
        <mxCell id="sHa-jKXvXCzea2u_n5KB-17" value="&lt;span&gt;Holger Rune - David Goffin&lt;/span&gt;" style="text;html=1;align=center;verticalAlign=middle;resizable=0;points=[];autosize=1;strokeColor=none;fillColor=none;fontStyle=5;fontColor=#0329bf;" parent="1" vertex="1">
          <mxGeometry x="52.75" y="4233" width="162" height="26" as="geometry" />
        </mxCell>
        <mxCell id="sHa-jKXvXCzea2u_n5KB-18" value="1: Holger Rune" style="text;html=1;align=center;verticalAlign=middle;resizable=0;points=[];autosize=1;strokeColor=none;fillColor=none;fontStyle=1;fontSize=9;" parent="1" vertex="1">
          <mxGeometry x="17.75" y="4270" width="79" height="23" as="geometry" />
        </mxCell>
        <mxCell id="sHa-jKXvXCzea2u_n5KB-19" value="2: David Goffin" style="text;html=1;align=center;verticalAlign=middle;resizable=0;points=[];autosize=1;strokeColor=none;fillColor=none;fontStyle=1;fontSize=9;" parent="1" vertex="1">
          <mxGeometry x="164.74" y="4270" width="77" height="23" as="geometry" />
        </mxCell>
        <mxCell id="sHa-jKXvXCzea2u_n5KB-21" value="" style="shape=image;verticalLabelPosition=bottom;labelBackgroundColor=default;verticalAlign=top;aspect=fixed;imageAspect=0;image=data:image/png,iVBORw0KGgoAAAANSUhEUgAAABkAAAAaCAIAAADNH2CaAAACVUlEQVRIDeWUvWsUQRjGc9jYhCT+C2nEwuI0oJ2kU9BC0CKNmCqgSZnSIqBwmEaIEZGrUlwfgxaxSpMiIAi5LCS73leyX7NfN/u9OzOv6HnD3N4amxSCyxbPPu/7/Jh9d2Yn4OKuiYtDwf/OsoI3ON7Jqap6z5rqJUmfVtANK1j/04jL5+VGW8fG7KFaccI6g9wJ64fqxPCuHBuzbrQ1TixhIb8maVODZMuaz0iXUFf1loasn1BJm0J+rYArspywLukzYkz1lgh1c2qceYuiL+nTdvhOxI2wKPM79j0xMNCm/5KxOCO9tn1XrCroJmWY40ZYON4+9Z6K3Vwjv/YL1xZxTe0y8l+Vs4L0i9p/zvMF4YQfGEtxvC36HedBOSvJm1awLraK+kibjLOvOTU6zn3un5jXSliU4ZTIONnhfePCCd9TFul4lZdOzKt8ZCPzSomckbaCbvHWgjD9Ncqw6a9xv3xdAOAnnxnkdrDBWwvCDjYoiwz8gvsyqpa8IwBYweuMnGak27LmebcownSPULvrPBqalTNvsZzlRQ07fMtYGiS7R9rkMPD79Gj9FcqCMN3jvqRf8aJGOQsAeu6TINkFoFF20LLu8JiOVwl1CHWE3V/pOo85CGDsX5jkze/oNk4+MsgZ5ClR4uxbTg0ARqit9Vc4XTavJ3nzPBYAROm+gua6zkM/+ZRTnTKckZ4XNYTvW1HQXJTui6CSdQ3KlGG1v1w45IMVSfqM2l/me0rEjewvsQAAlGE73Oy5CzKqyqjacxfscLOUMgiexyqg//r4r7J+AH8ToluBTb9qAAAAAElFTkSuQmCC;" parent="1" vertex="1">
          <mxGeometry x="33.75" y="4236.12" width="19" height="19.76" as="geometry" />
        </mxCell>
        <mxCell id="sHa-jKXvXCzea2u_n5KB-26" value="&lt;i&gt;Community-bets must be greater than odds given by any vendor&lt;/i&gt;" style="text;html=1;align=center;verticalAlign=middle;resizable=0;points=[];autosize=1;strokeColor=none;fillColor=none;" parent="1" vertex="1">
          <mxGeometry x="-48.25" y="4163" width="360" height="26" as="geometry" />
        </mxCell>
        <mxCell id="sHa-jKXvXCzea2u_n5KB-30" value="&lt;i&gt;&lt;font style=&quot;font-size: 8px;&quot;&gt;Number-input&lt;/font&gt;&lt;/i&gt;" style="rounded=0;whiteSpace=wrap;html=1;" parent="1" vertex="1">
          <mxGeometry x="23.5" y="4301" width="67.5" height="20" as="geometry" />
        </mxCell>
        <mxCell id="sHa-jKXvXCzea2u_n5KB-32" value="&lt;i&gt;&lt;font style=&quot;font-size: 8px;&quot;&gt;Number-input&lt;/font&gt;&lt;/i&gt;" style="rounded=0;whiteSpace=wrap;html=1;" parent="1" vertex="1">
          <mxGeometry x="169.49" y="4301" width="67.5" height="20" as="geometry" />
        </mxCell>
        <mxCell id="sHa-jKXvXCzea2u_n5KB-33" value="&lt;i&gt;&lt;font style=&quot;font-size: 9px;&quot;&gt;Accpted bet amount&lt;br&gt;[ Number-input]&lt;/font&gt;&lt;/i&gt;" style="rounded=0;whiteSpace=wrap;html=1;" parent="1" vertex="1">
          <mxGeometry x="23.5" y="4358" width="92" height="29" as="geometry" />
        </mxCell>
        <mxCell id="sHa-jKXvXCzea2u_n5KB-35" value="List your community-bet" style="rounded=1;fillColor=#008a00;strokeColor=#005700;html=1;whiteSpace=wrap;fontColor=#ffffff;align=center;verticalAlign=middle;fontStyle=0;fontSize=12;sketch=0;" parent="1" vertex="1">
          <mxGeometry x="118.5" y="4358" width="139.75" height="29" as="geometry" />
        </mxCell>
        <mxCell id="sHa-jKXvXCzea2u_n5KB-36" value="&lt;font style=&quot;font-size: 52px;&quot;&gt;Betting&lt;/font&gt;" style="text;html=1;align=center;verticalAlign=middle;resizable=0;points=[];autosize=1;strokeColor=#6c8ebf;fillColor=#dae8fc;" parent="1" vertex="1">
          <mxGeometry x="-45.25" y="1730" width="180" height="74" as="geometry" />
        </mxCell>
        <mxCell id="sHa-jKXvXCzea2u_n5KB-37" value="&lt;font style=&quot;font-size: 52px;&quot;&gt;Account&lt;/font&gt;" style="text;html=1;align=center;verticalAlign=middle;resizable=0;points=[];autosize=1;strokeColor=#6c8ebf;fillColor=#dae8fc;" parent="1" vertex="1">
          <mxGeometry x="-82" y="-61" width="206" height="74" as="geometry" />
        </mxCell>
        <mxCell id="sHa-jKXvXCzea2u_n5KB-38" value="&lt;font style=&quot;font-size: 52px;&quot;&gt;Settings&lt;/font&gt;" style="text;html=1;align=center;verticalAlign=middle;resizable=0;points=[];autosize=1;strokeColor=#6c8ebf;fillColor=#dae8fc;" parent="1" vertex="1">
          <mxGeometry x="-73.5" y="-644" width="206" height="74" as="geometry" />
        </mxCell>
        <mxCell id="sHa-jKXvXCzea2u_n5KB-39" value="" style="whiteSpace=wrap;html=1;aspect=fixed;" parent="1" vertex="1">
          <mxGeometry x="-194" y="-546" width="435" height="435" as="geometry" />
        </mxCell>
        <mxCell id="sHa-jKXvXCzea2u_n5KB-40" value="Show currency in:" style="rounded=1;fillColor=#F1F2F4;strokeColor=none;html=1;whiteSpace=wrap;fontColor=#596780;align=left;fontSize=12;spacingLeft=10;sketch=0;" parent="1" vertex="1">
          <mxGeometry x="-155" y="-513" width="197" height="33" as="geometry" />
        </mxCell>
        <mxCell id="sHa-jKXvXCzea2u_n5KB-41" value="" style="shape=triangle;direction=south;fillColor=#596780;strokeColor=none;html=1;sketch=0;" parent="sHa-jKXvXCzea2u_n5KB-40" vertex="1">
          <mxGeometry x="1" y="0.5" width="12" height="6" relative="1" as="geometry">
            <mxPoint x="-20" y="-3" as="offset" />
          </mxGeometry>
        </mxCell>
        <mxCell id="sHa-jKXvXCzea2u_n5KB-42" value="Block these sites" style="rounded=1;fillColor=#F1F2F4;strokeColor=none;html=1;whiteSpace=wrap;fontColor=#596780;align=left;fontSize=12;spacingLeft=10;sketch=0;" parent="1" vertex="1">
          <mxGeometry x="-153" y="-453" width="196" height="33" as="geometry" />
        </mxCell>
        <mxCell id="sHa-jKXvXCzea2u_n5KB-43" value="" style="shape=triangle;direction=south;fillColor=#596780;strokeColor=none;html=1;sketch=0;" parent="sHa-jKXvXCzea2u_n5KB-42" vertex="1">
          <mxGeometry x="1" y="0.5" width="12" height="6" relative="1" as="geometry">
            <mxPoint x="-20" y="-3" as="offset" />
          </mxGeometry>
        </mxCell>
        <mxCell id="sHa-jKXvXCzea2u_n5KB-44" value="Show community-bets" style="rounded=1;fillColor=#F1F2F4;strokeColor=none;html=1;whiteSpace=wrap;fontColor=#596780;align=left;fontSize=12;spacingLeft=10;sketch=0;" parent="1" vertex="1">
          <mxGeometry x="-155" y="-391" width="199" height="33" as="geometry" />
        </mxCell>
        <mxCell id="sHa-jKXvXCzea2u_n5KB-45" value="" style="shape=triangle;direction=south;fillColor=#596780;strokeColor=none;html=1;sketch=0;" parent="sHa-jKXvXCzea2u_n5KB-44" vertex="1">
          <mxGeometry x="1" y="0.5" width="12" height="6" relative="1" as="geometry">
            <mxPoint x="-20" y="-3" as="offset" />
          </mxGeometry>
        </mxCell>
        <mxCell id="sHa-jKXvXCzea2u_n5KB-47" value="&lt;font style=&quot;font-size: 52px;&quot;&gt;Home screen&lt;/font&gt;" style="text;html=1;align=center;verticalAlign=middle;resizable=0;points=[];autosize=1;strokeColor=#6c8ebf;fillColor=#dae8fc;" parent="1" vertex="1">
          <mxGeometry x="-122" y="-1404" width="327" height="74" as="geometry" />
        </mxCell>
        <mxCell id="GnV1iMn7CqlQqy9Vk_Cp-1" value="&lt;font&gt;Mandatory 1&lt;/font&gt;" style="text;html=1;align=center;verticalAlign=middle;resizable=0;points=[];autosize=1;strokeColor=#b85450;fillColor=#f8cecc;fontSize=200;" parent="1" vertex="1">
          <mxGeometry x="3034" y="-2769" width="1130" height="252" as="geometry" />
        </mxCell>
        <mxCell id="GnV1iMn7CqlQqy9Vk_Cp-2" value="&lt;font&gt;Mockups&lt;/font&gt;" style="text;html=1;align=center;verticalAlign=middle;resizable=0;points=[];autosize=1;strokeColor=#b85450;fillColor=#f8cecc;fontSize=200;" parent="1" vertex="1">
          <mxGeometry x="-425.25" y="-4460" width="818" height="252" as="geometry" />
        </mxCell>
        <mxCell id="GnV1iMn7CqlQqy9Vk_Cp-3" value="&lt;font&gt;Formal diagram&lt;/font&gt;" style="text;html=1;align=center;verticalAlign=middle;resizable=0;points=[];autosize=1;strokeColor=#6c8ebf;fillColor=#dae8fc;fontSize=80;" parent="1" vertex="1">
          <mxGeometry x="3332" y="-2414" width="578" height="108" as="geometry" />
        </mxCell>
        <mxCell id="GnV1iMn7CqlQqy9Vk_Cp-4" value="&lt;font&gt;Informal diagram&lt;/font&gt;" style="text;html=1;align=center;verticalAlign=middle;resizable=0;points=[];autosize=1;strokeColor=#6c8ebf;fillColor=#dae8fc;fontSize=80;" parent="1" vertex="1">
          <mxGeometry x="3903.9999999999995" y="4375" width="618" height="108" as="geometry" />
        </mxCell>
        <mxCell id="GnV1iMn7CqlQqy9Vk_Cp-5" value="Go to &quot;følg anden User / AI robot&quot;" style="rounded=1;fillColor=#0057D8;strokeColor=none;html=1;whiteSpace=wrap;fontColor=#ffffff;align=center;verticalAlign=middle;fontStyle=0;fontSize=12;sketch=0;" parent="1" vertex="1">
          <mxGeometry x="-21" y="2316" width="155.5" height="31" as="geometry" />
        </mxCell>
        <mxCell id="37-u8FB9lLhl7dkDFb6i-1" value="&lt;font style=&quot;font-size: 24px;&quot;&gt;&amp;nbsp;Ordinary sports bet placement&amp;nbsp; &amp;nbsp;&lt;/font&gt;" style="text;html=1;align=center;verticalAlign=middle;resizable=0;points=[];autosize=1;strokeColor=#d6b656;fillColor=#fff2cc;fontStyle=1" parent="1" vertex="1">
          <mxGeometry x="-723.75" y="2900" width="366" height="41" as="geometry" />
        </mxCell>
        <mxCell id="37-u8FB9lLhl7dkDFb6i-2" value="&lt;font style=&quot;font-size: 24px;&quot;&gt;&lt;b&gt;Overview menu&lt;/b&gt;&lt;/font&gt;" style="text;html=1;align=center;verticalAlign=middle;resizable=0;points=[];autosize=1;strokeColor=#d6b656;fillColor=#fff2cc;" parent="1" vertex="1">
          <mxGeometry x="-586.25" y="2039" width="195" height="41" as="geometry" />
        </mxCell>
        <mxCell id="37-u8FB9lLhl7dkDFb6i-3" value="&lt;span style=&quot;font-size: 24px;&quot;&gt;&amp;nbsp;Stocks-like trigger order&lt;/span&gt;" style="text;html=1;align=center;verticalAlign=middle;resizable=0;points=[];autosize=1;strokeColor=#d6b656;fillColor=#fff2cc;fontStyle=1" parent="1" vertex="1">
          <mxGeometry x="-673.75" y="3550" width="278" height="41" as="geometry" />
        </mxCell>
        <mxCell id="37-u8FB9lLhl7dkDFb6i-4" value="&lt;span style=&quot;font-size: 24px;&quot;&gt;Stocks-like be your own supply and demand&lt;/span&gt;" style="text;html=1;align=center;verticalAlign=middle;resizable=0;points=[];autosize=1;strokeColor=#d6b656;fillColor=#fff2cc;fontStyle=1" parent="1" vertex="1">
          <mxGeometry x="-765.75" y="4301" width="488" height="41" as="geometry" />
        </mxCell>
        <mxCell id="37-u8FB9lLhl7dkDFb6i-5" value="&lt;span style=&quot;font-size: 24px;&quot;&gt;&lt;b&gt;Register for all available vendors, swift and easily&lt;/b&gt;&lt;/span&gt;" style="text;html=1;align=center;verticalAlign=middle;resizable=0;points=[];autosize=1;strokeColor=#d6b656;fillColor=#fff2cc;" parent="1" vertex="1">
          <mxGeometry x="-1066" y="1030" width="585" height="41" as="geometry" />
        </mxCell>
        <mxCell id="37-u8FB9lLhl7dkDFb6i-6" value="&lt;span style=&quot;font-size: 24px;&quot;&gt;&lt;b&gt;Get full betting overview, in terms of placements, cash and connected vendors&lt;/b&gt;&lt;/span&gt;" style="text;html=1;align=center;verticalAlign=middle;resizable=0;points=[];autosize=1;strokeColor=#d6b656;fillColor=#fff2cc;" parent="1" vertex="1">
          <mxGeometry x="-1252" y="421" width="915" height="41" as="geometry" />
        </mxCell>
        <mxCell id="37-u8FB9lLhl7dkDFb6i-7" value="&lt;span style=&quot;font-size: 24px;&quot;&gt;Søgning/Filtering&lt;/span&gt;" style="text;html=1;align=center;verticalAlign=middle;resizable=0;points=[];autosize=1;strokeColor=#d6b656;fillColor=#fff2cc;fontStyle=1" parent="1" vertex="1">
          <mxGeometry x="-632" y="4941" width="199" height="41" as="geometry" />
        </mxCell>
        <mxCell id="37-u8FB9lLhl7dkDFb6i-9" value="&lt;font style=&quot;font-size: 52px;&quot;&gt;Login&lt;/font&gt;" style="text;html=1;align=center;verticalAlign=middle;resizable=0;points=[];autosize=1;strokeColor=#6c8ebf;fillColor=#dae8fc;" parent="1" vertex="1">
          <mxGeometry x="-46.25" y="-2204" width="145" height="74" as="geometry" />
        </mxCell>
        <mxCell id="37-u8FB9lLhl7dkDFb6i-10" value="&lt;span style=&quot;font-size: 24px;&quot;&gt;&lt;b&gt;Due to legality (Spillemyndighederne). MitID MUST be involved&lt;/b&gt;&lt;/span&gt;" style="text;html=1;align=center;verticalAlign=middle;resizable=0;points=[];autosize=1;strokeColor=#d6b656;fillColor=#fff2cc;" parent="1" vertex="1">
          <mxGeometry x="-1161" y="-1886" width="733" height="41" as="geometry" />
        </mxCell>
        <mxCell id="37-u8FB9lLhl7dkDFb6i-14" value="" style="whiteSpace=wrap;html=1;aspect=fixed;" parent="1" vertex="1">
          <mxGeometry x="-96.15" y="4795" width="435" height="435" as="geometry" />
        </mxCell>
        <mxCell id="37-u8FB9lLhl7dkDFb6i-15" value="" style="whiteSpace=wrap;html=1;aspect=fixed;" parent="1" vertex="1">
          <mxGeometry x="-162" y="-1212" width="435" height="435" as="geometry" />
        </mxCell>
        <mxCell id="37-u8FB9lLhl7dkDFb6i-16" value="" style="whiteSpace=wrap;html=1;aspect=fixed;" parent="1" vertex="1">
          <mxGeometry x="-188" y="-2031" width="435" height="435" as="geometry" />
        </mxCell>
        <mxCell id="37-u8FB9lLhl7dkDFb6i-18" value="" style="shape=image;verticalLabelPosition=bottom;labelBackgroundColor=default;verticalAlign=top;aspect=fixed;imageAspect=0;image=https://digst.dk/media/bnqes3tx/nyt-billede-mitid.png;" parent="1" vertex="1">
          <mxGeometry x="-14.15" y="-1931" width="160" height="89.87" as="geometry" />
        </mxCell>
        <mxCell id="37-u8FB9lLhl7dkDFb6i-19" value="&lt;font style=&quot;font-size: 52px;&quot;&gt;Navigation&lt;/font&gt;" style="text;html=1;align=center;verticalAlign=middle;resizable=0;points=[];autosize=1;strokeColor=#6c8ebf;fillColor=#dae8fc;" parent="1" vertex="1">
          <mxGeometry x="-116.25" y="-2874" width="264" height="74" as="geometry" />
        </mxCell>
        <mxCell id="37-u8FB9lLhl7dkDFb6i-20" value="" style="whiteSpace=wrap;html=1;aspect=fixed;" parent="1" vertex="1">
          <mxGeometry x="-201" y="-2736" width="435" height="435" as="geometry" />
        </mxCell>
        <mxCell id="37-u8FB9lLhl7dkDFb6i-21" value="&lt;span style=&quot;font-size: 24px;&quot;&gt;&lt;b&gt;Main navigation bar&lt;/b&gt;&lt;/span&gt;" style="text;html=1;align=center;verticalAlign=middle;resizable=0;points=[];autosize=1;strokeColor=#d6b656;fillColor=#fff2cc;" parent="1" vertex="1">
          <mxGeometry x="-921" y="-2606" width="243" height="41" as="geometry" />
        </mxCell>
        <mxCell id="37-u8FB9lLhl7dkDFb6i-22" value="" style="rounded=0;whiteSpace=wrap;html=1;fillColor=#ffe6cc;strokeColor=#d79b00;" parent="1" vertex="1">
          <mxGeometry x="-178.6" y="-2376" width="97" height="60" as="geometry" />
        </mxCell>
        <mxCell id="37-u8FB9lLhl7dkDFb6i-23" value="" style="rounded=0;whiteSpace=wrap;html=1;fillColor=#dae8fc;strokeColor=#6c8ebf;" parent="1" vertex="1">
          <mxGeometry x="-57.84" y="-2376" width="97" height="60" as="geometry" />
        </mxCell>
        <mxCell id="37-u8FB9lLhl7dkDFb6i-24" value="" style="rounded=0;whiteSpace=wrap;html=1;fillColor=#f8cecc;strokeColor=#b85450;" parent="1" vertex="1">
          <mxGeometry x="70.25" y="-2376" width="45.25" height="60" as="geometry" />
        </mxCell>
        <mxCell id="37-u8FB9lLhl7dkDFb6i-25" value="" style="rounded=0;whiteSpace=wrap;html=1;fillColor=#f5f5f5;strokeColor=#666666;fontColor=#333333;" parent="1" vertex="1">
          <mxGeometry x="145.85" y="-2376" width="45.25" height="60" as="geometry" />
        </mxCell>
        <mxCell id="37-u8FB9lLhl7dkDFb6i-27" value="&lt;font style=&quot;font-size: 19px;&quot;&gt;Login/Opret&lt;/font&gt;" style="text;html=1;align=center;verticalAlign=middle;resizable=0;points=[];autosize=1;strokeColor=none;fillColor=none;" parent="1" vertex="1">
          <mxGeometry x="-136.75" y="-1903.57" width="117" height="35" as="geometry" />
        </mxCell>
        <mxCell id="37-u8FB9lLhl7dkDFb6i-29" value="&lt;font style=&quot;font-size: 52px;&quot;&gt;Favoritter&lt;/font&gt;" style="text;html=1;align=center;verticalAlign=middle;resizable=0;points=[];autosize=1;strokeColor=#6c8ebf;fillColor=#dae8fc;" parent="1" vertex="1">
          <mxGeometry x="-118.5" y="-3935" width="238" height="74" as="geometry" />
        </mxCell>
        <mxCell id="37-u8FB9lLhl7dkDFb6i-30" value="&lt;span style=&quot;font-size: 24px;&quot;&gt;&lt;b&gt;Control the order shown in &quot;sports&quot;, by adding different sports as favourites and ordering them.&lt;/b&gt;&lt;/span&gt;&lt;div&gt;&lt;span style=&quot;font-size: 24px;&quot;&gt;&lt;b&gt;As such, a person can always be shown Tennis at the very top.&lt;/b&gt;&lt;/span&gt;&lt;/div&gt;" style="text;html=1;align=center;verticalAlign=middle;resizable=0;points=[];autosize=1;strokeColor=#d6b656;fillColor=#fff2cc;" parent="1" vertex="1">
          <mxGeometry x="-1467" y="-3524" width="1116" height="70" as="geometry" />
        </mxCell>
        <mxCell id="37-u8FB9lLhl7dkDFb6i-31" value="" style="whiteSpace=wrap;html=1;aspect=fixed;" parent="1" vertex="1">
          <mxGeometry x="-208.25" y="-3716" width="435" height="435" as="geometry" />
        </mxCell>
        <mxCell id="37-u8FB9lLhl7dkDFb6i-33" value="Aggregrator" style="shape=note;whiteSpace=wrap;html=1;backgroundOutline=1;darkOpacity=0.05;strokeWidth=5;size=72;fontSize=70;" parent="1" vertex="1">
          <mxGeometry x="3125" y="-2154" width="491" height="380" as="geometry" />
        </mxCell>
        <mxCell id="37-u8FB9lLhl7dkDFb6i-56" value="&lt;font style=&quot;font-size: 24px;&quot;&gt;Tilbud er givet på vendor, som automatisk indkasseres.&lt;br&gt;Ex: Bet365 giver 100 kr hvis du spiller på Super Bowl Finallen.&lt;br&gt;Kunden får så de 100 kr. men er ikke forvirret fordi de kunne se tilbudet i vores&lt;/font&gt;&lt;div&gt;&lt;font style=&quot;font-size: 24px;&quot;&gt;system.&lt;br&gt;Hvis vi ikke viser dem det, kunne de tror der var en &quot;fejl i siden som de kan&lt;br&gt;udnytte, og derfor smide penge igen, men opleve at ingen ekstra penge&lt;/font&gt;&lt;/div&gt;&lt;div&gt;&lt;font style=&quot;font-size: 24px;&quot;&gt;bliver givet denne gang&quot;&lt;/font&gt;&lt;/div&gt;" style="text;html=1;align=center;verticalAlign=middle;resizable=0;points=[];autosize=1;strokeColor=#d6b656;fillColor=#fff2cc;fontStyle=1" parent="1" vertex="1">
          <mxGeometry x="-1130" y="5545" width="850" height="214" as="geometry" />
        </mxCell>
        <mxCell id="37-u8FB9lLhl7dkDFb6i-57" value="" style="whiteSpace=wrap;html=1;aspect=fixed;" parent="1" vertex="1">
          <mxGeometry x="-103.75" y="5461" width="435" height="435" as="geometry" />
        </mxCell>
        <mxCell id="37-u8FB9lLhl7dkDFb6i-58" value=":User" style="shape=umlLifeline;perimeter=lifelinePerimeter;whiteSpace=wrap;html=1;container=1;dropTarget=0;collapsible=0;recursiveResize=0;outlineConnect=0;portConstraint=eastwest;newEdgeStyle={&quot;curved&quot;:0,&quot;rounded&quot;:0};size=170;strokeWidth=6;perimeterSpacing=0;fontSize=70;fontStyle=4" parent="1" vertex="1">
          <mxGeometry x="2172" y="-1552" width="615" height="1276" as="geometry" />
        </mxCell>
        <mxCell id="37-u8FB9lLhl7dkDFb6i-59" value=":UI" style="shape=umlLifeline;perimeter=lifelinePerimeter;whiteSpace=wrap;html=1;container=1;dropTarget=0;collapsible=0;recursiveResize=0;outlineConnect=0;portConstraint=eastwest;newEdgeStyle={&quot;curved&quot;:0,&quot;rounded&quot;:0};size=170;strokeWidth=6;perimeterSpacing=0;fontSize=70;fontStyle=4" parent="1" vertex="1">
          <mxGeometry x="3063" y="-1556" width="615" height="1276" as="geometry" />
        </mxCell>
        <mxCell id="37-u8FB9lLhl7dkDFb6i-60" value="" style="endArrow=none;html=1;rounded=0;fontFamily=Helvetica;fontSize=12;fontColor=default;strokeWidth=7;startSize=6;endSize=6;" parent="1" edge="1">
          <mxGeometry width="50" height="50" relative="1" as="geometry">
            <mxPoint x="4935" y="15" as="sourcePoint" />
            <mxPoint x="4935" y="-2251" as="targetPoint" />
          </mxGeometry>
        </mxCell>
        <mxCell id="37-u8FB9lLhl7dkDFb6i-61" value="Betting provider" style="shape=note;whiteSpace=wrap;html=1;backgroundOutline=1;darkOpacity=0.05;strokeWidth=5;size=72;fontSize=70;" parent="1" vertex="1">
          <mxGeometry x="5230" y="-2140" width="491" height="380" as="geometry" />
        </mxCell>
        <mxCell id="37-u8FB9lLhl7dkDFb6i-62" value="confirm()" style="endArrow=open;html=1;rounded=0;fontFamily=Helvetica;fontSize=50;fontColor=default;strokeWidth=6;endSize=51;endFill=0;entryX=0;entryY=0.229;entryDx=0;entryDy=0;exitX=1.095;exitY=0.155;exitDx=0;exitDy=0;exitPerimeter=0;entryPerimeter=0;" parent="1" edge="1">
          <mxGeometry y="51" width="50" height="50" relative="1" as="geometry">
            <mxPoint x="2526.9799999999996" y="-1157.8000000000002" as="sourcePoint" />
            <mxPoint x="3338" y="-1151.6400000000003" as="targetPoint" />
            <mxPoint as="offset" />
          </mxGeometry>
        </mxCell>
        <mxCell id="37-u8FB9lLhl7dkDFb6i-65" value="Show odds as: &lt;br&gt;2.15&lt;br&gt;or&lt;br&gt;1:2.15&lt;div&gt;&lt;br/&gt;&lt;/div&gt;" style="rounded=1;fillColor=#F1F2F4;strokeColor=none;html=1;whiteSpace=wrap;fontColor=#596780;align=left;fontSize=12;spacingLeft=10;sketch=0;" parent="1" vertex="1">
          <mxGeometry x="-159.84" y="-274" width="199" height="33" as="geometry" />
        </mxCell>
        <mxCell id="37-u8FB9lLhl7dkDFb6i-66" value="" style="shape=triangle;direction=south;fillColor=#596780;strokeColor=none;html=1;sketch=0;" parent="37-u8FB9lLhl7dkDFb6i-65" vertex="1">
          <mxGeometry x="1" y="0.5" width="12" height="6" relative="1" as="geometry">
            <mxPoint x="-20" y="-3" as="offset" />
          </mxGeometry>
        </mxCell>
        <mxCell id="37-u8FB9lLhl7dkDFb6i-67" value="&lt;font style=&quot;font-size: 52px;&quot;&gt;Help&lt;/font&gt;" style="text;html=1;align=center;verticalAlign=middle;resizable=0;points=[];autosize=1;strokeColor=#6c8ebf;fillColor=#dae8fc;" parent="1" vertex="1">
          <mxGeometry x="31" y="6140" width="125" height="74" as="geometry" />
        </mxCell>
        <mxCell id="37-u8FB9lLhl7dkDFb6i-68" value="" style="whiteSpace=wrap;html=1;aspect=fixed;" parent="1" vertex="1">
          <mxGeometry x="-103.75" y="6308" width="435" height="435" as="geometry" />
        </mxCell>
        <mxCell id="37-u8FB9lLhl7dkDFb6i-69" value="p:ProviderIntegration" style="shape=umlLifeline;perimeter=lifelinePerimeter;whiteSpace=wrap;html=1;container=1;dropTarget=0;collapsible=0;recursiveResize=0;outlineConnect=0;portConstraint=eastwest;newEdgeStyle={&quot;curved&quot;:0,&quot;rounded&quot;:0};size=170;strokeWidth=6;perimeterSpacing=0;fontSize=70;fontStyle=4" parent="1" vertex="1">
          <mxGeometry x="3821" y="-1562" width="703" height="1264" as="geometry" />
        </mxCell>
        <mxCell id="37-u8FB9lLhl7dkDFb6i-75" value="" style="rounded=0;whiteSpace=wrap;html=1;strokeColor=default;strokeWidth=8;align=center;verticalAlign=middle;fontFamily=Helvetica;fontSize=12;fontColor=default;fillColor=default;" parent="1" vertex="1">
          <mxGeometry x="4146.75" y="-1326" width="51.5" height="840" as="geometry" />
        </mxCell>
        <mxCell id="37-u8FB9lLhl7dkDFb6i-70" value="p.invoke(details)" style="endArrow=open;html=1;rounded=0;fontFamily=Helvetica;fontSize=50;fontColor=default;strokeWidth=6;endSize=51;endFill=0;" parent="1" edge="1">
          <mxGeometry y="51" width="50" height="50" relative="1" as="geometry">
            <mxPoint x="3360" y="-1050" as="sourcePoint" />
            <mxPoint x="4160" y="-1050" as="targetPoint" />
            <mxPoint as="offset" />
          </mxGeometry>
        </mxCell>
        <mxCell id="37-u8FB9lLhl7dkDFb6i-76" value=":API" style="shape=umlLifeline;perimeter=lifelinePerimeter;whiteSpace=wrap;html=1;container=1;dropTarget=0;collapsible=0;recursiveResize=0;outlineConnect=0;portConstraint=eastwest;newEdgeStyle={&quot;curved&quot;:0,&quot;rounded&quot;:0};size=170;strokeWidth=6;perimeterSpacing=0;fontSize=70;fontStyle=4" parent="1" vertex="1">
          <mxGeometry x="5135" y="-1556" width="703" height="1264" as="geometry" />
        </mxCell>
        <mxCell id="37-u8FB9lLhl7dkDFb6i-81" value="" style="rounded=0;whiteSpace=wrap;html=1;strokeColor=default;strokeWidth=8;align=center;verticalAlign=middle;fontFamily=Helvetica;fontSize=12;fontColor=default;fillColor=default;" parent="1" vertex="1">
          <mxGeometry x="5460.75" y="-1274" width="51.5" height="840" as="geometry" />
        </mxCell>
        <mxCell id="37-u8FB9lLhl7dkDFb6i-78" value="request(translated_details)" style="endArrow=open;html=1;rounded=0;fontFamily=Helvetica;fontSize=50;fontColor=default;strokeWidth=6;endSize=51;endFill=0;" parent="1" target="37-u8FB9lLhl7dkDFb6i-76" edge="1">
          <mxGeometry x="-0.3289" y="64" width="50" height="50" relative="1" as="geometry">
            <mxPoint x="4196" y="-924" as="sourcePoint" />
            <mxPoint x="4922" y="-942" as="targetPoint" />
            <mxPoint as="offset" />
          </mxGeometry>
        </mxCell>
        <mxCell id="37-u8FB9lLhl7dkDFb6i-79" value="" style="rounded=0;whiteSpace=wrap;html=1;strokeColor=default;strokeWidth=8;align=center;verticalAlign=middle;fontFamily=Helvetica;fontSize=12;fontColor=default;fillColor=default;" parent="1" vertex="1">
          <mxGeometry x="3349" y="-1308" width="51.5" height="840" as="geometry" />
        </mxCell>
        <mxCell id="37-u8FB9lLhl7dkDFb6i-82" value="" style="rounded=0;whiteSpace=wrap;html=1;strokeColor=default;strokeWidth=8;align=center;verticalAlign=middle;fontFamily=Helvetica;fontSize=12;fontColor=default;fillColor=default;" parent="1" vertex="1">
          <mxGeometry x="2457" y="-1304" width="51.5" height="840" as="geometry" />
        </mxCell>
        <mxCell id="37-u8FB9lLhl7dkDFb6i-83" value="" style="endArrow=none;html=1;rounded=0;fontFamily=Helvetica;fontSize=50;fontColor=default;strokeWidth=6;endSize=51;endFill=0;startSize=51;startArrow=open;startFill=0;" parent="1" edge="1">
          <mxGeometry x="-0.0714" y="46" width="50" height="50" relative="1" as="geometry">
            <mxPoint x="4182" y="-762" as="sourcePoint" />
            <mxPoint x="5470" y="-762" as="targetPoint" />
            <mxPoint x="-2" as="offset" />
          </mxGeometry>
        </mxCell>
        <mxCell id="37-u8FB9lLhl7dkDFb6i-85" value="update()" style="endArrow=none;html=1;rounded=0;fontFamily=Helvetica;fontSize=50;fontColor=default;strokeWidth=6;endSize=51;endFill=0;startSize=51;startArrow=open;startFill=0;" parent="1" edge="1">
          <mxGeometry x="-0.0714" y="46" width="50" height="50" relative="1" as="geometry">
            <mxPoint x="3392" y="-672" as="sourcePoint" />
            <mxPoint x="4176" y="-672" as="targetPoint" />
            <mxPoint x="-2" as="offset" />
          </mxGeometry>
        </mxCell>
        <mxCell id="37-u8FB9lLhl7dkDFb6i-187" value="Win earnings" style="edgeStyle=none;shape=connector;rounded=0;orthogonalLoop=1;jettySize=auto;html=1;strokeColor=default;strokeWidth=6;align=center;verticalAlign=middle;fontFamily=Helvetica;fontSize=70;fontColor=default;labelBackgroundColor=default;endArrow=none;endSize=56;endFill=0;" parent="1" source="37-u8FB9lLhl7dkDFb6i-87" target="37-u8FB9lLhl7dkDFb6i-185" edge="1">
          <mxGeometry x="0.6386" y="19" relative="1" as="geometry">
            <mxPoint y="-1" as="offset" />
          </mxGeometry>
        </mxCell>
        <mxCell id="37-u8FB9lLhl7dkDFb6i-87" value="«External»&lt;br&gt;&lt;b&gt;Betting providers&lt;/b&gt;" style="html=1;whiteSpace=wrap;strokeColor=#23445d;strokeWidth=8;align=center;verticalAlign=top;fontFamily=Helvetica;fontSize=70;fillColor=#bac8d3;" parent="1" vertex="1">
          <mxGeometry x="6206" y="2815" width="1045" height="585" as="geometry" />
        </mxCell>
        <mxCell id="37-u8FB9lLhl7dkDFb6i-89" value="API request" style="rounded=0;orthogonalLoop=1;jettySize=auto;html=1;fontFamily=Helvetica;fontSize=70;fontColor=default;strokeWidth=6;endArrow=none;endFill=0;" parent="1" source="37-u8FB9lLhl7dkDFb6i-106" target="37-u8FB9lLhl7dkDFb6i-87" edge="1">
          <mxGeometry relative="1" as="geometry" />
        </mxCell>
        <mxCell id="37-u8FB9lLhl7dkDFb6i-88" value="«Internal»&lt;br&gt;&lt;b&gt;Provider Integrators&lt;/b&gt;" style="html=1;whiteSpace=wrap;strokeWidth=8;align=center;verticalAlign=top;fontFamily=Helvetica;fontSize=70;" parent="1" vertex="1">
          <mxGeometry x="4184" y="2716" width="1045" height="585" as="geometry" />
        </mxCell>
        <mxCell id="37-u8FB9lLhl7dkDFb6i-90" value="«System»&lt;br&gt;&lt;b&gt;Aggregator Site&lt;/b&gt;" style="html=1;whiteSpace=wrap;strokeWidth=8;align=center;verticalAlign=top;fontFamily=Helvetica;fontSize=70;" parent="1" vertex="1">
          <mxGeometry x="4184" y="1317" width="1045" height="585" as="geometry" />
        </mxCell>
        <mxCell id="37-u8FB9lLhl7dkDFb6i-91" value="" style="rounded=0;orthogonalLoop=1;jettySize=auto;html=1;fontFamily=Helvetica;fontSize=60;fontColor=default;strokeWidth=6;endArrow=none;endFill=0;" parent="1" source="37-u8FB9lLhl7dkDFb6i-88" target="37-u8FB9lLhl7dkDFb6i-90" edge="1">
          <mxGeometry relative="1" as="geometry">
            <mxPoint x="5240" y="3281" as="sourcePoint" />
            <mxPoint x="4705.572738386307" y="2802" as="targetPoint" />
          </mxGeometry>
        </mxCell>
        <mxCell id="37-u8FB9lLhl7dkDFb6i-96" style="edgeStyle=none;rounded=0;orthogonalLoop=1;jettySize=auto;html=1;fontFamily=Helvetica;fontSize=12;fontColor=default;strokeWidth=6;endArrow=none;endFill=0;" parent="1" source="37-u8FB9lLhl7dkDFb6i-95" target="37-u8FB9lLhl7dkDFb6i-90" edge="1">
          <mxGeometry relative="1" as="geometry" />
        </mxCell>
        <mxCell id="37-u8FB9lLhl7dkDFb6i-95" value="User" style="shape=umlActor;verticalLabelPosition=bottom;verticalAlign=top;html=1;strokeColor=default;strokeWidth=8;align=center;fontFamily=Helvetica;fontSize=70;fontColor=default;fillColor=default;" parent="1" vertex="1">
          <mxGeometry x="3206" y="910" width="283" height="606" as="geometry" />
        </mxCell>
        <mxCell id="37-u8FB9lLhl7dkDFb6i-97" value="Developer" style="shape=umlActor;verticalLabelPosition=bottom;verticalAlign=top;html=1;strokeColor=default;strokeWidth=8;align=center;fontFamily=Helvetica;fontSize=70;fontColor=default;fillColor=default;" parent="1" vertex="1">
          <mxGeometry x="3125" y="2800" width="283" height="606" as="geometry" />
        </mxCell>
        <mxCell id="37-u8FB9lLhl7dkDFb6i-99" value="" style="rounded=0;orthogonalLoop=1;jettySize=auto;html=1;fontFamily=Helvetica;fontSize=60;fontColor=default;strokeWidth=6;endArrow=none;endFill=0;" parent="1" source="37-u8FB9lLhl7dkDFb6i-97" target="37-u8FB9lLhl7dkDFb6i-88" edge="1">
          <mxGeometry relative="1" as="geometry">
            <mxPoint x="5240" y="3281" as="sourcePoint" />
            <mxPoint x="6216" y="3174" as="targetPoint" />
          </mxGeometry>
        </mxCell>
        <mxCell id="37-u8FB9lLhl7dkDFb6i-104" value="&lt;font&gt;...&lt;/font&gt;" style="text;html=1;align=center;verticalAlign=middle;resizable=0;points=[];autosize=1;strokeColor=none;fillColor=none;fontFamily=Helvetica;fontSize=100;fontColor=default;fontStyle=1;rotation=45;" parent="1" vertex="1">
          <mxGeometry x="7422" y="3501" width="101" height="132" as="geometry" />
        </mxCell>
        <mxCell id="37-u8FB9lLhl7dkDFb6i-107" value="&lt;font&gt;...&lt;/font&gt;" style="text;html=1;align=center;verticalAlign=middle;resizable=0;points=[];autosize=1;strokeColor=none;fillColor=none;fontFamily=Helvetica;fontSize=100;fontColor=default;fontStyle=1;rotation=45;" parent="1" vertex="1">
          <mxGeometry x="5404.75" y="3392" width="101" height="132" as="geometry" />
        </mxCell>
        <mxCell id="37-u8FB9lLhl7dkDFb6i-109" value="Authentication" style="edgeStyle=none;rounded=0;orthogonalLoop=1;jettySize=auto;html=1;fontFamily=Helvetica;fontSize=70;fontColor=default;endArrow=none;endFill=0;strokeWidth=6;" parent="1" source="37-u8FB9lLhl7dkDFb6i-108" target="37-u8FB9lLhl7dkDFb6i-90" edge="1">
          <mxGeometry relative="1" as="geometry" />
        </mxCell>
        <mxCell id="37-u8FB9lLhl7dkDFb6i-108" value="«External»&lt;br&gt;&lt;b&gt;MitID&lt;/b&gt;" style="html=1;whiteSpace=wrap;strokeColor=#23445d;strokeWidth=8;align=center;verticalAlign=top;fontFamily=Helvetica;fontSize=70;fillColor=#bac8d3;" parent="1" vertex="1">
          <mxGeometry x="4184" y="283.5" width="1045" height="585" as="geometry" />
        </mxCell>
        <mxCell id="37-u8FB9lLhl7dkDFb6i-113" value="*Since we cannot register users through API we need &lt;br&gt;to redirect users to the Betting site for this part" style="text;html=1;align=center;verticalAlign=middle;resizable=0;points=[];autosize=1;strokeColor=none;fillColor=none;fontFamily=Helvetica;fontSize=70;fontColor=default;" parent="1" vertex="1">
          <mxGeometry x="7351" y="2301" width="1672" height="180" as="geometry" />
        </mxCell>
        <mxCell id="37-u8FB9lLhl7dkDFb6i-115" value="Username/password" style="edgeStyle=none;rounded=0;orthogonalLoop=1;jettySize=auto;html=1;fontFamily=Helvetica;fontSize=70;fontColor=default;strokeWidth=6;endArrow=none;endFill=0;" parent="1" source="37-u8FB9lLhl7dkDFb6i-114" target="37-u8FB9lLhl7dkDFb6i-90" edge="1">
          <mxGeometry relative="1" as="geometry" />
        </mxCell>
        <mxCell id="37-u8FB9lLhl7dkDFb6i-114" value="«External»&lt;br&gt;&lt;b&gt;User registry&lt;/b&gt;" style="html=1;whiteSpace=wrap;strokeColor=#23445d;strokeWidth=8;align=center;verticalAlign=top;fontFamily=Helvetica;fontSize=70;fillColor=#bac8d3;" parent="1" vertex="1">
          <mxGeometry x="5838" y="324" width="1045" height="585" as="geometry" />
        </mxCell>
        <mxCell id="37-u8FB9lLhl7dkDFb6i-124" style="edgeStyle=none;rounded=0;orthogonalLoop=1;jettySize=auto;html=1;fontFamily=Helvetica;fontSize=12;fontColor=default;strokeWidth=6;endArrow=classic;endFill=1;startSize=56;endSize=56;" parent="1" source="37-u8FB9lLhl7dkDFb6i-140" target="37-u8FB9lLhl7dkDFb6i-117" edge="1">
          <mxGeometry relative="1" as="geometry" />
        </mxCell>
        <mxCell id="37-u8FB9lLhl7dkDFb6i-116" value="" style="sketch=0;pointerEvents=1;shadow=0;dashed=0;html=1;strokeColor=none;labelPosition=center;verticalLabelPosition=bottom;verticalAlign=top;align=center;fillColor=#515151;shape=mxgraph.mscae.enterprise.database_server;strokeWidth=8;fontFamily=Helvetica;fontSize=12;fontColor=default;" parent="1" vertex="1">
          <mxGeometry x="4530.5" y="5472" width="618" height="737" as="geometry" />
        </mxCell>
        <mxCell id="37-u8FB9lLhl7dkDFb6i-122" style="edgeStyle=none;rounded=0;orthogonalLoop=1;jettySize=auto;html=1;fontFamily=Helvetica;fontSize=12;fontColor=default;strokeWidth=6;endArrow=classic;endFill=1;endSize=56;" parent="1" source="37-u8FB9lLhl7dkDFb6i-117" target="37-u8FB9lLhl7dkDFb6i-120" edge="1">
          <mxGeometry relative="1" as="geometry" />
        </mxCell>
        <mxCell id="37-u8FB9lLhl7dkDFb6i-117" value="" style="image;aspect=fixed;perimeter=ellipsePerimeter;html=1;align=center;shadow=0;dashed=0;spacingTop=3;image=img/lib/active_directory/generic_server.svg;strokeColor=default;strokeWidth=8;verticalAlign=middle;fontFamily=Helvetica;fontSize=12;fontColor=default;fillColor=default;" parent="1" vertex="1">
          <mxGeometry x="4575" y="6912.14" width="460.8" height="822.86" as="geometry" />
        </mxCell>
        <mxCell id="37-u8FB9lLhl7dkDFb6i-118" value="" style="image;aspect=fixed;perimeter=ellipsePerimeter;html=1;align=center;shadow=0;dashed=0;spacingTop=3;image=img/lib/active_directory/generic_server.svg;strokeColor=default;strokeWidth=8;verticalAlign=middle;fontFamily=Helvetica;fontSize=12;fontColor=default;fillColor=default;" parent="1" vertex="1">
          <mxGeometry x="4755" y="7401" width="440.8" height="787.14" as="geometry" />
        </mxCell>
        <mxCell id="37-u8FB9lLhl7dkDFb6i-119" value="" style="image;aspect=fixed;perimeter=ellipsePerimeter;html=1;align=center;shadow=0;dashed=0;spacingTop=3;image=img/lib/active_directory/generic_server.svg;strokeColor=default;strokeWidth=8;verticalAlign=middle;fontFamily=Helvetica;fontSize=12;fontColor=default;fillColor=default;" parent="1" vertex="1">
          <mxGeometry x="4927" y="7867" width="434.8" height="776.42" as="geometry" />
        </mxCell>
        <mxCell id="37-u8FB9lLhl7dkDFb6i-180" value="5) Winning money will be &lt;br&gt;returned to our system" style="edgeStyle=none;shape=connector;rounded=0;orthogonalLoop=1;jettySize=auto;html=1;strokeColor=default;strokeWidth=6;align=center;verticalAlign=middle;fontFamily=Helvetica;fontSize=90;fontColor=default;labelBackgroundColor=none;endArrow=classic;endSize=56;" parent="1" source="37-u8FB9lLhl7dkDFb6i-120" target="37-u8FB9lLhl7dkDFb6i-189" edge="1">
          <mxGeometry x="-0.8114" y="-450" relative="1" as="geometry">
            <mxPoint x="7562.495344453735" y="6047" as="targetPoint" />
            <mxPoint y="1" as="offset" />
          </mxGeometry>
        </mxCell>
        <mxCell id="37-u8FB9lLhl7dkDFb6i-120" value="" style="shape=image;verticalLabelPosition=bottom;labelBackgroundColor=default;verticalAlign=top;aspect=fixed;imageAspect=0;image=https://spilfiduser.dk/wp-content/uploads/2021/06/bet365-1024x522-1.png;" parent="1" vertex="1">
          <mxGeometry x="6772" y="7124" width="864" height="440.44" as="geometry" />
        </mxCell>
        <mxCell id="37-u8FB9lLhl7dkDFb6i-121" value="" style="shape=image;verticalLabelPosition=bottom;labelBackgroundColor=default;verticalAlign=top;aspect=fixed;imageAspect=0;image=https://dendanskebillardunion.dk/wp-content/uploads/Oddset.jpg;" parent="1" vertex="1">
          <mxGeometry x="6764.6" y="7598" width="878.4" height="395.12" as="geometry" />
        </mxCell>
        <mxCell id="37-u8FB9lLhl7dkDFb6i-129" value="" style="shape=image;verticalLabelPosition=bottom;labelBackgroundColor=default;verticalAlign=top;aspect=fixed;imageAspect=0;image=https://casinoudbetaling.com/wp-content/uploads/2023/06/Unibet-DK-FAQ.jpg;clipPath=inset(0% 37.33% 0% 2.67%);" parent="1" vertex="1">
          <mxGeometry x="6762" y="8043" width="892.22" height="456" as="geometry" />
        </mxCell>
        <mxCell id="37-u8FB9lLhl7dkDFb6i-131" value="&lt;span&gt;&lt;font&gt;...&lt;/font&gt;&lt;/span&gt;" style="text;html=1;align=center;verticalAlign=middle;resizable=0;points=[];autosize=1;strokeColor=none;fillColor=none;fontFamily=Helvetica;fontSize=120;fontColor=default;fontStyle=1" parent="1" vertex="1">
          <mxGeometry x="6112" y="8522" width="118" height="156" as="geometry" />
        </mxCell>
        <mxCell id="37-u8FB9lLhl7dkDFb6i-133" style="edgeStyle=none;rounded=0;orthogonalLoop=1;jettySize=auto;html=1;fontFamily=Helvetica;fontSize=12;fontColor=default;strokeWidth=6;endSize=56;" parent="1" source="37-u8FB9lLhl7dkDFb6i-132" target="37-u8FB9lLhl7dkDFb6i-116" edge="1">
          <mxGeometry relative="1" as="geometry" />
        </mxCell>
        <mxCell id="37-u8FB9lLhl7dkDFb6i-132" value="" style="shape=image;verticalLabelPosition=bottom;labelBackgroundColor=default;verticalAlign=top;aspect=fixed;imageAspect=0;image=https://digst.dk/media/bnqes3tx/nyt-billede-mitid.png;" parent="1" vertex="1">
          <mxGeometry x="4465" y="4779.87" width="801.39" height="450.13" as="geometry" />
        </mxCell>
        <mxCell id="37-u8FB9lLhl7dkDFb6i-134" value="2) Deposit money and &lt;br&gt;place bets on the site" style="text;html=1;align=center;verticalAlign=middle;resizable=0;points=[];autosize=1;strokeColor=none;fillColor=none;fontFamily=Helvetica;fontSize=90;fontColor=default;" parent="1" vertex="1">
          <mxGeometry x="3520" y="5516" width="899" height="228" as="geometry" />
        </mxCell>
        <mxCell id="37-u8FB9lLhl7dkDFb6i-135" style="edgeStyle=none;rounded=0;orthogonalLoop=1;jettySize=auto;html=1;fontFamily=Helvetica;fontSize=12;fontColor=default;strokeWidth=6;endArrow=classic;endFill=1;endSize=56;" parent="1" source="37-u8FB9lLhl7dkDFb6i-118" target="37-u8FB9lLhl7dkDFb6i-121" edge="1">
          <mxGeometry relative="1" as="geometry">
            <mxPoint x="5046" y="7315" as="sourcePoint" />
            <mxPoint x="6795" y="7169" as="targetPoint" />
          </mxGeometry>
        </mxCell>
        <mxCell id="37-u8FB9lLhl7dkDFb6i-136" style="edgeStyle=none;rounded=0;orthogonalLoop=1;jettySize=auto;html=1;fontFamily=Helvetica;fontSize=12;fontColor=default;strokeWidth=6;endArrow=classic;endFill=1;endSize=56;" parent="1" source="37-u8FB9lLhl7dkDFb6i-119" target="37-u8FB9lLhl7dkDFb6i-129" edge="1">
          <mxGeometry relative="1" as="geometry">
            <mxPoint x="5056" y="7325" as="sourcePoint" />
            <mxPoint x="6805" y="7179" as="targetPoint" />
          </mxGeometry>
        </mxCell>
        <mxCell id="37-u8FB9lLhl7dkDFb6i-138" value="Betting provider" style="text;html=1;align=center;verticalAlign=middle;resizable=0;points=[];autosize=1;strokeColor=none;fillColor=none;fontFamily=Helvetica;fontSize=90;fontColor=default;" parent="1" vertex="1">
          <mxGeometry x="6900" y="8507" width="648" height="120" as="geometry" />
        </mxCell>
        <mxCell id="37-u8FB9lLhl7dkDFb6i-139" value="Provider integrators" style="text;html=1;align=center;verticalAlign=middle;resizable=0;points=[];autosize=1;strokeColor=none;fillColor=none;fontFamily=Helvetica;fontSize=90;fontColor=default;" parent="1" vertex="1">
          <mxGeometry x="4568" y="8653" width="803" height="120" as="geometry" />
        </mxCell>
        <mxCell id="37-u8FB9lLhl7dkDFb6i-140" value="Aggregator site" style="text;html=1;align=center;verticalAlign=middle;resizable=0;points=[];autosize=1;strokeColor=none;fillColor=none;fontFamily=Helvetica;fontSize=90;fontColor=default;" parent="1" vertex="1">
          <mxGeometry x="4544" y="6240" width="628" height="120" as="geometry" />
        </mxCell>
        <mxCell id="37-u8FB9lLhl7dkDFb6i-141" value="" style="shape=mxgraph.cisco.people.androgenous_person;html=1;pointerEvents=1;dashed=0;fillColor=#036897;strokeColor=#ffffff;strokeWidth=2;verticalLabelPosition=bottom;verticalAlign=top;align=center;outlineConnect=0;fontFamily=Helvetica;fontSize=12;fontColor=default;" parent="1" vertex="1">
          <mxGeometry x="2931" y="7411" width="676" height="829" as="geometry" />
        </mxCell>
        <mxCell id="37-u8FB9lLhl7dkDFb6i-142" value="" style="shape=mxgraph.cisco.people.man_woman;html=1;pointerEvents=1;dashed=0;fillColor=#036897;strokeColor=#ffffff;strokeWidth=2;verticalLabelPosition=bottom;verticalAlign=top;align=center;outlineConnect=0;fontFamily=Helvetica;fontSize=12;fontColor=default;" parent="1" vertex="1">
          <mxGeometry x="2820" y="5363" width="652" height="955" as="geometry" />
        </mxCell>
        <mxCell id="37-u8FB9lLhl7dkDFb6i-144" style="edgeStyle=none;rounded=0;orthogonalLoop=1;jettySize=auto;html=1;fontFamily=Helvetica;fontSize=12;fontColor=default;strokeWidth=6;endArrow=classic;endFill=1;startSize=56;endSize=56;" parent="1" source="37-u8FB9lLhl7dkDFb6i-142" target="37-u8FB9lLhl7dkDFb6i-116" edge="1">
          <mxGeometry relative="1" as="geometry">
            <mxPoint x="4125" y="6137" as="sourcePoint" />
            <mxPoint x="4094" y="6691" as="targetPoint" />
          </mxGeometry>
        </mxCell>
        <mxCell id="37-u8FB9lLhl7dkDFb6i-145" value="User" style="text;html=1;align=center;verticalAlign=middle;resizable=0;points=[];autosize=1;strokeColor=none;fillColor=none;fontFamily=Helvetica;fontSize=90;fontColor=default;" parent="1" vertex="1">
          <mxGeometry x="2998" y="6390" width="208" height="120" as="geometry" />
        </mxCell>
        <mxCell id="37-u8FB9lLhl7dkDFb6i-146" value="Developer" style="text;html=1;align=center;verticalAlign=middle;resizable=0;points=[];autosize=1;strokeColor=none;fillColor=none;fontFamily=Helvetica;fontSize=90;fontColor=default;" parent="1" vertex="1">
          <mxGeometry x="3011" y="8272" width="428" height="120" as="geometry" />
        </mxCell>
        <mxCell id="37-u8FB9lLhl7dkDFb6i-148" style="edgeStyle=none;rounded=0;orthogonalLoop=1;jettySize=auto;html=1;fontFamily=Helvetica;fontSize=12;fontColor=default;strokeWidth=6;endArrow=classic;endFill=1;startSize=56;endSize=56;" parent="1" source="37-u8FB9lLhl7dkDFb6i-141" target="37-u8FB9lLhl7dkDFb6i-118" edge="1">
          <mxGeometry relative="1" as="geometry">
            <mxPoint x="3382" y="7986" as="sourcePoint" />
            <mxPoint x="4441" y="7958" as="targetPoint" />
          </mxGeometry>
        </mxCell>
        <mxCell id="37-u8FB9lLhl7dkDFb6i-150" value="1) Create and deploy &lt;br&gt;integrators" style="text;html=1;align=center;verticalAlign=middle;resizable=0;points=[];autosize=1;strokeColor=none;fillColor=none;fontFamily=Helvetica;fontSize=90;fontColor=default;" parent="1" vertex="1">
          <mxGeometry x="3613" y="7507" width="859" height="228" as="geometry" />
        </mxCell>
        <mxCell id="37-u8FB9lLhl7dkDFb6i-151" value="3) Forwards bet to &lt;br&gt;appropriate integrator" style="text;html=1;align=center;verticalAlign=middle;resizable=0;points=[];autosize=1;strokeColor=none;fillColor=none;fontFamily=Helvetica;fontSize=90;fontColor=default;" parent="1" vertex="1">
          <mxGeometry x="4853" y="6522" width="879" height="228" as="geometry" />
        </mxCell>
        <mxCell id="37-u8FB9lLhl7dkDFb6i-152" value="4) Sends the bet request to Betting provider" style="text;html=1;align=center;verticalAlign=middle;resizable=0;points=[];autosize=1;strokeColor=none;fillColor=none;fontFamily=Helvetica;fontSize=90;fontColor=default;" parent="1" vertex="1">
          <mxGeometry x="5042" y="7015" width="1759" height="120" as="geometry" />
        </mxCell>
        <mxCell id="37-u8FB9lLhl7dkDFb6i-160" value="" style="edgeStyle=none;shape=connector;rounded=0;orthogonalLoop=1;jettySize=auto;html=1;strokeColor=default;strokeWidth=6;align=center;verticalAlign=middle;fontFamily=Helvetica;fontSize=12;fontColor=default;labelBackgroundColor=default;endArrow=classic;endSize=56;" parent="1" source="37-u8FB9lLhl7dkDFb6i-153" target="37-u8FB9lLhl7dkDFb6i-159" edge="1">
          <mxGeometry relative="1" as="geometry" />
        </mxCell>
        <mxCell id="37-u8FB9lLhl7dkDFb6i-153" value="User registers to our site using MitID" style="rounded=1;whiteSpace=wrap;html=1;strokeColor=default;strokeWidth=8;align=center;verticalAlign=middle;fontFamily=Helvetica;fontSize=70;fontColor=default;fillColor=default;arcSize=38;spacing=3;" parent="1" vertex="1">
          <mxGeometry x="6828" y="-1824" width="800" height="415" as="geometry" />
        </mxCell>
        <mxCell id="37-u8FB9lLhl7dkDFb6i-162" value="" style="edgeStyle=none;shape=connector;rounded=0;orthogonalLoop=1;jettySize=auto;html=1;strokeColor=default;strokeWidth=6;align=center;verticalAlign=middle;fontFamily=Helvetica;fontSize=12;fontColor=default;labelBackgroundColor=default;endArrow=classic;endSize=56;" parent="1" source="37-u8FB9lLhl7dkDFb6i-159" target="37-u8FB9lLhl7dkDFb6i-161" edge="1">
          <mxGeometry relative="1" as="geometry" />
        </mxCell>
        <mxCell id="37-u8FB9lLhl7dkDFb6i-159" value="User deposits money to their account on our site" style="rounded=1;whiteSpace=wrap;html=1;strokeColor=default;strokeWidth=8;align=center;verticalAlign=middle;fontFamily=Helvetica;fontSize=70;fontColor=default;fillColor=default;arcSize=38;spacing=3;" parent="1" vertex="1">
          <mxGeometry x="7878" y="-1824" width="800" height="415" as="geometry" />
        </mxCell>
        <mxCell id="37-u8FB9lLhl7dkDFb6i-164" value="" style="edgeStyle=none;shape=connector;rounded=0;orthogonalLoop=1;jettySize=auto;html=1;strokeColor=default;strokeWidth=6;align=center;verticalAlign=middle;fontFamily=Helvetica;fontSize=12;fontColor=default;labelBackgroundColor=default;endArrow=classic;endSize=56;" parent="1" source="37-u8FB9lLhl7dkDFb6i-161" target="37-u8FB9lLhl7dkDFb6i-163" edge="1">
          <mxGeometry relative="1" as="geometry" />
        </mxCell>
        <mxCell id="37-u8FB9lLhl7dkDFb6i-161" value="User finds a good bet by navigating on our site" style="rounded=1;whiteSpace=wrap;html=1;strokeColor=default;strokeWidth=8;align=center;verticalAlign=middle;fontFamily=Helvetica;fontSize=70;fontColor=default;fillColor=default;arcSize=38;spacing=3;" parent="1" vertex="1">
          <mxGeometry x="7268" y="-1159" width="800" height="415" as="geometry" />
        </mxCell>
        <mxCell id="37-u8FB9lLhl7dkDFb6i-167" value="" style="edgeStyle=none;shape=connector;rounded=0;orthogonalLoop=1;jettySize=auto;html=1;strokeColor=default;strokeWidth=6;align=center;verticalAlign=middle;fontFamily=Helvetica;fontSize=70;fontColor=default;labelBackgroundColor=default;endArrow=classic;endSize=56;" parent="1" source="37-u8FB9lLhl7dkDFb6i-163" target="37-u8FB9lLhl7dkDFb6i-166" edge="1">
          <mxGeometry x="1" y="316" relative="1" as="geometry">
            <mxPoint x="113" y="20" as="offset" />
          </mxGeometry>
        </mxCell>
        <mxCell id="37-u8FB9lLhl7dkDFb6i-163" value="User places and confirms a bet, offered by a betting provider" style="rounded=1;whiteSpace=wrap;html=1;strokeColor=default;strokeWidth=8;align=center;verticalAlign=middle;fontFamily=Helvetica;fontSize=70;fontColor=default;fillColor=default;arcSize=38;spacing=3;" parent="1" vertex="1">
          <mxGeometry x="8318" y="-1149" width="800" height="415" as="geometry" />
        </mxCell>
        <mxCell id="37-u8FB9lLhl7dkDFb6i-169" value="[No]" style="edgeStyle=none;shape=connector;rounded=0;orthogonalLoop=1;jettySize=auto;html=1;strokeColor=default;strokeWidth=6;align=center;verticalAlign=middle;fontFamily=Helvetica;fontSize=70;fontColor=default;labelBackgroundColor=default;endArrow=classic;endSize=56;" parent="1" source="37-u8FB9lLhl7dkDFb6i-166" target="37-u8FB9lLhl7dkDFb6i-168" edge="1">
          <mxGeometry relative="1" as="geometry" />
        </mxCell>
        <mxCell id="37-u8FB9lLhl7dkDFb6i-171" value="[Yes]" style="edgeStyle=none;shape=connector;rounded=0;orthogonalLoop=1;jettySize=auto;html=1;strokeColor=default;strokeWidth=6;align=center;verticalAlign=middle;fontFamily=Helvetica;fontSize=70;fontColor=default;labelBackgroundColor=default;endArrow=classic;endSize=56;" parent="1" source="37-u8FB9lLhl7dkDFb6i-166" target="37-u8FB9lLhl7dkDFb6i-170" edge="1">
          <mxGeometry relative="1" as="geometry" />
        </mxCell>
        <mxCell id="37-u8FB9lLhl7dkDFb6i-193" style="edgeStyle=none;shape=connector;rounded=0;orthogonalLoop=1;jettySize=auto;html=1;strokeColor=default;strokeWidth=6;align=center;verticalAlign=middle;fontFamily=Helvetica;fontSize=70;fontColor=default;labelBackgroundColor=default;endArrow=none;endSize=56;endFill=0;dashed=1;dashPattern=8 8;" parent="1" source="37-u8FB9lLhl7dkDFb6i-166" target="37-u8FB9lLhl7dkDFb6i-191" edge="1">
          <mxGeometry relative="1" as="geometry" />
        </mxCell>
        <mxCell id="37-u8FB9lLhl7dkDFb6i-166" value="" style="rhombus;whiteSpace=wrap;html=1;strokeColor=default;strokeWidth=8;align=center;verticalAlign=middle;fontFamily=Helvetica;fontSize=12;fontColor=default;labelBackgroundColor=default;fillColor=default;" parent="1" vertex="1">
          <mxGeometry x="9770" y="-1099" width="295" height="310" as="geometry" />
        </mxCell>
        <mxCell id="37-u8FB9lLhl7dkDFb6i-172" style="edgeStyle=none;shape=connector;rounded=0;orthogonalLoop=1;jettySize=auto;html=1;strokeColor=default;strokeWidth=6;align=center;verticalAlign=middle;fontFamily=Helvetica;fontSize=70;fontColor=default;labelBackgroundColor=default;endArrow=classic;endSize=56;" parent="1" source="37-u8FB9lLhl7dkDFb6i-168" target="37-u8FB9lLhl7dkDFb6i-170" edge="1">
          <mxGeometry relative="1" as="geometry" />
        </mxCell>
        <mxCell id="37-u8FB9lLhl7dkDFb6i-168" value="User is redirected to their site for registration" style="rounded=1;whiteSpace=wrap;html=1;strokeColor=default;strokeWidth=8;align=center;verticalAlign=middle;fontFamily=Helvetica;fontSize=70;fontColor=default;fillColor=default;arcSize=38;spacing=3;" parent="1" vertex="1">
          <mxGeometry x="10408" y="-1159" width="800" height="415" as="geometry" />
        </mxCell>
        <mxCell id="37-u8FB9lLhl7dkDFb6i-194" style="edgeStyle=none;shape=connector;rounded=0;orthogonalLoop=1;jettySize=auto;html=1;strokeColor=default;strokeWidth=6;align=center;verticalAlign=middle;fontFamily=Helvetica;fontSize=70;fontColor=default;labelBackgroundColor=default;endArrow=classic;endSize=56;" parent="1" source="37-u8FB9lLhl7dkDFb6i-170" target="37-u8FB9lLhl7dkDFb6i-195" edge="1">
          <mxGeometry relative="1" as="geometry">
            <mxPoint x="9325" y="85" as="targetPoint" />
          </mxGeometry>
        </mxCell>
        <mxCell id="37-u8FB9lLhl7dkDFb6i-170" value="Our site uses the deposited money to bet on the site with their account." style="rounded=1;whiteSpace=wrap;html=1;strokeColor=default;strokeWidth=8;align=center;verticalAlign=middle;fontFamily=Helvetica;fontSize=70;fontColor=default;fillColor=default;arcSize=38;spacing=3;" parent="1" vertex="1">
          <mxGeometry x="9517.5" y="-292" width="800" height="415" as="geometry" />
        </mxCell>
        <mxCell id="37-u8FB9lLhl7dkDFb6i-198" style="edgeStyle=none;shape=connector;rounded=0;orthogonalLoop=1;jettySize=auto;html=1;strokeColor=default;strokeWidth=6;align=center;verticalAlign=middle;fontFamily=Helvetica;fontSize=70;fontColor=default;labelBackgroundColor=default;endArrow=classic;endSize=56;" parent="1" source="37-u8FB9lLhl7dkDFb6i-174" target="37-u8FB9lLhl7dkDFb6i-197" edge="1">
          <mxGeometry relative="1" as="geometry" />
        </mxCell>
        <mxCell id="37-u8FB9lLhl7dkDFb6i-174" value="The prize money is withdrawn to our site where the user can place new bets or withdraw." style="rounded=1;whiteSpace=wrap;html=1;strokeColor=default;strokeWidth=8;align=center;verticalAlign=middle;fontFamily=Helvetica;fontSize=70;fontColor=default;fillColor=default;arcSize=38;spacing=3;" parent="1" vertex="1">
          <mxGeometry x="7888" y="-288" width="800" height="415" as="geometry" />
        </mxCell>
        <mxCell id="37-u8FB9lLhl7dkDFb6i-176" value="" style="ellipse;html=1;shape=startState;fillColor=#000000;strokeColor=none;strokeWidth=8;align=center;verticalAlign=middle;fontFamily=Helvetica;fontSize=70;fontColor=default;labelBackgroundColor=default;perimeterSpacing=0;" parent="1" vertex="1">
          <mxGeometry x="7143" y="-2151" width="170" height="170" as="geometry" />
        </mxCell>
        <mxCell id="37-u8FB9lLhl7dkDFb6i-177" value="" style="html=1;verticalAlign=bottom;endArrow=classic;endSize=56;strokeColor=#000000;rounded=0;strokeWidth=6;align=center;fontFamily=Helvetica;fontSize=70;fontColor=default;labelBackgroundColor=default;endFill=1;" parent="1" source="37-u8FB9lLhl7dkDFb6i-176" target="37-u8FB9lLhl7dkDFb6i-153" edge="1">
          <mxGeometry relative="1" as="geometry">
            <mxPoint x="6590" y="-1675" as="targetPoint" />
          </mxGeometry>
        </mxCell>
        <mxCell id="37-u8FB9lLhl7dkDFb6i-179" value="&lt;font style=&quot;font-size: 40px;&quot;&gt;Amount = 2500 kr.&lt;/font&gt;" style="text;html=1;align=center;verticalAlign=middle;resizable=0;points=[];autosize=1;strokeColor=none;fillColor=none;fontFamily=Helvetica;fontSize=70;fontColor=default;labelBackgroundColor=default;" parent="1" vertex="1">
          <mxGeometry x="-107.01" y="103" width="344" height="96" as="geometry" />
        </mxCell>
        <mxCell id="37-u8FB9lLhl7dkDFb6i-183" style="edgeStyle=none;shape=connector;rounded=0;orthogonalLoop=1;jettySize=auto;html=1;strokeColor=default;strokeWidth=6;align=center;verticalAlign=middle;fontFamily=Helvetica;fontSize=70;fontColor=default;labelBackgroundColor=default;endArrow=classic;endSize=56;" parent="1" source="37-u8FB9lLhl7dkDFb6i-181" target="37-u8FB9lLhl7dkDFb6i-116" edge="1">
          <mxGeometry relative="1" as="geometry" />
        </mxCell>
        <mxCell id="37-u8FB9lLhl7dkDFb6i-181" value="Bank" style="sketch=0;outlineConnect=0;fontColor=#232F3E;gradientColor=none;strokeColor=#232F3E;fillColor=#ffffff;dashed=0;verticalLabelPosition=bottom;verticalAlign=top;align=center;html=1;fontSize=12;fontStyle=0;aspect=fixed;shape=mxgraph.aws4.resourceIcon;resIcon=mxgraph.aws4.bank;strokeWidth=8;fontFamily=Helvetica;labelBackgroundColor=default;" parent="1" vertex="1">
          <mxGeometry x="5950" y="5177" width="950" height="950" as="geometry" />
        </mxCell>
        <mxCell id="37-u8FB9lLhl7dkDFb6i-186" value="Deposits" style="edgeStyle=none;shape=connector;rounded=0;orthogonalLoop=1;jettySize=auto;html=1;strokeColor=default;strokeWidth=6;align=center;verticalAlign=middle;fontFamily=Helvetica;fontSize=70;fontColor=default;labelBackgroundColor=default;endArrow=none;endSize=56;endFill=0;" parent="1" source="37-u8FB9lLhl7dkDFb6i-185" target="37-u8FB9lLhl7dkDFb6i-90" edge="1">
          <mxGeometry x="-0.3191" y="1" relative="1" as="geometry">
            <mxPoint x="-3" as="offset" />
          </mxGeometry>
        </mxCell>
        <mxCell id="37-u8FB9lLhl7dkDFb6i-185" value="«External»&lt;br&gt;&lt;b&gt;Banking system &amp;amp; transaction providers (visa, mobilepay, trustly etc.)&lt;/b&gt;" style="html=1;whiteSpace=wrap;strokeColor=#23445d;strokeWidth=8;align=center;verticalAlign=top;fontFamily=Helvetica;fontSize=70;fillColor=#bac8d3;" parent="1" vertex="1">
          <mxGeometry x="6216" y="1316" width="1045" height="585" as="geometry" />
        </mxCell>
        <mxCell id="37-u8FB9lLhl7dkDFb6i-189" value="&#xa;&lt;span style=&quot;forced-color-adjust: none; color: rgb(0, 0, 0); font-family: Helvetica; font-style: normal; font-variant-ligatures: normal; font-variant-caps: normal; letter-spacing: normal; orphans: 2; text-align: center; text-indent: 0px; text-transform: none; widows: 2; word-spacing: 0px; -webkit-text-stroke-width: 0px; white-space: normal; text-decoration-thickness: initial; text-decoration-style: initial; text-decoration-color: initial;&quot;&gt;Banking system &amp;amp; transaction providers (visa, mobilepay, trustly etc.)&amp;nbsp;&lt;/span&gt;&#xa;&#xa;" style="text;html=1;align=center;verticalAlign=middle;whiteSpace=wrap;rounded=0;fontFamily=Helvetica;fontSize=90;fontColor=default;labelBackgroundColor=none;fontStyle=0" parent="1" vertex="1">
          <mxGeometry x="5795" y="6218" width="1260" height="244" as="geometry" />
        </mxCell>
        <mxCell id="37-u8FB9lLhl7dkDFb6i-191" value="&lt;span style=&quot;text-wrap: nowrap;&quot;&gt;User registered&lt;/span&gt;&lt;br style=&quot;text-wrap: nowrap;&quot;&gt;&lt;span style=&quot;text-wrap: nowrap;&quot;&gt;&amp;nbsp;to this provider?&lt;/span&gt;" style="shape=note;whiteSpace=wrap;html=1;backgroundOutline=1;darkOpacity=0.05;strokeColor=default;strokeWidth=8;align=center;verticalAlign=middle;fontFamily=Helvetica;fontSize=70;fontColor=default;labelBackgroundColor=default;fillColor=default;size=59;" parent="1" vertex="1">
          <mxGeometry x="9385" y="-1519" width="555" height="300" as="geometry" />
        </mxCell>
        <mxCell id="37-u8FB9lLhl7dkDFb6i-196" value="[Yes]" style="edgeStyle=none;shape=connector;rounded=0;orthogonalLoop=1;jettySize=auto;html=1;strokeColor=default;strokeWidth=6;align=center;verticalAlign=middle;fontFamily=Helvetica;fontSize=70;fontColor=default;labelBackgroundColor=default;endArrow=classic;endSize=56;" parent="1" source="37-u8FB9lLhl7dkDFb6i-195" target="37-u8FB9lLhl7dkDFb6i-174" edge="1">
          <mxGeometry x="0.0025" relative="1" as="geometry">
            <mxPoint as="offset" />
          </mxGeometry>
        </mxCell>
        <mxCell id="37-u8FB9lLhl7dkDFb6i-199" style="edgeStyle=none;shape=connector;rounded=0;orthogonalLoop=1;jettySize=auto;html=1;strokeColor=default;strokeWidth=6;align=center;verticalAlign=middle;fontFamily=Helvetica;fontSize=70;fontColor=default;labelBackgroundColor=default;endArrow=classic;endSize=56;" parent="1" source="37-u8FB9lLhl7dkDFb6i-195" target="37-u8FB9lLhl7dkDFb6i-197" edge="1">
          <mxGeometry relative="1" as="geometry" />
        </mxCell>
        <mxCell id="37-u8FB9lLhl7dkDFb6i-202" value="[No]" style="edgeLabel;html=1;align=center;verticalAlign=middle;resizable=0;points=[];strokeColor=#000000;strokeWidth=8;fontFamily=Helvetica;fontSize=70;fontColor=default;labelBackgroundColor=default;fillColor=#000000;" parent="37-u8FB9lLhl7dkDFb6i-199" vertex="1" connectable="0">
          <mxGeometry x="-0.3729" y="9" relative="1" as="geometry">
            <mxPoint x="-1" y="2" as="offset" />
          </mxGeometry>
        </mxCell>
        <mxCell id="37-u8FB9lLhl7dkDFb6i-195" value="" style="rhombus;whiteSpace=wrap;html=1;strokeColor=default;strokeWidth=8;align=center;verticalAlign=middle;fontFamily=Helvetica;fontSize=12;fontColor=default;labelBackgroundColor=default;fillColor=default;" parent="1" vertex="1">
          <mxGeometry x="9068" y="-239.5" width="295" height="310" as="geometry" />
        </mxCell>
        <mxCell id="37-u8FB9lLhl7dkDFb6i-197" value="" style="ellipse;html=1;shape=endState;fillColor=#000000;strokeColor=#000000;strokeWidth=3;align=center;verticalAlign=middle;fontFamily=Helvetica;fontSize=70;fontColor=default;labelBackgroundColor=default;perimeterSpacing=0;gradientColor=#262626;gradientDirection=radial;fillStyle=auto;shadow=0;" parent="1" vertex="1">
          <mxGeometry x="8193" y="400" width="185" height="185" as="geometry" />
        </mxCell>
        <mxCell id="37-u8FB9lLhl7dkDFb6i-200" value="Won bet?" style="shape=note;whiteSpace=wrap;html=1;backgroundOutline=1;darkOpacity=0.05;strokeColor=default;strokeWidth=8;align=center;verticalAlign=middle;fontFamily=Helvetica;fontSize=70;fontColor=default;labelBackgroundColor=default;fillColor=default;size=49;" parent="1" vertex="1">
          <mxGeometry x="8955" y="-548" width="375" height="190" as="geometry" />
        </mxCell>
        <mxCell id="37-u8FB9lLhl7dkDFb6i-201" style="edgeStyle=none;shape=connector;rounded=0;orthogonalLoop=1;jettySize=auto;html=1;strokeColor=default;strokeWidth=6;align=center;verticalAlign=middle;fontFamily=Helvetica;fontSize=70;fontColor=default;labelBackgroundColor=default;endArrow=none;endSize=56;endFill=0;dashed=1;dashPattern=8 8;" parent="1" source="37-u8FB9lLhl7dkDFb6i-195" target="37-u8FB9lLhl7dkDFb6i-200" edge="1">
          <mxGeometry relative="1" as="geometry">
            <mxPoint x="9870" y="-1029" as="sourcePoint" />
            <mxPoint x="9763" y="-1209" as="targetPoint" />
          </mxGeometry>
        </mxCell>
        <mxCell id="4TkhLjCaOaOTBxujXMFi-2" value="&lt;b&gt;Thor jeg er lidt i tvivl om hvad der sker her.&lt;br&gt;Hvordan har win earnings forbindelse til banken?&lt;br&gt;&lt;br&gt;Når de først er inde på siden. &lt;br&gt;Så er earnings også direkte på siden&lt;/b&gt;&lt;div&gt;&lt;b&gt;Det er først når de laver en &quot;withdrawal&quot;&amp;nbsp;&lt;/b&gt;&lt;/div&gt;" style="text;html=1;align=center;verticalAlign=middle;resizable=0;points=[];autosize=1;strokeColor=none;fillColor=none;fontFamily=Helvetica;fontSize=70;fontColor=default;" parent="1" vertex="1">
          <mxGeometry x="7436" y="1713" width="1663" height="516" as="geometry" />
        </mxCell>
        <mxCell id="4TkhLjCaOaOTBxujXMFi-3" value="&lt;b&gt;Thor: Måske skal vi tilføje&lt;br&gt;6: &quot;New account balance is updated and shown user&quot;&lt;/b&gt;" style="text;html=1;align=center;verticalAlign=middle;resizable=0;points=[];autosize=1;strokeColor=none;fillColor=none;fontFamily=Helvetica;fontSize=70;fontColor=default;" parent="1" vertex="1">
          <mxGeometry x="5458" y="4811" width="1800" height="180" as="geometry" />
        </mxCell>
      </root>
    </mxGraphModel>
  </diagram>
</mxfile>
